<?xml version="1.0" encoding="UTF-8" standalone="no"?>
<!-- Created with Inkscape (http://www.inkscape.org/) -->

<svg
   width="148mm"
   height="210mm"
   viewBox="0 0 148 210"
   version="1.1"
   id="svg5"
   xml:space="preserve"
   inkscape:version="1.2.1 (9c6d41e410, 2022-07-14)"
   sodipodi:docname="flyer.svg"
   xmlns:inkscape="http://www.inkscape.org/namespaces/inkscape"
   xmlns:sodipodi="http://sodipodi.sourceforge.net/DTD/sodipodi-0.dtd"
   xmlns="http://www.w3.org/2000/svg"
   xmlns:svg="http://www.w3.org/2000/svg"><sodipodi:namedview
     id="namedview7"
     pagecolor="#ffffff"
     bordercolor="#666666"
     borderopacity="1.0"
     inkscape:showpageshadow="2"
     inkscape:pageopacity="0.0"
     inkscape:pagecheckerboard="0"
     inkscape:deskcolor="#d1d1d1"
     inkscape:document-units="mm"
     showgrid="false"
     inkscape:zoom="0.67496197"
     inkscape:cx="243.71744"
     inkscape:cy="298.53534"
     inkscape:window-width="1846"
     inkscape:window-height="1136"
     inkscape:window-x="0"
     inkscape:window-y="0"
     inkscape:window-maximized="1"
     inkscape:current-layer="layer1" /><defs
     id="defs2"><rect
       x="2.921483"
       y="722.81423"
       width="557.56584"
       height="54.769781"
       id="rect6922" /><rect
       x="2.0305912"
       y="242.21823"
       width="765.12759"
       height="459.2427"
       id="rect6811" /></defs><g
     inkscape:label="Layer 1"
     inkscape:groupmode="layer"
     id="layer1"><path
       id="rect2885"
       d="m 47.610073,124.74422 v 2.11169 2.11066 2.11168 2.11065 2.1117 2.11066 2.11169 h 2.111688 2.110658 2.111688 2.110658 2.11169 2.110658 2.111688 v -2.11169 -2.11066 -2.1117 -2.11065 -2.11168 -2.11066 -2.11169 h -2.111688 -2.110658 -2.11169 -2.110658 -2.111688 -2.110658 z m 19.001076,0 v 2.11169 h 2.110656 v -2.11169 z m 0,2.11169 h -2.11169 v 2.11066 2.11168 h 2.11169 v 2.11065 h 2.110656 2.111688 2.11169 v -2.11065 h 2.11066 v -2.11168 -2.11066 h 2.11169 2.11066 v 2.11066 2.11168 h 2.11168 v -2.11168 -2.11066 -2.11169 h -2.11168 -2.11066 -2.11169 -2.11066 v 2.11169 h -2.11169 v 2.11066 h -2.111688 -2.110656 z m 12.667044,4.22234 h -2.11066 v 2.11065 h -2.11169 v 2.1117 2.11066 h 2.11169 v -2.11066 h 2.11066 v 2.11066 h 2.11168 v -2.11066 -2.1117 h -2.11168 z m 2.11168,6.33301 v 2.11169 h 2.11067 v -2.11169 z m 0,2.11169 h -2.11168 v -2.11169 h -2.11066 v 2.11169 2.11064 h -2.11169 v 2.1117 h 2.11169 2.11066 v -2.1117 h 2.11168 z m -6.33403,2.11064 v -2.11064 -2.11169 h -2.11066 v 2.11169 2.11064 z m -2.11066,-4.22233 v -2.11066 h -2.11169 v 2.11066 z m -2.11169,0 h -2.111688 v 2.11169 h 2.111688 z m -2.111688,2.11169 h -2.110656 v -2.11169 h 2.110656 v -2.11066 h -2.110656 v -2.1117 h -2.11169 v 2.1117 2.11066 2.11169 2.11064 h 2.11169 2.110656 z m 0,2.11064 v 2.1117 2.11066 h -2.110656 v -2.11066 h -2.11169 v -2.1117 h -2.110658 -2.111688 v 2.1117 h 2.111688 v 2.11066 h -2.111688 v 2.11169 h 2.111688 2.110658 v 2.11168 h 2.11169 v -2.11168 h 2.110656 2.111688 v -2.11169 h 2.11169 v -2.11066 h -2.11169 v -2.1117 z m 16.890418,-16.88937 v 2.11169 2.11066 2.11168 2.11065 2.1117 2.11066 2.11169 h 2.11066 2.11169 2.11066 2.11169 2.11066 2.11168 2.110667 v -2.11169 -2.11066 -2.1117 -2.11065 -2.11168 -2.11066 -2.11169 h -2.110667 -2.11168 -2.11066 -2.11169 -2.11066 -2.11169 z m -35.890462,2.11169 h 2.110658 2.111688 2.110658 2.11169 2.110658 v 2.11066 2.11168 2.11065 2.1117 2.11066 h -2.110658 -2.11169 -2.110658 -2.111688 -2.110658 v -2.11066 -2.1117 -2.11065 -2.11168 z m 38.001122,0 h 2.11169 2.11066 2.11169 2.11066 2.11168 v 2.11066 2.11168 2.11065 2.1117 2.11066 h -2.11168 -2.11066 -2.11169 -2.11066 -2.11169 v -2.11066 -2.1117 -2.11065 -2.11168 z m -35.890464,2.11066 v 2.11168 2.11065 2.1117 h 2.111688 2.110658 2.11169 v -2.1117 -2.11065 -2.11168 h -2.11169 -2.110658 z m 38.002154,0 v 2.11168 2.11065 2.1117 h 2.11066 2.11169 2.11066 v -2.1117 -2.11065 -2.11168 h -2.11066 -2.11169 z m -42.2245,12.66702 v 2.1117 2.11066 h 2.111688 2.110658 2.111688 v 2.11169 2.11168 h 2.110658 2.11169 v -2.11168 -2.11169 h -2.11169 v -2.11066 -2.1117 h -2.110658 v 2.1117 h -2.111688 v -2.1117 h -2.110658 z m 6.334034,8.44573 h -2.111688 v 2.11066 h 2.111688 z m 0,2.11066 v 2.11169 2.11066 h 2.110658 v 2.1117 h -2.110658 v 2.11065 h 2.110658 2.11169 2.110658 2.111688 v -2.11065 h -2.111688 -2.110658 v -2.1117 h 2.110658 2.111688 v -2.11066 h -2.111688 v -2.11169 h -2.110658 -2.11169 z m 6.333006,0 h 2.111688 v -2.11066 h -2.111688 z m 2.111688,4.22235 v 2.1117 h 2.110658 v -2.1117 z m 2.110658,0 h 2.11169 2.110656 v -2.11066 h -2.110656 -2.11169 z m 4.222346,-2.11066 h 2.111688 2.11169 v 2.11066 2.1117 h 2.11066 v 2.11065 h 2.11169 v 2.11168 h 2.11066 v -2.11168 -2.11065 h -2.11066 v -2.1117 h -2.11169 v -2.11066 -2.11169 h 2.11169 v -2.11066 h 2.11066 2.111679 v 2.11066 h 2.11067 2.111681 v 2.11169 h -2.111681 -2.11067 v 2.11066 h 2.11067 2.111681 v 2.1117 h -2.111681 -2.11067 v 2.11065 2.11168 h -2.11168 v 2.11066 h 2.11168 v 2.11169 2.11066 h -2.11168 v 2.1117 h -2.11066 v -2.1117 h -2.11169 v -2.11066 h -2.110659 v -2.11169 h -2.11169 v 2.11169 h -2.111688 v -2.11169 h -2.110657 v 2.11169 2.11066 h 2.110657 v 2.1117 2.11066 h 2.111688 v 2.11167 2.11066 h 2.11169 v -2.11066 h 2.110659 2.11169 v -2.11167 h 2.11066 v 2.11167 h 2.11168 v 2.11066 h 2.11067 v -2.11066 -2.11167 -2.11066 -2.1117 h 2.111681 2.110659 v 2.1117 2.11066 h 2.11169 2.11066 v -2.11066 h 2.11169 v 2.11066 h 2.11066 v -2.11066 -2.1117 h -2.11066 v -2.11066 h 2.11066 v -2.11169 h -2.11066 v -2.11066 -2.11168 h 2.11066 v -2.11065 h -2.11066 -2.11169 v -2.1117 -2.11066 h -2.11066 v -2.11169 h -2.11169 v -2.11066 h -2.110659 v -2.11168 h -2.111681 v -2.11169 h 2.111681 v 2.11169 h 2.110659 v -2.11169 -2.11066 h 2.11169 2.11066 v -2.1117 h -2.11066 -2.11169 -2.110659 v 2.1117 h -2.111681 -2.11067 v 2.11066 2.11169 h -2.11168 -2.11066 v -2.11169 h -2.11169 v 2.11169 2.11168 h -2.110659 v 2.11066 h -2.11169 -2.111688 z m 23.223428,0 h 2.11169 v 2.11066 h 2.11066 v -2.11066 -2.11169 h -2.11066 v -2.11066 h -2.11169 v 2.11066 z m 4.22235,-2.11169 h 2.11168 v 2.11169 2.11066 h 2.110667 v -2.11066 -2.11169 -2.11066 h -2.110667 -2.11168 z m 2.11168,4.22235 h -2.11168 v 2.1117 h 2.11168 z m -2.11168,8.44469 h 2.11168 2.110667 v -2.11066 -2.11168 h -2.110667 v 2.11168 h -2.11168 z m -2.11066,8.44471 h -2.11169 v 2.11167 h 2.11169 z m -6.33404,0 h -2.11066 v 2.11167 2.11066 h 2.11066 2.11169 v -2.11066 h -2.11169 z m -8.44469,2.11167 h -2.11066 v 2.11066 h 2.11066 z m -12.667044,-6.33403 h -2.11169 v 2.1117 h 2.11169 z m 0,-4.22235 v -2.11066 -2.11168 h -2.11169 v 2.11168 2.11066 z m 0,-4.22234 h 2.110656 v 2.11168 h 2.111688 v -2.11168 h 2.11169 v -2.11065 h -2.11169 -2.111688 -2.110656 z m 8.444694,6.33403 h 2.11169 v -2.11169 -2.11066 h -2.11169 v 2.11066 z m 2.11169,0 v 2.11066 h 2.11066 v -2.11066 z m 4.22234,-8.44468 v -2.1117 h -2.11168 v 2.1117 z m -4.22234,-6.33405 v 2.11169 h 2.11066 v -2.11169 z m -25.335115,0 H 49.72176 v 2.11169 h 2.110658 z m -2.110658,2.11169 h -2.111688 v 2.11066 h 2.111688 z m 0,2.11066 v 2.1117 h -2.111688 v 2.11065 h 2.111688 2.110658 v -2.11065 -2.1117 z m 0,-4.22235 v -2.11066 h 2.110658 v -2.11168 H 49.72176 47.610072 v 2.11168 2.11066 z m 44.335162,-10.55639 v 2.1117 h 2.11066 2.11168 v -2.1117 h -2.11168 z m 4.222341,2.1117 v 2.11066 h -2.11168 v 2.11169 h 2.11168 2.110667 v -2.11169 -2.11066 z m -8.44469,2.11066 v 2.11169 h 2.11066 v -2.11169 z m -2.11169,10.55638 h 2.11169 v 2.1117 h -2.11169 z m -4.22234,4.22235 h 2.11168 2.110659 2.11169 v 2.11168 2.11066 2.11169 h -2.11169 -2.110659 -2.111681 v -2.11169 -2.11066 z m -35.890471,2.11168 v 2.11066 2.11169 2.11066 2.1117 2.11066 2.11167 2.11066 h 2.111689 2.110658 2.111688 2.110658 2.11169 2.110658 2.111688 v -2.11066 -2.11167 -2.11066 -2.1117 -2.11066 -2.11169 -2.11066 h -2.111688 -2.110658 -2.11169 -2.110658 -2.111688 -2.110658 z m 38.002151,0 v 2.11066 h 2.110659 v -2.11066 z m -35.890463,2.11066 h 2.110658 2.111688 2.110658 2.11169 2.110658 v 2.11169 2.11066 2.1117 2.11066 2.11167 h -2.110658 -2.11169 -2.110658 -2.111688 -2.110658 v -2.11167 -2.11066 -2.1117 -2.11066 z m 2.110658,2.11169 v 2.11066 2.1117 2.11066 h 2.111688 2.110658 2.11169 v -2.11066 -2.1117 -2.11066 h -2.11169 -2.110658 z m 46.446845,0 v 2.11066 h 2.110657 v -2.11066 z m 0,4.22236 v 2.11066 h 2.110657 v -2.11066 z m -33.779804,2.11066 v 2.11167 2.11066 h 2.111689 v -2.11066 -2.11167 z m 31.668124,2.11167 v 2.11066 h 2.11168 2.110667 v -2.11066 h -2.110667 z"
       style="fill:#000000;fill-opacity:1;stroke-width:2.11122" /><path
       id="path4562-3"
       style="color:#000000;display:inline;fill:#4fbda1;fill-opacity:1;stroke:none;stroke-width:0.15543;-inkscape-stroke:none"
       d="m 107.46743,16.324948 c -1.15971,0.01091 -2.16958,0.300069 -2.16958,0.300069 l -0.0609,0.0173 0.004,0.06183 c 0,0 1.45986,23.98057 0.84413,34.364705 l -0.003,0.04364 0.0342,0.02393 c 1.4641,1.06052 2.37128,1.365562 3.02189,1.372431 0.6506,0.0068 1.03153,-0.282573 1.40578,-0.37463 l 0.0182,-0.0047 0.014,-0.01273 c 0.66183,-0.580525 0.84162,-1.736186 0.8705,-3.191628 0.0289,-1.455443 -0.10062,-3.219501 -0.10548,-5.02901 -0.004,-1.809514 0.11437,-3.663006 0.63711,-5.291194 0.51937,-1.617689 1.43857,-3.008226 3.02522,-3.931796 0.84109,0.106261 1.62519,0.95936 2.31992,2.242022 0.70089,1.294018 1.31015,3.0032 1.82253,4.739251 0.51239,1.736045 0.92823,3.499869 1.24635,4.906559 0.15904,0.703345 0.29428,1.316218 0.40432,1.793736 0.11006,0.477513 0.19253,0.81474 0.25794,0.981736 l 0.007,0.01607 0.0115,0.0115 c 0.63486,0.616615 1.08571,1.036894 1.49397,1.327573 0.40827,0.290679 0.77598,0.450708 1.23239,0.53982 0.46239,0.09027 1.09837,0.07341 1.62916,-0.227932 0.53079,-0.301342 0.94502,-0.894836 0.9484,-1.911037 v -0.02181 l -0.0112,-0.01818 c -2.11357,-3.672139 -3.80766,-10.285088 -4.77592,-13.133865 -0.4867,-1.431935 -1.44415,-3.119216 -2.63363,-4.446156 -1.18948,-1.326939 -2.61383,-2.299719 -4.04273,-2.265965 -2.67493,0.06319 -4.30245,2.341463 -4.48949,2.609678 -0.004,-0.177009 -0.069,-2.979931 -0.087,-6.197456 -0.009,-1.658723 -0.007,-3.378627 0.0261,-4.805628 0.0327,-1.426996 0.0975,-2.568029 0.19944,-3.040381 l 0.006,-0.02757 -0.0137,-0.02393 c -0.29987,-0.569129 -0.78585,-0.923335 -1.33788,-1.130558 -0.55203,-0.207227 -1.17054,-0.271258 -1.7504,-0.265816 z M 68.090686,29.65583 c -1.146692,-0.01144 -3.241838,0.359046 -5.760995,2.575126 -3.827421,3.366955 -6.774368,7.387834 -8.003014,9.318162 -0.616493,0.968569 -1.111042,2.062913 -1.294534,3.119485 -0.183494,1.056578 -0.05472,2.080509 0.584374,2.883377 0.621887,0.781266 1.093208,1.392971 1.750394,1.811015 0.657187,0.418051 1.493601,0.633478 2.829729,0.633478 1.359101,0 2.862859,-0.811689 4.143357,-1.756151 1.280497,-0.944469 2.335711,-2.022789 2.788206,-2.5821 0.861975,-1.06547 2.895307,-4.008122 3.071297,-4.262477 0.0069,0.202899 0.06818,2.012636 0.183372,4.122747 0.06073,1.112522 0.133963,2.25119 0.216414,3.162837 0.04124,0.455817 0.08482,0.855403 0.130637,1.167532 0.04583,0.312134 0.08929,0.530547 0.149124,0.654088 0.212949,0.439782 0.817367,0.897012 1.467294,1.261196 0.649936,0.364183 1.336119,0.628925 1.75616,0.628925 0.398929,0 0.834954,-0.105347 1.202988,-0.35735 0.368043,-0.252004 0.665573,-0.652622 0.77897,-1.228156 0.05934,-0.301266 0.03041,-0.823573 -0.04245,-1.516706 -0.07286,-0.693134 -0.192625,-1.550901 -0.325228,-2.496014 -0.265207,-1.890227 -0.582101,-4.129193 -0.68167,-6.080765 -0.09957,-1.95155 -0.0052,-4.097146 0.01481,-5.929517 0.01014,-0.916186 8.67e-4,-1.754627 -0.05969,-2.452676 -0.06108,-0.698043 -0.172213,-1.255253 -0.382502,-1.619753 -0.41869,-0.725716 -1.329302,-0.952668 -2.122601,-1.006893 -0.785944,-0.05372 -1.458292,0.06297 -1.470941,0.06517 -0.01715,-0.0053 -0.338171,-0.108725 -0.923537,-0.114573 z m -27.74443,0.170646 c -0.53335,0.0059 -1.077256,0.212201 -1.552168,0.444644 -0.474911,0.232447 -0.884159,0.49302 -1.127224,0.611652 -0.203637,0.09939 -0.499512,0.345743 -0.86383,0.691978 -0.364319,0.34623 -0.790752,0.791272 -1.228155,1.2818 -0.840396,0.942469 -1.695158,2.038403 -2.247476,2.930359 -0.622423,-2.165445 -1.305423,-3.464407 -1.94165,-4.260354 -0.652841,-0.816734 -1.256869,-1.136803 -1.664619,-1.409107 -0.233563,-0.155976 -0.585958,-0.19135 -0.997796,-0.152457 -0.411845,0.03889 -0.885698,0.156956 -1.360917,0.332499 -0.950428,0.351091 -1.906093,0.92923 -2.361136,1.600363 -0.449805,0.663402 -1.45437,2.715893 -2.240808,6.064395 -0.78644,3.348503 -1.440886,7.986765 -0.989761,13.797351 v 0.01273 l 0.0059,0.0112 c 0.118738,0.277095 0.218261,0.45953 0.304915,0.579828 0.08665,0.120297 0.160252,0.182575 0.238237,0.203983 0.07799,0.02141 0.149308,-0.01484 0.184282,-0.05185 0.03496,-0.03695 0.04939,-0.07789 0.04939,-0.07789 l 0.0067,-0.01696 -0.0023,-0.01848 c 0,0 -0.293178,-2.892151 -0.221258,-6.526318 0.06584,-3.327071 0.57195,-7.225312 1.748415,-10.128947 -0.906842,4.503805 -1.720666,6.716518 -1.06327,16.581914 l 0.0023,0.03666 0.03091,0.02182 c 0.712577,0.500816 1.29505,0.569616 1.724022,0.4595 0.428977,-0.110122 0.697152,-0.389398 0.806546,-0.578613 0.02182,-0.03777 0.02047,-0.06157 0.02516,-0.100936 0.0047,-0.03936 0.0075,-0.08877 0.01033,-0.150029 0.0059,-0.122533 0.0081,-0.290597 0.0091,-0.499508 0.0017,-0.417828 -0.0023,-0.99918 -0.0047,-1.700988 -0.0041,-1.403623 0.0029,-3.287451 0.09396,-5.293617 0.179472,-3.950442 0.707045,-8.358127 2.088351,-10.505096 1.058367,1.340676 1.823386,3.361518 2.356589,5.15177 0.273119,0.916995 0.48908,1.768105 0.659848,2.427513 0.08538,0.329707 0.159312,0.61153 0.224292,0.830494 0.06498,0.218958 0.117041,0.371714 0.175494,0.462832 0.200521,0.312568 0.695051,0.76052 1.242704,1.129342 0.547653,0.368823 1.136551,0.661403 1.561564,0.595893 0.394933,-0.06088 0.810787,-0.271711 1.159352,-0.539515 0.348565,-0.267805 0.630305,-0.59086 0.744713,-0.899294 0.05972,-0.160991 0.09104,-0.418625 0.122452,-0.745927 0.0314,-0.327296 0.06045,-0.720742 0.100931,-1.133888 0.08095,-0.826301 0.21377,-1.733289 0.508601,-2.330226 0.573968,-1.1621 1.791593,-2.740269 1.908308,-2.892469 0.04156,0.14115 0.671432,2.276324 1.393041,5.023256 0.745002,2.83598 1.541031,6.160598 1.747059,8.095759 l 0.0034,0.0264 0.01728,0.01818 c 1.210877,1.309268 2.105145,1.65975 2.772442,1.603999 0.667297,-0.05578 1.084511,-0.516494 1.334543,-0.751687 l 0.0046,-0.0047 0.0034,-0.0047 c 0.196509,-0.257183 0.344381,-0.411294 0.453738,-0.533756 0.109358,-0.122468 0.185778,-0.220054 0.215504,-0.35281 0.05945,-0.265499 -0.05407,-0.607254 -0.278548,-1.599449 -0.224373,-0.991231 -1.066557,-4.919578 -1.997842,-8.775038 -0.465642,-1.927723 -0.953388,-3.837634 -1.3988,-5.355443 -0.222707,-0.758908 -0.434068,-1.418831 -0.627717,-1.935894 -0.193649,-0.517057 -0.36494,-0.888413 -0.525876,-1.082667 -0.379901,-0.458556 -0.857858,-0.625213 -1.342727,-0.619835 z m 54.341027,0.102144 c -1.08847,-0.01349 -2.2962,0.131119 -3.46866,0.560126 -1.696598,0.620791 -4.200912,1.786452 -6.31536,2.948541 -1.057224,0.581047 -2.016516,1.160511 -2.728794,1.672501 -0.356148,0.255991 -0.650612,0.494827 -0.86596,0.71046 -0.215349,0.215637 -0.355334,0.404859 -0.39069,0.585287 -0.124043,0.632926 0.186266,1.249535 0.89565,1.841017 0.709394,0.591482 1.821752,1.173122 3.344085,1.76858 2.986802,1.168283 6.182239,2.288717 6.293549,2.327797 -0.0606,0.07415 -0.827756,1.016618 -1.932569,2.138969 -1.147394,1.165614 -2.587917,2.439132 -3.718408,2.873071 -1.154637,0.443196 -1.82339,0.63376 -2.215656,0.858073 -0.196115,0.112151 -0.326414,0.23917 -0.396147,0.408877 -0.06974,0.169707 -0.07944,0.372142 -0.06307,0.640445 0.03526,0.577576 0.605743,1.230796 1.339082,1.758276 0.733331,0.527491 1.637228,0.923241 2.3863,0.923241 0.204676,0 0.464867,-0.08934 0.781387,-0.246114 0.31653,-0.156786 0.687181,-0.383082 1.093888,-0.662276 0.813399,-0.558385 1.772544,-1.332049 2.727583,-2.198374 1.91008,-1.732637 3.80106,-3.828667 4.46192,-5.33817 0.52493,-1.199034 0.72237,-2.323855 0.0482,-3.32802 -0.17959,-0.267488 -0.52424,-0.478123 -0.97144,-0.667726 -0.44719,-0.189601 -0.99916,-0.355044 -1.59702,-0.51315 -1.19574,-0.316199 -2.575981,-0.601195 -3.650827,-0.963548 -1.078857,-0.363732 -1.752608,-0.67142 -2.154655,-0.88656 -0.329621,-0.176393 -0.391036,-0.238648 -0.43191,-0.27279 0.08724,-0.05945 1.37799,-0.944175 3.155861,-1.862543 1.836691,-0.948744 4.090601,-1.865551 5.714311,-1.761911 0.836,0.05338 1.42923,-0.03015 1.84891,-0.199438 0.41967,-0.169279 0.66494,-0.427845 0.78927,-0.708946 0.24865,-0.562209 0.0295,-1.189112 -0.0758,-1.430932 -0.0264,-0.06059 -0.0748,-0.1073 -0.14186,-0.157003 -0.067,-0.04968 -0.15374,-0.100162 -0.25884,-0.151249 -0.21022,-0.102168 -0.4959,-0.207034 -0.8411,-0.303401 -0.69039,-0.192723 -1.62065,-0.350113 -2.65999,-0.36311 -3.1e-4,-6e-6 -5.9e-4,0 -8.6e-4,0 z m -28.256367,4.607399 c -0.128653,0.362658 -1.369474,3.831036 -3.248907,6.696963 -1.939297,2.957204 -4.922142,5.194787 -5.035987,5.279981 -0.02463,-0.05109 -0.05615,-0.129612 -0.08578,-0.24642 -0.06065,-0.239146 -0.109805,-0.629225 -0.05395,-1.223311 0.05669,-0.602902 0.06649,-0.918115 0.454951,-1.611876 0.388459,-0.693761 1.159317,-1.759477 2.729705,-3.813582 1.567273,-2.050038 2.931123,-3.356971 3.900881,-4.150332 0.842975,-0.689638 1.211789,-0.864758 1.339082,-0.931423 z"
       sodipodi:nodetypes="sccccccscccscscsssscccssscccsssccscccsssssssssssscssssssssssssssscsssssscsssssscccssscccscsccsscccsccssssssssssscscccscccssssssssssssssssscsssssssssssssssscsssscsssssscscsssssc" /><g
       aria-label="help wanted.
interested in working on a fresh, clean, open-source, privacy-focused collaborative calendar app?"
       transform="matrix(0.13229166,0,0,0.13229166,23.142492,32.756329)"
       id="text6809"
       style="font-size:53.3333px;line-height:1.35;white-space:pre;shape-inside:url(#rect6811);display:inline"><path
         d="m 156.71245,258.03437 -6.27201,-0.82133 v -3.21067 l 12.17068,-1.41867 h 0.14933 l 1.64267,1.12 v 17.32268 l -0.29867,6.34667 q 2.38934,-2.16534 6.57067,-4.10667 4.18134,-1.94134 8.43734,-1.94134 4.704,0 7.31734,1.792 2.61333,1.792 3.65866,5.52534 1.04534,3.65867 1.04534,9.93067 v 20.83201 l 5.22667,0.672 v 3.65867 h -17.84534 v -3.65867 l 4.85333,-0.672 v -20.90668 q 0,-4.40533 -0.59733,-6.86933 -0.59734,-2.53867 -2.24,-3.73334 -1.64267,-1.26933 -4.92801,-1.26933 -2.688,0 -5.74933,1.344 -3.06134,1.344 -5.376,3.136 v 28.29868 l 5.152,0.672 v 3.65867 h -17.39734 v -3.65867 l 4.48,-0.59733 z"
         style="font-size:74.6667px"
         id="path7804" /><path
         d="m 220.2537,314.55706 q -9.03467,0 -13.81334,-5.89867 -4.70401,-5.89867 -4.70401,-15.75467 0,-6.496 2.46401,-11.42401 2.464,-4.928 6.86933,-7.616 4.48,-2.688 10.15467,-2.688 6.94401,0 10.75201,3.88267 3.88267,3.808 4.10667,10.976 0,4.55467 -0.52267,6.94401 h -25.68534 q 0.14933,7.392 3.43466,11.94667 3.28534,4.48 9.33334,4.48 2.98667,0 6.19734,-1.04533 3.28533,-1.12 5.07733,-2.61334 l 1.41867,3.28534 q -2.16533,2.24 -6.42134,3.88267 -4.256,1.64266 -8.66133,1.64266 z m 7.616,-25.53601 q 0.224,-1.568 0.224,-3.21067 -0.0747,-4.85333 -2.09067,-7.616 -1.94133,-2.83733 -6.19733,-2.83733 -4.33067,0 -6.94401,3.136 -2.53866,3.136 -2.912,10.528 z"
         style="font-size:74.6667px"
         id="path7806" /><path
         d="m 247.95495,258.03437 -6.048,-0.82133 v -3.21067 l 12.02134,-1.41867 h 0.14933 l 1.64267,1.12 v 55.77603 l 6.34667,0.59733 v 3.65867 h -20.16001 v -3.65867 l 6.048,-0.672 z"
         style="font-size:74.6667px"
         id="path7808" /><path
         d="m 307.76285,291.55972 q 0,6.34667 -2.61334,11.64801 -2.61333,5.22666 -7.46667,8.288 -4.85333,3.06133 -11.34934,3.06133 -1.792,0 -3.88267,-0.29866 -2.09066,-0.29867 -3.36,-0.74667 l 0.224,6.272 v 7.54134 l 7.76534,0.82133 v 3.65867 h -20.83201 v -3.65867 l 5.376,-0.82133 v -49.28002 l -5.45067,-1.344 v -4.03201 l 10.60267,-1.344 h 0.14934 l 1.568,1.344 v 4.40534 q 2.24,-2.464 5.52533,-4.18134 3.36001,-1.71733 7.46667,-1.71733 4.40534,0 8.06401,2.16533 3.73333,2.16534 5.97333,6.72001 2.24001,4.55467 2.24001,11.49867 z m -19.33868,-15.15734 q -2.83733,0 -5.30134,1.19467 -2.464,1.19466 -3.808,2.61333 v 28.14935 q 0.52267,0.896 2.61334,1.64266 2.16533,0.67201 4.704,0.67201 5.74933,0 9.25867,-4.55467 3.584,-4.55467 3.584,-13.73868 0,-8.064 -3.136,-12.02134 -3.06133,-3.95733 -7.91467,-3.95733 z"
         style="font-size:74.6667px"
         id="path7810" /><path
         d="m 328.07204,272.29571 h 17.39734 v 3.50934 l -5.67467,0.896 6.19734,21.95201 2.16533,9.48267 2.16534,-9.55734 7.168,-26.28268 h 7.31734 l 7.392,26.28268 2.16533,9.632 2.38934,-9.55733 6.048,-21.87735 -5.67467,-0.97066 v -3.50934 h 15.15734 v 3.50934 l -3.95733,0.97066 -11.57334,37.55735 h -7.01867 l -7.91467,-26.35734 -1.94134,-9.25867 -1.568,9.25867 -7.54133,26.35734 h -6.94401 l -11.94667,-37.63201 -3.808,-0.896 z"
         style="font-size:74.6667px"
         id="path7812" /><path
         d="m 394.59997,302.53572 q 0,-7.01867 7.01867,-10.304 7.01867,-3.36 17.77068,-3.584 v -2.09067 q 0,-3.50933 -0.74667,-5.52534 -0.74667,-2.016 -2.61334,-2.912 -1.792,-0.97066 -5.152,-0.97066 -3.808,0 -6.86933,1.12 -2.98667,1.04533 -5.97334,2.61333 l -1.86667,-3.88267 q 0.97067,-0.82133 3.584,-2.16533 2.61334,-1.344 6.04801,-2.38934 3.43466,-1.04533 6.86933,-1.04533 5.30134,0 8.36267,1.49333 3.13601,1.41867 4.48001,4.62934 1.344,3.21067 1.344,8.58667 v 23.96801 h 4.40533 v 3.28534 q -1.49333,0.37333 -3.808,0.74666 -2.24,0.37334 -3.95734,0.37334 -2.09066,0 -2.83733,-0.672 -0.74667,-0.59734 -0.74667,-2.76267 v -2.464 q -2.24,2.24 -5.52533,4.10667 -3.21067,1.86666 -7.31734,1.86666 -5.376,0 -8.96,-3.06133 -3.50934,-3.136 -3.50934,-8.96001 z m 15.68001,6.94401 q 1.94133,0 4.48,-1.19467 2.53867,-1.19467 4.62934,-2.83733 v -12.84268 q -8.13867,0 -12.32001,2.53867 -4.10667,2.464 -4.10667,6.496 0,4.03201 1.94134,5.97334 2.016,1.86667 5.376,1.86667 z"
         style="font-size:74.6667px"
         id="path7814" /><path
         d="m 440.96791,278.04505 -5.376,-1.344 v -4.03201 l 10.67734,-1.344 h 0.224 l 1.568,1.344 v 3.13601 l -0.0747,1.792 q 2.688,-2.38934 7.09334,-4.33067 4.40533,-1.94134 8.43734,-1.94134 4.704,0 7.24267,1.792 2.61333,1.792 3.65867,5.52534 1.04533,3.65867 1.04533,9.93067 v 20.90668 l 5.22667,0.52266 v 3.73334 h -17.69601 v -3.65867 l 4.62934,-0.59733 v -20.98135 q 0,-4.40533 -0.59734,-6.86933 -0.59733,-2.53867 -2.24,-3.73334 -1.64267,-1.26933 -4.77867,-1.26933 -2.688,0 -5.74933,1.344 -3.06134,1.344 -5.45067,3.136 v 28.29868 l 5.07733,0.672 v 3.65867 h -17.62134 v -3.65867 l 4.704,-0.672 z"
         style="font-size:74.6667px"
         id="path7816" /><path
         d="m 498.83459,314.4824 q -4.256,0 -6.34667,-1.94134 -2.09067,-1.94133 -2.09067,-6.64533 v -28.67202 h -5.376 v -3.36 q 0.37333,-0.0747 2.09067,-0.52267 1.71733,-0.448 2.31467,-0.82133 1.19466,-0.672 1.86666,-2.688 0.59734,-1.41867 1.41867,-4.55467 0.82134,-3.136 0.97067,-3.73333 h 4.40533 l 0.14934,10.752 h 12.46934 v 4.928 h -12.46934 v 22.92268 q 0,4.256 0.224,5.97334 0.29866,1.71733 1.12,2.24 0.896,0.52266 2.98667,0.52266 2.016,0 4.40533,-0.52266 2.464,-0.52267 3.808,-1.12 l 1.12,3.36 q -1.792,1.344 -5.824,2.61333 -3.95733,1.26934 -7.24267,1.26934 z"
         style="font-size:74.6667px"
         id="path7818" /><path
         d="m 534.82391,314.55706 q -9.03467,0 -13.81334,-5.89867 -4.70401,-5.89867 -4.70401,-15.75467 0,-6.496 2.46401,-11.42401 2.464,-4.928 6.86933,-7.616 4.48,-2.688 10.15467,-2.688 6.94401,0 10.75201,3.88267 3.88267,3.808 4.10667,10.976 0,4.55467 -0.52267,6.94401 h -25.68535 q 0.14934,7.392 3.43467,11.94667 3.28534,4.48 9.33334,4.48 2.98667,0 6.19734,-1.04533 3.28533,-1.12 5.07733,-2.61334 l 1.41867,3.28534 q -2.16533,2.24 -6.42134,3.88267 -4.256,1.64266 -8.66133,1.64266 z m 7.616,-25.53601 q 0.224,-1.568 0.224,-3.21067 -0.0747,-4.85333 -2.09067,-7.616 -1.94133,-2.83733 -6.19733,-2.83733 -4.33067,0 -6.94401,3.136 -2.53866,3.136 -2.912,10.528 z"
         style="font-size:74.6667px"
         id="path7820" /><path
         d="m 573.2025,314.55706 q -4.48001,0 -8.21334,-2.24 -3.73334,-2.24 -5.97334,-6.86933 -2.16533,-4.62934 -2.16533,-11.42401 0,-6.34667 2.61333,-11.57334 2.61334,-5.22667 7.46667,-8.21334 4.92801,-3.06133 11.57334,-3.06133 3.808,0 6.94401,0.82133 v -13.96267 l -7.61601,-0.896 v -3.21067 l 13.44001,-1.344 h 0.224 l 1.64267,1.19467 v 56.14936 h 4.33066 v 3.43467 q -2.38933,0.52266 -4.18133,0.82133 -1.71733,0.29867 -3.65867,0.29867 -1.94133,0 -2.76267,-0.672 -0.82133,-0.672 -0.82133,-2.83734 v -2.38933 q -2.09067,2.53867 -5.52534,4.256 -3.36,1.71733 -7.31733,1.71733 z m 2.98666,-5.30133 q 2.91201,0 5.45067,-1.26934 2.53867,-1.344 3.80801,-3.06133 v -27.32801 q -0.59734,-0.896 -2.83734,-1.568 -2.16533,-0.74667 -4.62933,-0.74667 -5.82401,0 -9.33334,4.48 -3.43467,4.40534 -3.43467,13.66401 0,8.064 3.06133,11.94667 3.06134,3.88267 7.91467,3.88267 z"
         style="font-size:74.6667px"
         id="path7822" /><path
         d="m 609.56505,314.4824 q -1.94134,0 -3.36,-1.344 -1.41867,-1.344 -1.41867,-3.43467 0,-2.31467 1.64267,-3.88267 1.71733,-1.568 3.95733,-1.568 2.31467,0 3.50934,1.41867 1.26933,1.344 1.26933,3.36 0,2.464 -1.64267,3.95733 -1.64266,1.49334 -3.95733,1.49334 z"
         style="font-size:74.6667px"
         id="path7824" /><path
         d="m 68.195639,356.08098 v 4.63999 h -5.226664 v -4.63999 z m -0.106667,11.14666 v 27.25331 h -5.01333 v -27.25331 z"
         style="font-family:Chivo;-inkscape-font-specification:Chivo"
         id="path7826" /><path
         d="m 90.382202,366.6943 q 4.479998,0 7.039996,2.4 2.559999,2.4 2.559999,7.04 v 18.34665 h -5.013331 v -17.43999 q 0,-6.34666 -5.759996,-6.34666 -1.919999,0 -3.573332,1.01333 -1.653332,1.01334 -2.666665,2.77334 -1.013332,1.70666 -1.013332,3.78666 v 16.21332 H 76.94221 v -27.25331 h 3.626665 l 0.693333,3.99999 q 3.413331,-4.53333 9.119994,-4.53333 z"
         style="font-family:Chivo;-inkscape-font-specification:Chivo"
         id="path7828" /><path
         d="m 114.16872,367.22764 h 6.34666 v 3.99999 h -6.34666 v 16.26666 q 0,1.92 0.74666,2.77333 0.74667,0.85334 2.29334,0.85334 1.38666,0 3.30666,-0.8 v 3.73333 q -1.92,0.96 -4.96,0.96 -3.14666,0 -4.79999,-1.86667 -1.6,-1.86666 -1.6,-5.92 v -15.99999 h -2.98667 v -3.99999 h 3.14667 l 1.70666,-8.69333 h 3.14667 z"
         style="font-family:Chivo;-inkscape-font-specification:Chivo"
         id="path7830" /><path
         d="m 137.68864,366.6943 q 3.35999,0 5.91999,1.44 2.61334,1.38667 4.05333,4 1.44,2.61333 1.44,6.08 v 3.78666 h -19.03999 q 0.10667,4.32 2.02667,6.66666 1.92,2.34667 5.70666,2.34667 3.36,0 4.96,-1.97333 1.6,-1.97334 1.6,-4.69333 h 4.74666 q 0,3.19999 -1.49333,5.59999 -1.44,2.4 -4.05333,3.73333 -2.56,1.33334 -5.86666,1.33334 h -0.21334 q -5.75999,0 -9.11999,-3.68 -3.30667,-3.73333 -3.30667,-9.92 v -1.06666 q 0,-4.05333 1.49334,-7.14666 1.49333,-3.09334 4.26666,-4.8 2.77333,-1.70667 6.50666,-1.70667 z m -0.26667,4 q -3.04,0 -4.96,1.86667 -1.86666,1.86666 -2.29333,5.54666 h 13.97333 v -0.64 q 0,-3.04 -1.86667,-4.90666 -1.81333,-1.86667 -4.85333,-1.86667 z"
         style="font-family:Chivo;-inkscape-font-specification:Chivo"
         id="path7832" /><path
         d="m 168.67527,366.6943 q 3.78667,0 5.92,2.45334 2.13333,2.39999 2.13333,6.07999 l -0.16,2.02667 h -4.42666 v -1.17334 q 0,-1.59999 -0.8,-2.82666 -0.8,-1.22667 -2.02667,-1.86667 -1.22667,-0.69333 -2.45333,-0.69333 -2.56,0 -4,2.02667 -1.44,2.02666 -1.44,5.49333 v 16.26665 h -5.01333 v -27.25331 h 3.57333 l 0.74667,4.05333 q 0.32,-1.06667 1.44,-2.13333 1.12,-1.06667 2.77333,-1.76 1.70667,-0.69334 3.73333,-0.69334 z"
         style="font-family:Chivo;-inkscape-font-specification:Chivo"
         id="path7834" /><path
         d="m 193.47525,366.6943 q 3.35999,0 5.91999,1.44 2.61333,1.38667 4.05333,4 1.44,2.61333 1.44,6.08 v 3.78666 h -19.03999 q 0.10667,4.32 2.02667,6.66666 1.92,2.34667 5.70666,2.34667 3.36,0 4.96,-1.97333 1.6,-1.97334 1.6,-4.69333 h 4.74666 q 0,3.19999 -1.49333,5.59999 -1.44,2.4 -4.05333,3.73333 -2.56,1.33334 -5.86666,1.33334 h -0.21334 q -5.75999,0 -9.11999,-3.68 -3.30667,-3.73333 -3.30667,-9.92 v -1.06666 q 0,-4.05333 1.49334,-7.14666 1.49333,-3.09334 4.26666,-4.8 2.77333,-1.70667 6.50666,-1.70667 z m -0.26667,4 q -3.04,0 -4.96,1.86667 -1.86666,1.86666 -2.29333,5.54666 h 13.97333 v -0.64 q 0,-3.04 -1.86667,-4.90666 -1.81333,-1.86667 -4.85333,-1.86667 z"
         style="font-family:Chivo;-inkscape-font-specification:Chivo"
         id="path7836" /><path
         d="m 222.59522,366.6943 q 3.04,0 5.38666,0.96 2.4,0.96 3.68,2.66667 1.33333,1.70666 1.33333,3.78666 l -0.0533,0.96 h -4.96 v -0.48 q 0,-3.89333 -6.02666,-3.89333 -5.97333,0 -5.97333,3.57333 0,1.65333 1.70666,2.45333 1.70667,0.74667 5.22667,1.44 3.36,0.69334 5.49333,1.44 2.18666,0.74667 3.68,2.34667 1.54666,1.6 1.54666,4.32 0,4.37333 -2.98666,6.55999 -2.98667,2.18667 -8.58666,2.18667 h -0.8 q -3.36,0 -5.86667,-1.01334 -2.50666,-1.06666 -3.89333,-2.82666 -1.33333,-1.81333 -1.28,-4.05333 v -1.17333 h 4.96 v 0.53333 q 0,4.53333 7.62666,4.53333 2.24,0 4,-1.01333 1.81333,-1.01334 1.81333,-2.77334 0,-1.49333 -1.01333,-2.34666 -0.96,-0.85333 -2.4,-1.28 -1.44,-0.42667 -4,-0.85333 -3.30666,-0.64 -5.33333,-1.28 -2.02666,-0.69333 -3.46666,-2.29333 -1.44,-1.6 -1.44,-4.37333 0,-3.78667 2.98666,-5.92 2.98667,-2.18667 8.16,-2.18667 z"
         style="font-family:Chivo;-inkscape-font-specification:Chivo"
         id="path7838" /><path
         d="m 246.54179,367.22764 h 6.34667 v 3.99999 h -6.34667 v 16.26666 q 0,1.92 0.74667,2.77333 0.74666,0.85334 2.29333,0.85334 1.38667,0 3.30667,-0.8 v 3.73333 q -1.92,0.96 -4.96,0.96 -3.14667,0 -4.8,-1.86667 -1.6,-1.86666 -1.6,-5.92 v -15.99999 h -2.98666 v -3.99999 h 3.14666 l 1.70667,-8.69333 h 3.14666 z"
         style="font-family:Chivo;-inkscape-font-specification:Chivo"
         id="path7840" /><path
         d="m 270.0617,366.6943 q 3.36,0 5.92,1.44 2.61333,1.38667 4.05333,4 1.44,2.61333 1.44,6.08 v 3.78666 h -19.03999 q 0.10667,4.32 2.02667,6.66666 1.92,2.34667 5.70666,2.34667 3.36,0 4.96,-1.97333 1.6,-1.97334 1.6,-4.69333 h 4.74666 q 0,3.19999 -1.49333,5.59999 -1.44,2.4 -4.05333,3.73333 -2.56,1.33334 -5.86667,1.33334 h -0.21333 q -5.76,0 -9.11999,-3.68 -3.30667,-3.73333 -3.30667,-9.92 v -1.06666 q 0,-4.05333 1.49333,-7.14666 1.49334,-3.09334 4.26667,-4.8 2.77333,-1.70667 6.50666,-1.70667 z m -0.26666,4 q -3.04,0 -4.96,1.86667 -1.86667,1.86666 -2.29333,5.54666 h 13.97332 v -0.64 q 0,-3.04 -1.86666,-4.90666 -1.81334,-1.86667 -4.85333,-1.86667 z"
         style="font-family:Chivo;-inkscape-font-specification:Chivo"
         id="path7842" /><path
         d="m 311.02167,394.48095 h -3.73333 q -0.37334,-1.70666 -0.69334,-3.73333 -3.03999,4.26667 -8.42666,4.26667 -5.11999,0 -8.10666,-3.78667 -2.93333,-3.78666 -2.93333,-10.39999 v -0.58667 q 0,-6.23999 2.88,-9.86666 2.93333,-3.68 8.15999,-3.68 5.06667,0 7.84,4 v -14.61332 h 5.01333 z M 299.07501,370.6943 q -3.57333,0 -5.28,2.50667 -1.65333,2.45333 -1.65333,7.67999 0,5.22667 1.70666,7.68 1.70667,2.45333 5.22667,2.45333 6.98666,0 6.98666,-10.13333 0,-5.22666 -1.76,-7.67999 -1.76,-2.50667 -5.22666,-2.50667 z"
         style="font-family:Chivo;-inkscape-font-specification:Chivo"
         id="path7844" /><path
         d="m 338.0082,356.08098 v 4.63999 h -5.22666 v -4.63999 z m -0.10667,11.14666 v 27.25331 h -5.01333 v -27.25331 z"
         style="font-family:Chivo;-inkscape-font-specification:Chivo"
         id="path7846" /><path
         d="m 360.19477,366.6943 q 4.48,0 7.04,2.4 2.56,2.4 2.56,7.04 v 18.34665 h -5.01333 v -17.43999 q 0,-6.34666 -5.76,-6.34666 -1.92,0 -3.57333,1.01333 -1.65333,1.01334 -2.66667,2.77334 -1.01333,1.70666 -1.01333,3.78666 v 16.21332 h -5.01333 v -27.25331 h 3.62666 l 0.69334,3.99999 q 3.41333,-4.53333 9.11999,-4.53333 z"
         style="font-family:Chivo;-inkscape-font-specification:Chivo"
         id="path7848" /><path
         d="m 429.04795,367.22764 -8.90666,27.25331 h -5.22666 l -6.29333,-19.03998 h -0.21333 l -6.18667,19.03998 h -5.22666 l -8.96,-27.25331 h 5.17333 l 6.34667,19.94665 h 0.21333 l 6.45333,-19.94665 h 4.90666 l 6.34667,19.94665 h 0.21333 l 6.45333,-19.94665 z"
         style="font-family:Chivo;-inkscape-font-specification:Chivo"
         id="path7850" /><path
         d="m 445.31446,366.6943 q 5.70666,0 9.12,3.52 3.41333,3.52 3.41333,9.65333 v 1.97333 q 0,6.13333 -3.36,9.65333 -3.36,3.52 -9.17333,3.52 -5.81333,0 -9.17333,-3.52 -3.35999,-3.52 -3.35999,-9.65333 v -1.97333 q 0,-6.13333 3.41333,-9.65333 3.41333,-3.52 9.11999,-3.52 z m 0,4 q -3.57333,0 -5.54666,2.45333 -1.97333,2.45333 -1.97333,7.2 v 1.01333 q 0,4.64 1.91999,7.14666 1.97334,2.50667 5.6,2.50667 3.52,0 5.49333,-2.45333 2.02667,-2.50667 2.02667,-7.2 v -1.01333 q 0,-4.64 -1.97334,-7.14666 -1.91999,-2.50667 -5.54666,-2.50667 z"
         style="font-family:Chivo;-inkscape-font-specification:Chivo"
         id="path7852" /><path
         d="m 477.31441,366.6943 q 3.78666,0 5.91999,2.45334 2.13334,2.39999 2.13334,6.07999 l -0.16,2.02667 h -4.42667 v -1.17334 q 0,-1.59999 -0.8,-2.82666 -0.8,-1.22667 -2.02666,-1.86667 -1.22667,-0.69333 -2.45333,-0.69333 -2.56,0 -4,2.02667 -1.44,2.02666 -1.44,5.49333 v 16.26665 h -5.01333 v -27.25331 h 3.57333 l 0.74667,4.05333 q 0.32,-1.06667 1.44,-2.13333 1.11999,-1.06667 2.77333,-1.76 1.70666,-0.69334 3.73333,-0.69334 z"
         style="font-family:Chivo;-inkscape-font-specification:Chivo"
         id="path7854" /><path
         d="m 496.19438,356.08098 v 26.34665 l 12.15999,-15.19999 h 5.49333 l -10.50666,13.22666 11.2,14.02665 h -6.08 l -8.16,-10.13332 -4.10666,4.26666 v 5.86666 h -5.01333 v -38.39997 z"
         style="font-family:Chivo;-inkscape-font-specification:Chivo"
         id="path7856" /><path
         d="m 524.83437,356.08098 v 4.63999 h -5.22666 v -4.63999 z m -0.10667,11.14666 v 27.25331 h -5.01333 v -27.25331 z"
         style="font-family:Chivo;-inkscape-font-specification:Chivo"
         id="path7858" /><path
         d="m 547.02094,366.6943 q 4.48,0 7.04,2.4 2.56,2.4 2.56,7.04 v 18.34665 h -5.01333 v -17.43999 q 0,-6.34666 -5.76,-6.34666 -1.92,0 -3.57333,1.01333 -1.65333,1.01334 -2.66667,2.77334 -1.01333,1.70666 -1.01333,3.78666 v 16.21332 h -5.01333 v -27.25331 h 3.62667 l 0.69333,3.99999 q 3.41333,-4.53333 9.11999,-4.53333 z"
         style="font-family:Chivo;-inkscape-font-specification:Chivo"
         id="path7860" /><path
         d="m 590.16749,362.32097 q 0,2.72 -1.44,4.58667 -1.44,1.81333 -3.99999,2.34666 l -0.10667,0.16 q 2.66666,2.34667 2.66666,5.86667 0,3.83999 -2.87999,6.18666 -2.88,2.34666 -7.84,2.34666 h -3.62666 q -1.6,0 -2.66667,0.85334 -1.06666,0.8 -1.06666,2.07999 0,1.28 1.01333,2.02667 1.01333,0.74667 2.72,0.74667 h 10.29332 q 3.14667,0 5.01333,1.97333 1.92,1.97333 1.92,5.01333 0,3.62666 -2.77333,5.81333 -2.72,2.18666 -7.35999,2.18666 h -10.72 q -1.81333,0 -3.36,-0.96 -1.49333,-0.95999 -2.39999,-2.45333 -0.85334,-1.44 -0.85334,-2.98666 0,-2.24 1.06667,-3.89333 1.12,-1.65334 2.93333,-2.45333 -2.45333,-1.49334 -2.45333,-4.42667 0,-1.92 1.12,-3.30666 1.12,-1.38667 3.14666,-2.08 -3.57333,-1.97333 -3.57333,-6.66666 0,-3.94667 2.88,-6.24 2.93333,-2.34667 8.10666,-2.34667 h 0.21333 q 2.98667,0 5.44,0.90667 3.78667,-1.86667 4.32,-5.28 z m -14.07999,8.37333 q -2.82666,0 -4.53333,1.12 -1.65333,1.06667 -1.65333,3.46667 0,2.39999 1.65333,3.46666 1.70667,1.06667 4.53333,1.06667 2.82667,0 4.53333,-1.06667 1.70667,-1.06667 1.70667,-3.46666 0,-2.4 -1.70667,-3.46667 -1.70666,-1.12 -4.53333,-1.12 z m -5.33333,23.62665 q -1.28,0 -2.18666,0.90667 -0.90667,0.90667 -0.90667,2.18667 0,1.27999 0.90667,2.18666 0.90666,0.90667 2.18666,0.90667 h 10.29333 q 1.70666,0 2.93333,-1.01334 1.22667,-0.96 1.22667,-2.23999 0,-1.33334 -0.90667,-2.13334 -0.90667,-0.8 -2.56,-0.8 z"
         style="font-family:Chivo;-inkscape-font-specification:Chivo"
         id="path7862" /><path
         d="m 619.39405,366.6943 q 5.70666,0 9.12,3.52 3.41333,3.52 3.41333,9.65333 v 1.97333 q 0,6.13333 -3.36,9.65333 -3.36,3.52 -9.17333,3.52 -5.81333,0 -9.17333,-3.52 -3.36,-3.52 -3.36,-9.65333 v -1.97333 q 0,-6.13333 3.41334,-9.65333 3.41333,-3.52 9.11999,-3.52 z m 0,4 q -3.57333,0 -5.54666,2.45333 -1.97333,2.45333 -1.97333,7.2 v 1.01333 q 0,4.64 1.91999,7.14666 1.97334,2.50667 5.6,2.50667 3.52,0 5.49333,-2.45333 2.02667,-2.50667 2.02667,-7.2 v -1.01333 q 0,-4.64 -1.97334,-7.14666 -1.91999,-2.50667 -5.54666,-2.50667 z"
         style="font-family:Chivo;-inkscape-font-specification:Chivo"
         id="path7864" /><path
         d="m 652.56733,366.6943 q 4.48,0 7.04,2.4 2.55999,2.4 2.55999,7.04 v 18.34665 h -5.01333 v -17.43999 q 0,-6.34666 -5.75999,-6.34666 -1.92,0 -3.57333,1.01333 -1.65334,1.01334 -2.66667,2.77334 -1.01333,1.70666 -1.01333,3.78666 v 16.21332 h -5.01333 v -27.25331 h 3.62666 l 0.69334,3.99999 q 3.41333,-4.53333 9.11999,-4.53333 z"
         style="font-family:Chivo;-inkscape-font-specification:Chivo"
         id="path7866" /><path
         d="m 694.48722,366.6943 q 5.38667,0 8,2.13334 2.66666,2.13333 2.66666,6.18666 v 14.13332 q 0,0.96 0.42667,1.44 0.42667,0.42667 1.06667,0.42667 1.22666,0 2.45333,-0.74667 v 3.68 q -1.81333,1.06667 -4.10666,1.06667 -2.29334,0 -3.41334,-1.28 -1.12,-1.33334 -1.22666,-3.62667 -3.30667,4.90667 -9.54666,4.90667 -4.48,0 -6.72,-1.92 -2.18666,-1.97333 -2.18666,-6.18667 0,-3.30666 1.70666,-5.17333 1.70667,-1.91999 5.65333,-2.77333 3.94667,-0.85333 10.87999,-0.85333 v -2.50667 q 0,-2.71999 -1.59999,-3.78666 -1.6,-1.12 -4.64,-1.12 -2.88,0 -4.48,1.12 -1.6,1.12 -1.6,3.14667 v 0.63999 h -4.90666 q -0.10667,-0.74666 -0.10667,-1.75999 0,-1.86667 1.49333,-3.52 1.49334,-1.65333 4.05333,-2.61333 2.56,-1.01334 5.65333,-1.01334 z m 5.65333,15.30666 q -5.59999,0 -8.47999,0.58667 -2.82667,0.53333 -3.78666,1.65333 -0.96,1.12 -0.96,3.09333 0,3.68 5.59999,3.68 1.97333,0 3.73333,-0.96 1.76,-1.01333 2.82667,-2.82667 1.06666,-1.81333 1.06666,-4.15999 z"
         style="font-family:Chivo;-inkscape-font-specification:Chivo"
         id="path7868" /><path
         d="m 69.182209,429.26228 q 3.039998,0 5.01333,1.01333 v 3.68 q -1.599999,-0.69333 -2.719998,-0.69333 -2.133332,0 -2.879999,0.8 -0.746666,0.74666 -0.746666,2.56 v 4.21333 h 6.346663 v 4 h -6.346663 v 23.25331 h -5.01333 v -23.25331 h -2.986665 v -4 h 2.986665 v -3.68 q 0,-7.89333 6.346663,-7.89333 z"
         style="font-family:Chivo;-inkscape-font-specification:Chivo"
         id="path7870" /><path
         d="m 92.06216,440.30227 q 3.786664,0 5.919996,2.45334 2.133334,2.4 2.133334,6.07999 l -0.160001,2.02667 h -4.426664 v -1.17333 q 0,-1.6 -0.8,-2.82667 -0.799999,-1.22667 -2.026665,-1.86666 -1.226666,-0.69334 -2.453332,-0.69334 -2.559999,0 -3.999998,2.02667 -1.439999,2.02666 -1.439999,5.49333 v 16.26665 h -5.01333 v -27.25331 h 3.573331 l 0.746666,4.05333 q 0.32,-1.06667 1.439999,-2.13333 1.12,-1.06667 2.773332,-1.76 1.706666,-0.69334 3.733331,-0.69334 z"
         style="font-family:Chivo;-inkscape-font-specification:Chivo"
         id="path7872" /><path
         d="m 116.86213,440.30227 q 3.36,0 5.92,1.44 2.61333,1.38667 4.05333,4 1.44,2.61333 1.44,6.08 v 3.78666 h -19.03999 q 0.10667,4.32 2.02667,6.66666 1.92,2.34667 5.70666,2.34667 3.36,0 4.96,-1.97333 1.6,-1.97333 1.6,-4.69333 h 4.74666 q 0,3.2 -1.49333,5.59999 -1.44,2.4 -4.05333,3.73334 -2.56,1.33333 -5.86667,1.33333 h -0.21333 q -5.76,0 -9.11999,-3.68 -3.30667,-3.73333 -3.30667,-9.91999 v -1.06667 q 0,-4.05333 1.49333,-7.14666 1.49334,-3.09333 4.26667,-4.8 2.77333,-1.70667 6.50666,-1.70667 z m -0.26666,4 q -3.04,0 -4.96,1.86667 -1.86667,1.86666 -2.29333,5.54666 h 13.97332 v -0.64 q 0,-3.04 -1.86666,-4.90666 -1.81333,-1.86667 -4.85333,-1.86667 z"
         style="font-family:Chivo;-inkscape-font-specification:Chivo"
         id="path7874" /><path
         d="m 145.98211,440.30227 q 3.03999,0 5.38666,0.96 2.4,0.96 3.68,2.66667 1.33333,1.70666 1.33333,3.78666 l -0.0533,0.96 h -4.96 v -0.48 q 0,-3.89333 -6.02666,-3.89333 -5.97333,0 -5.97333,3.57333 0,1.65334 1.70666,2.45334 1.70667,0.74666 5.22667,1.43999 3.35999,0.69334 5.49333,1.44 2.18666,0.74667 3.67999,2.34667 1.54667,1.6 1.54667,4.32 0,4.37333 -2.98667,6.55999 -2.98666,2.18667 -8.58666,2.18667 h -0.8 q -3.35999,0 -5.86666,-1.01333 -2.50666,-1.06667 -3.89333,-2.82667 -1.33333,-1.81333 -1.28,-4.05333 v -1.17333 h 4.96 v 0.53333 q 0,4.53333 7.62666,4.53333 2.24,0 4,-1.01333 1.81333,-1.01334 1.81333,-2.77333 0,-1.49334 -1.01333,-2.34667 -0.96,-0.85333 -2.4,-1.28 -1.44,-0.42667 -4,-0.85333 -3.30666,-0.64 -5.33333,-1.28 -2.02667,-0.69333 -3.46666,-2.29333 -1.44,-1.6 -1.44,-4.37333 0,-3.78667 2.98666,-5.92 2.98667,-2.18667 8.16,-2.18667 z"
         style="font-family:Chivo;-inkscape-font-specification:Chivo"
         id="path7876" /><path
         d="m 169.07535,444.24894 q 3.35999,-3.94667 8.42666,-3.94667 4.48,0 7.03999,2.4 2.56,2.4 2.56,7.04 v 18.34665 h -5.01333 v -17.43998 q 0,-6.34667 -5.75999,-6.34667 -1.92,0 -3.57334,1.01334 -1.65333,1.01333 -2.66666,2.77333 -1.01333,1.70666 -1.01333,3.78666 v 16.21332 h -5.01333 v -38.39997 h 5.01333 z"
         style="font-family:Chivo;-inkscape-font-specification:Chivo"
         id="path7878" /><path
         d="m 200.32859,462.16893 v 4.53333 l -1.86667,7.99999 h -2.77333 l 1.44,-6.61333 h -2.18667 v -5.91999 z"
         style="font-family:Chivo;-inkscape-font-specification:Chivo"
         id="path7880" /><path
         d="m 232.06181,440.30227 q 3.25333,0 5.81333,1.44 2.61333,1.38667 4.05333,3.94667 1.44,2.56 1.44,5.86666 h -4.96 q 0,-3.30666 -1.70667,-5.28 -1.65333,-1.97333 -4.79999,-1.97333 -3.30667,0 -5.28,2.24 -1.92,2.18667 -1.92,6.02666 v 2.88 q 0,4.64 1.92,6.93333 1.92,2.24 5.44,2.24 3.25333,0 4.85333,-1.92 1.65333,-1.97333 1.65333,-5.28 h 4.8 q 0,5.12 -3.09334,8.16 -3.03999,3.04 -8.15999,3.04 h -0.42667 q -3.62666,0 -6.34666,-1.65333 -2.72,-1.70667 -4.21333,-4.74667 -1.44,-3.04 -1.44,-7.09333 v -1.28 q 0,-4.05333 1.49333,-7.09333 1.49334,-3.09333 4.21333,-4.74666 2.72,-1.70667 6.24,-1.70667 z"
         style="font-family:Chivo;-inkscape-font-specification:Chivo"
         id="path7882" /><path
         d="m 255.63505,429.68895 v 38.39997 h -5.01333 v -38.39997 z"
         style="font-family:Chivo;-inkscape-font-specification:Chivo"
         id="path7884" /><path
         d="m 275.63504,440.30227 q 3.36,0 5.91999,1.44 2.61334,1.38667 4.05333,4 1.44,2.61333 1.44,6.08 v 3.78666 h -19.03998 q 0.10666,4.32 2.02666,6.66666 1.92,2.34667 5.70666,2.34667 3.36,0 4.96,-1.97333 1.6,-1.97333 1.6,-4.69333 h 4.74666 q 0,3.2 -1.49333,5.59999 -1.44,2.4 -4.05333,3.73334 -2.56,1.33333 -5.86666,1.33333 h -0.21334 q -5.75999,0 -9.11999,-3.68 -3.30667,-3.73333 -3.30667,-9.91999 v -1.06667 q 0,-4.05333 1.49334,-7.14666 1.49333,-3.09333 4.26666,-4.8 2.77333,-1.70667 6.50666,-1.70667 z m -0.26667,4 q -3.04,0 -4.96,1.86667 -1.86666,1.86666 -2.29333,5.54666 h 13.97333 v -0.64 q 0,-3.04 -1.86667,-4.90666 -1.81333,-1.86667 -4.85333,-1.86667 z"
         style="font-family:Chivo;-inkscape-font-specification:Chivo"
         id="path7886" /><path
         d="m 305.07499,440.30227 q 5.38667,0 8,2.13334 2.66666,2.13333 2.66666,6.18666 v 14.13332 q 0,0.96 0.42667,1.44 0.42667,0.42667 1.06667,0.42667 1.22666,0 2.45333,-0.74667 v 3.68 q -1.81333,1.06667 -4.10667,1.06667 -2.29333,0 -3.41333,-1.28 -1.12,-1.33333 -1.22666,-3.62667 -3.30667,4.90667 -9.54666,4.90667 -4.48,0 -6.72,-1.92 -2.18667,-1.97333 -2.18667,-6.18666 0,-3.30667 1.70667,-5.17333 1.70667,-1.92 5.65333,-2.77334 3.94666,-0.85333 10.87999,-0.85333 v -2.50666 q 0,-2.72 -1.6,-3.78667 -1.59999,-1.12 -4.63999,-1.12 -2.88,0 -4.48,1.12 -1.6,1.12 -1.6,3.14667 v 0.64 h -4.90666 q -0.10667,-0.74667 -0.10667,-1.76 0,-1.86667 1.49333,-3.52 1.49334,-1.65333 4.05333,-2.61333 2.56,-1.01334 5.65333,-1.01334 z m 5.65333,15.30666 q -5.59999,0 -8.47999,0.58667 -2.82667,0.53333 -3.78667,1.65333 -0.95999,1.12 -0.95999,3.09333 0,3.68 5.59999,3.68 1.97333,0 3.73333,-0.96 1.76,-1.01333 2.82667,-2.82666 1.06666,-1.81334 1.06666,-4.16 z"
         style="font-family:Chivo;-inkscape-font-specification:Chivo"
         id="path7888" /><path
         d="m 338.99494,440.30227 q 4.48,0 7.04,2.4 2.56,2.4 2.56,7.04 v 18.34665 h -5.01333 v -17.43998 q 0,-6.34667 -5.76,-6.34667 -1.92,0 -3.57333,1.01334 -1.65333,1.01333 -2.66667,2.77333 -1.01333,1.70666 -1.01333,3.78666 v 16.21332 h -5.01333 v -27.25331 h 3.62667 l 0.69333,4 q 3.41333,-4.53334 9.11999,-4.53334 z"
         style="font-family:Chivo;-inkscape-font-specification:Chivo"
         id="path7890" /><path
         d="m 361.82151,462.16893 v 4.53333 l -1.86667,7.99999 h -2.77333 l 1.44,-6.61333 h -2.18667 v -5.91999 z"
         style="font-family:Chivo;-inkscape-font-specification:Chivo"
         id="path7892" /><path
         d="m 393.76807,440.30227 q 5.70667,0 9.12,3.52 3.41333,3.52 3.41333,9.65333 v 1.97333 q 0,6.13333 -3.36,9.65333 -3.36,3.52 -9.17333,3.52 -5.81332,0 -9.17332,-3.52 -3.36,-3.52 -3.36,-9.65333 v -1.97333 q 0,-6.13333 3.41333,-9.65333 3.41333,-3.52 9.11999,-3.52 z m 0,4 q -3.57333,0 -5.54666,2.45333 -1.97333,2.45334 -1.97333,7.2 v 1.01333 q 0,4.64 1.92,7.14667 1.97333,2.50666 5.59999,2.50666 3.52,0 5.49333,-2.45333 2.02667,-2.50667 2.02667,-7.2 v -1.01333 q 0,-4.64 -1.97333,-7.14666 -1.92,-2.50667 -5.54667,-2.50667 z"
         style="font-family:Chivo;-inkscape-font-specification:Chivo"
         id="path7894" /><path
         d="m 426.35469,440.30227 q 5.17333,0 8.10666,3.78667 2.93333,3.78666 2.93333,10.39999 v 0.58667 q 0,6.29333 -2.93333,9.91999 -2.88,3.62667 -8.10666,3.62667 -5.01333,0 -7.84,-4 v 13.11999 h -5.01333 v -36.90664 h 3.73333 q 0.37334,1.70666 0.69334,3.73333 3.03999,-4.26667 8.42666,-4.26667 z m -0.90667,4 q -3.62666,0 -5.33333,2.50667 -1.65333,2.50666 -1.65333,7.62666 0,5.22666 1.70667,7.73333 1.75999,2.45333 5.27999,2.45333 3.52,0 5.22667,-2.50666 1.70666,-2.50667 1.70666,-7.68 0,-5.22666 -1.76,-7.68 -1.70666,-2.45333 -5.17333,-2.45333 z"
         style="font-family:Chivo;-inkscape-font-specification:Chivo"
         id="path7896" /><path
         d="m 455.52792,440.30227 q 3.36,0 5.92,1.44 2.61333,1.38667 4.05333,4 1.44,2.61333 1.44,6.08 v 3.78666 h -19.03999 q 0.10667,4.32 2.02666,6.66666 1.92,2.34667 5.70667,2.34667 3.36,0 4.95999,-1.97333 1.6,-1.97333 1.6,-4.69333 h 4.74667 q 0,3.2 -1.49334,5.59999 -1.43999,2.4 -4.05333,3.73334 -2.55999,1.33333 -5.86666,1.33333 h -0.21333 q -5.76,0 -9.12,-3.68 -3.30666,-3.73333 -3.30666,-9.91999 v -1.06667 q 0,-4.05333 1.49333,-7.14666 1.49333,-3.09333 4.26666,-4.8 2.77334,-1.70667 6.50667,-1.70667 z m -0.26667,4 q -3.03999,0 -4.95999,1.86667 -1.86667,1.86666 -2.29333,5.54666 h 13.97332 v -0.64 q 0,-3.04 -1.86667,-4.90666 -1.81333,-1.86667 -4.85333,-1.86667 z"
         style="font-family:Chivo;-inkscape-font-specification:Chivo"
         id="path7898" /><path
         d="m 487.68788,440.30227 q 4.47999,0 7.03999,2.4 2.56,2.4 2.56,7.04 v 18.34665 h -5.01333 v -17.43998 q 0,-6.34667 -5.76,-6.34667 -1.92,0 -3.57333,1.01334 -1.65333,1.01333 -2.66666,2.77333 -1.01334,1.70666 -1.01334,3.78666 v 16.21332 h -5.01333 v -27.25331 h 3.62667 l 0.69333,4 q 3.41333,-4.53334 9.12,-4.53334 z"
         style="font-family:Chivo;-inkscape-font-specification:Chivo"
         id="path7900" /><path
         d="m 518.6211,451.0756 v 5.22667 h -13.49333 v -5.22667 z"
         style="font-family:Chivo;-inkscape-font-specification:Chivo"
         id="path7902" /><path
         d="m 537.12771,440.30227 q 3.03999,0 5.38666,0.96 2.4,0.96 3.68,2.66667 1.33333,1.70666 1.33333,3.78666 l -0.0533,0.96 h -4.96 v -0.48 q 0,-3.89333 -6.02666,-3.89333 -5.97333,0 -5.97333,3.57333 0,1.65334 1.70666,2.45334 1.70667,0.74666 5.22667,1.43999 3.35999,0.69334 5.49333,1.44 2.18666,0.74667 3.67999,2.34667 1.54667,1.6 1.54667,4.32 0,4.37333 -2.98667,6.55999 -2.98666,2.18667 -8.58666,2.18667 h -0.8 q -3.36,0 -5.86666,-1.01333 -2.50667,-1.06667 -3.89333,-2.82667 -1.33333,-1.81333 -1.28,-4.05333 v -1.17333 h 4.96 v 0.53333 q 0,4.53333 7.62666,4.53333 2.24,0 4,-1.01333 1.81333,-1.01334 1.81333,-2.77333 0,-1.49334 -1.01333,-2.34667 -0.96,-0.85333 -2.4,-1.28 -1.44,-0.42667 -4,-0.85333 -3.30667,-0.64 -5.33333,-1.28 -2.02667,-0.69333 -3.46667,-2.29333 -1.43999,-1.6 -1.43999,-4.37333 0,-3.78667 2.98666,-5.92 2.98667,-2.18667 8.16,-2.18667 z"
         style="font-family:Chivo;-inkscape-font-specification:Chivo"
         id="path7904" /><path
         d="m 566.08759,440.30227 q 5.70667,0 9.12,3.52 3.41333,3.52 3.41333,9.65333 v 1.97333 q 0,6.13333 -3.36,9.65333 -3.36,3.52 -9.17333,3.52 -5.81333,0 -9.17332,-3.52 -3.36,-3.52 -3.36,-9.65333 v -1.97333 q 0,-6.13333 3.41333,-9.65333 3.41333,-3.52 9.11999,-3.52 z m 0,4 q -3.57333,0 -5.54666,2.45333 -1.97333,2.45334 -1.97333,7.2 v 1.01333 q 0,4.64 1.92,7.14667 1.97333,2.50666 5.59999,2.50666 3.52,0 5.49333,-2.45333 2.02667,-2.50667 2.02667,-7.2 v -1.01333 q 0,-4.64 -1.97333,-7.14666 -1.92,-2.50667 -5.54667,-2.50667 z"
         style="font-family:Chivo;-inkscape-font-specification:Chivo"
         id="path7906" /><path
         d="m 608.5942,462.75559 q 0,0.96 0.42667,1.44 0.42666,0.42667 1.06666,0.42667 1.17334,0 2.4,-0.74667 v 3.68 q -1.65333,1.06667 -3.36,1.06667 -2.87999,0 -4.05333,-1.17333 -1.12,-1.17334 -1.22666,-3.30667 -1.44,2.13333 -3.73333,3.30667 -2.24,1.17333 -5.17333,1.17333 -4.10667,0 -6.77333,-2.4 -2.61333,-2.45333 -2.61333,-7.04 v -18.34665 h 5.01333 v 17.43999 q 0,6.34666 5.75999,6.34666 1.86667,0 3.52,-1.01333 1.70667,-1.01334 2.72,-2.72 1.01333,-1.76 1.01333,-3.84 v -16.21332 h 5.01333 z"
         style="font-family:Chivo;-inkscape-font-specification:Chivo"
         id="path7908" /><path
         d="m 631.04744,440.30227 q 3.78667,0 5.92,2.45334 2.13333,2.4 2.13333,6.07999 l -0.16,2.02667 h -4.42666 v -1.17333 q 0,-1.6 -0.8,-2.82667 -0.8,-1.22667 -2.02667,-1.86666 -1.22667,-0.69334 -2.45333,-0.69334 -2.56,0 -4,2.02667 -1.44,2.02666 -1.44,5.49333 v 16.26665 h -5.01333 v -27.25331 h 3.57333 l 0.74667,4.05333 q 0.32,-1.06667 1.44,-2.13333 1.12,-1.06667 2.77333,-1.76 1.70667,-0.69334 3.73333,-0.69334 z"
         style="font-family:Chivo;-inkscape-font-specification:Chivo"
         id="path7910" /><path
         d="m 655.58074,440.30227 q 3.25333,0 5.81333,1.44 2.61333,1.38667 4.05333,3.94667 1.44,2.56 1.44,5.86666 h -4.95999 q 0,-3.30666 -1.70667,-5.28 -1.65333,-1.97333 -4.8,-1.97333 -3.30666,0 -5.27999,2.24 -1.92,2.18667 -1.92,6.02666 v 2.88 q 0,4.64 1.92,6.93333 1.91999,2.24 5.43999,2.24 3.25333,0 4.85333,-1.92 1.65334,-1.97333 1.65334,-5.28 h 4.79999 q 0,5.12 -3.09333,8.16 -3.04,3.04 -8.15999,3.04 h -0.42667 q -3.62666,0 -6.34666,-1.65333 -2.72,-1.70667 -4.21333,-4.74667 -1.44,-3.04 -1.44,-7.09333 v -1.28 q 0,-4.05333 1.49333,-7.09333 1.49333,-3.09333 4.21333,-4.74666 2.72,-1.70667 6.24,-1.70667 z"
         style="font-family:Chivo;-inkscape-font-specification:Chivo"
         id="path7912" /><path
         d="m 684.86065,440.30227 q 3.36,0 5.92,1.44 2.61333,1.38667 4.05333,4 1.44,2.61333 1.44,6.08 v 3.78666 h -19.03999 q 0.10667,4.32 2.02667,6.66666 1.92,2.34667 5.70666,2.34667 3.36,0 4.96,-1.97333 1.6,-1.97333 1.6,-4.69333 h 4.74666 q 0,3.2 -1.49333,5.59999 -1.44,2.4 -4.05333,3.73334 -2.56,1.33333 -5.86667,1.33333 h -0.21333 q -5.76,0 -9.11999,-3.68 -3.30667,-3.73333 -3.30667,-9.91999 v -1.06667 q 0,-4.05333 1.49333,-7.14666 1.49334,-3.09333 4.26667,-4.8 2.77333,-1.70667 6.50666,-1.70667 z m -0.26666,4 q -3.04,0 -4.96,1.86667 -1.86667,1.86666 -2.29333,5.54666 h 13.97332 v -0.64 q 0,-3.04 -1.86666,-4.90666 -1.81333,-1.86667 -4.85333,-1.86667 z"
         style="font-family:Chivo;-inkscape-font-specification:Chivo"
         id="path7914" /><path
         d="m 708.22064,462.16893 v 4.53333 l -1.86666,7.99999 h -2.77333 l 1.44,-6.61333 h -2.18667 v -5.91999 z"
         style="font-family:Chivo;-inkscape-font-specification:Chivo"
         id="path7916" /><path
         d="m 28.329051,513.91025 q 5.17333,0 8.106661,3.78666 2.933332,3.78666 2.933332,10.39999 v 0.58667 q 0,6.29333 -2.933332,9.91999 -2.879998,3.62667 -8.106661,3.62667 -5.013331,0 -7.839996,-4 v 13.11999 h -5.01333 v -36.90664 h 3.733331 q 0.373333,1.70666 0.693333,3.73333 3.039998,-4.26666 8.426662,-4.26666 z m -0.906666,3.99999 q -3.626665,0 -5.333331,2.50667 -1.653332,2.50666 -1.653332,7.62666 0,5.22666 1.706666,7.73333 1.759999,2.45333 5.279997,2.45333 3.519997,0 5.226663,-2.50666 1.706666,-2.50667 1.706666,-7.68 0,-5.22666 -1.759999,-7.67999 -1.706666,-2.45334 -5.17333,-2.45334 z"
         style="font-family:Chivo;-inkscape-font-specification:Chivo"
         id="path7918" /><path
         d="m 58.835608,513.91025 q 3.786664,0 5.919996,2.45333 2.133332,2.4 2.133332,6.07999 l -0.159999,2.02667 h -4.426664 v -1.17333 q 0,-1.6 -0.8,-2.82667 -0.8,-1.22666 -2.026665,-1.86666 -1.226666,-0.69334 -2.453332,-0.69334 -2.559999,0 -3.999998,2.02667 -1.439999,2.02666 -1.439999,5.49333 v 16.26666 h -5.01333 v -27.25332 h 3.573331 l 0.746666,4.05333 q 0.32,-1.06667 1.439999,-2.13333 1.119999,-1.06667 2.773332,-1.76 1.706665,-0.69333 3.733331,-0.69333 z"
         style="font-family:Chivo;-inkscape-font-specification:Chivo"
         id="path7920" /><path
         d="m 77.822254,503.29692 v 4.64 H 72.59559 v -4.64 z m -0.106667,11.14666 v 27.25332 h -5.01333 v -27.25332 z"
         style="font-family:Chivo;-inkscape-font-specification:Chivo"
         id="path7922" /><path
         d="M 108.80881,514.44358 98.462153,541.6969 h -5.33333 L 82.782162,514.44358 h 5.33333 l 7.786662,20.85332 h 0.213333 l 7.786663,-20.85332 z"
         style="font-family:Chivo;-inkscape-font-specification:Chivo"
         id="path7924" /><path
         d="m 124.59542,513.91025 q 5.38667,0 8,2.13333 2.66666,2.13333 2.66666,6.18666 v 14.13333 q 0,0.96 0.42667,1.44 0.42667,0.42666 1.06667,0.42666 1.22666,0 2.45333,-0.74666 v 3.67999 q -1.81334,1.06667 -4.10667,1.06667 -2.29333,0 -3.41333,-1.28 -1.12,-1.33333 -1.22666,-3.62666 -3.30667,4.90666 -9.54667,4.90666 -4.47999,0 -6.71999,-1.92 -2.18667,-1.97333 -2.18667,-6.18666 0,-3.30667 1.70667,-5.17333 1.70666,-1.92 5.65333,-2.77333 3.94666,-0.85334 10.87999,-0.85334 v -2.50666 q 0,-2.72 -1.6,-3.78667 -1.6,-1.12 -4.63999,-1.12 -2.88,0 -4.48,1.12 -1.6,1.12 -1.6,3.14667 v 0.64 h -4.90666 q -0.10667,-0.74667 -0.10667,-1.76 0,-1.86667 1.49333,-3.52 1.49333,-1.65333 4.05333,-2.61333 2.56,-1.01333 5.65333,-1.01333 z m 5.65333,15.30665 q -5.59999,0 -8.47999,0.58667 -2.82667,0.53333 -3.78667,1.65333 -0.96,1.12 -0.96,3.09333 0,3.68 5.6,3.68 1.97333,0 3.73333,-0.96 1.76,-1.01333 2.82667,-2.82666 1.06666,-1.81334 1.06666,-4.16 z"
         style="font-family:Chivo;-inkscape-font-specification:Chivo"
         id="path7926" /><path
         d="m 155.74203,513.91025 q 3.25333,0 5.81333,1.44 2.61333,1.38666 4.05333,3.94666 1.44,2.56 1.44,5.86666 h -4.96 q 0,-3.30666 -1.70667,-5.27999 -1.65333,-1.97334 -4.79999,-1.97334 -3.30667,0 -5.28,2.24 -1.92,2.18667 -1.92,6.02667 v 2.87999 q 0,4.64 1.92,6.93333 1.92,2.24 5.44,2.24 3.25333,0 4.85333,-1.92 1.65333,-1.97333 1.65333,-5.27999 h 4.8 q 0,5.11999 -3.09334,8.15999 -3.03999,3.04 -8.15999,3.04 h -0.42667 q -3.62666,0 -6.34666,-1.65333 -2.72,-1.70667 -4.21333,-4.74667 -1.44,-3.04 -1.44,-7.09333 v -1.28 q 0,-4.05333 1.49333,-7.09332 1.49333,-3.09334 4.21333,-4.74667 2.72,-1.70666 6.24,-1.70666 z"
         style="font-family:Chivo;-inkscape-font-specification:Chivo"
         id="path7928" /><path
         d="m 186.14194,540.63023 q -1.81334,4.48 -3.36,6.82666 -1.54667,2.4 -3.14667,3.25333 -1.6,0.90667 -3.73333,0.90667 -1.97333,0 -3.73333,-0.74667 v -4.10666 q 1.76,0.74667 2.66667,0.74667 2.18666,0 3.62666,-1.49334 1.49333,-1.44 2.45333,-4.58666 l -10.61332,-26.98665 h 5.33333 l 7.83999,20.10665 h 0.21333 l 7.73333,-20.10665 h 4.90667 z"
         style="font-family:Chivo;-inkscape-font-specification:Chivo"
         id="path7930" /><path
         d="m 214.14188,524.68357 v 5.22667 h -13.49333 v -5.22667 z"
         style="font-family:Chivo;-inkscape-font-specification:Chivo"
         id="path7932" /><path
         d="m 229.6618,502.87025 q 3.04,0 5.01334,1.01334 v 3.67999 q -1.6,-0.69333 -2.72,-0.69333 -2.13334,0 -2.88,0.8 -0.74667,0.74667 -0.74667,2.56 v 4.21333 h 6.34667 v 4 h -6.34667 v 23.25332 h -5.01333 v -23.25332 h -2.98666 v -4 h 2.98666 v -3.68 q 0,-7.89333 6.34666,-7.89333 z"
         style="font-family:Chivo;-inkscape-font-specification:Chivo"
         id="path7934" /><path
         d="m 250.88836,513.91025 q 5.70666,0 9.11999,3.51999 3.41333,3.52 3.41333,9.65333 v 1.97333 q 0,6.13333 -3.36,9.65333 -3.35999,3.52 -9.17332,3.52 -5.81333,0 -9.17333,-3.52 -3.36,-3.52 -3.36,-9.65333 v -1.97333 q 0,-6.13333 3.41333,-9.65333 3.41333,-3.51999 9.12,-3.51999 z m 0,3.99999 q -3.57333,0 -5.54667,2.45334 -1.97333,2.45333 -1.97333,7.19999 v 1.01333 q 0,4.64 1.92,7.14667 1.97333,2.50666 5.6,2.50666 3.51999,0 5.49333,-2.45333 2.02666,-2.50667 2.02666,-7.2 v -1.01333 q 0,-4.64 -1.97333,-7.14666 -1.92,-2.50667 -5.54666,-2.50667 z"
         style="font-family:Chivo;-inkscape-font-specification:Chivo"
         id="path7936" /><path
         d="m 281.28831,513.91025 q 3.25333,0 5.81332,1.44 2.61334,1.38666 4.05334,3.94666 1.44,2.56 1.44,5.86666 h -4.96 q 0,-3.30666 -1.70667,-5.27999 -1.65333,-1.97334 -4.79999,-1.97334 -3.30667,0 -5.28,2.24 -1.92,2.18667 -1.92,6.02667 v 2.87999 q 0,4.64 1.92,6.93333 1.92,2.24 5.44,2.24 3.25333,0 4.85333,-1.92 1.65333,-1.97333 1.65333,-5.27999 h 4.8 q 0,5.11999 -3.09334,8.15999 -3.03999,3.04 -8.15999,3.04 h -0.42667 q -3.62666,0 -6.34666,-1.65333 -2.72,-1.70667 -4.21333,-4.74667 -1.44,-3.04 -1.44,-7.09333 v -1.28 q 0,-4.05333 1.49333,-7.09332 1.49333,-3.09334 4.21333,-4.74667 2.72,-1.70666 6.24,-1.70666 z"
         style="font-family:Chivo;-inkscape-font-specification:Chivo"
         id="path7938" /><path
         d="m 322.40822,536.36357 q 0,0.96 0.42667,1.44 0.42667,0.42666 1.06667,0.42666 1.17333,0 2.4,-0.74666 v 3.67999 q -1.65334,1.06667 -3.36,1.06667 -2.88,0 -4.05333,-1.17333 -1.12,-1.17334 -1.22667,-3.30667 -1.44,2.13333 -3.73333,3.30667 -2.24,1.17333 -5.17333,1.17333 -4.10666,0 -6.77333,-2.4 -2.61333,-2.45333 -2.61333,-7.04 v -18.34665 h 5.01333 v 17.43999 q 0,6.34666 5.76,6.34666 1.86666,0 3.51999,-1.01333 1.70667,-1.01333 2.72,-2.72 1.01333,-1.76 1.01333,-3.84 v -16.21332 h 5.01333 z"
         style="font-family:Chivo;-inkscape-font-specification:Chivo"
         id="path7940" /><path
         d="m 342.99477,513.91025 q 3.04,0 5.38666,0.96 2.4,0.95999 3.68,2.66666 1.33333,1.70667 1.33333,3.78666 l -0.0533,0.96 h -4.96 v -0.48 q 0,-3.89333 -6.02666,-3.89333 -5.97333,0 -5.97333,3.57333 0,1.65334 1.70666,2.45334 1.70667,0.74666 5.22667,1.44 3.36,0.69333 5.49333,1.43999 2.18666,0.74667 3.68,2.34667 1.54666,1.6 1.54666,4.32 0,4.37333 -2.98666,6.55999 -2.98667,2.18667 -8.58667,2.18667 h -0.79999 q -3.36,0 -5.86667,-1.01333 -2.50666,-1.06667 -3.89333,-2.82667 -1.33333,-1.81333 -1.28,-4.05333 v -1.17333 h 4.96 v 0.53333 q 0,4.53333 7.62666,4.53333 2.24,0 4,-1.01333 1.81333,-1.01333 1.81333,-2.77333 0,-1.49334 -1.01333,-2.34667 -0.96,-0.85333 -2.4,-1.28 -1.44,-0.42666 -4,-0.85333 -3.30666,-0.64 -5.33333,-1.28 -2.02666,-0.69333 -3.46666,-2.29333 -1.44,-1.6 -1.44,-4.37333 0,-3.78667 2.98666,-5.92 2.98667,-2.18666 8.16,-2.18666 z"
         style="font-family:Chivo;-inkscape-font-specification:Chivo"
         id="path7942" /><path
         d="m 372.00802,513.91025 q 3.36,0 5.92,1.44 2.61333,1.38666 4.05333,3.99999 1.44,2.61333 1.44,6.08 v 3.78666 h -19.03999 q 0.10666,4.32 2.02666,6.66667 1.92,2.34666 5.70667,2.34666 3.35999,0 4.95999,-1.97333 1.6,-1.97333 1.6,-4.69333 h 4.74667 q 0,3.2 -1.49334,5.6 -1.43999,2.39999 -4.05333,3.73333 -2.56,1.33333 -5.86666,1.33333 h -0.21333 q -5.76,0 -9.12,-3.68 -3.30666,-3.73333 -3.30666,-9.91999 v -1.06667 q 0,-4.05333 1.49333,-7.14666 1.49333,-3.09333 4.26666,-4.8 2.77334,-1.70666 6.50667,-1.70666 z m -0.26667,3.99999 q -3.03999,0 -4.95999,1.86667 -1.86667,1.86666 -2.29334,5.54666 h 13.97333 v -0.64 q 0,-3.04 -1.86667,-4.90666 -1.81333,-1.86667 -4.85333,-1.86667 z"
         style="font-family:Chivo;-inkscape-font-specification:Chivo"
         id="path7944" /><path
         d="m 412.96797,541.6969 h -3.73333 q -0.37333,-1.70667 -0.69333,-3.73334 -3.04,4.26667 -8.42667,4.26667 -5.11999,0 -8.10666,-3.78667 -2.93333,-3.78666 -2.93333,-10.39999 v -0.58667 q 0,-6.23999 2.88,-9.86666 2.93333,-3.67999 8.15999,-3.67999 5.06667,0 7.84,3.99999 v -14.61332 h 5.01333 z m -11.94666,-23.78666 q -3.57333,0 -5.28,2.50667 -1.65333,2.45333 -1.65333,7.67999 0,5.22667 1.70667,7.68 1.70666,2.45333 5.22666,2.45333 6.98666,0 6.98666,-10.13333 0,-5.22666 -1.76,-7.67999 -1.75999,-2.50667 -5.22666,-2.50667 z"
         style="font-family:Chivo;-inkscape-font-specification:Chivo"
         id="path7946" /><path
         d="m 445.50118,513.91025 q 3.25333,0 5.81333,1.44 2.61333,1.38666 4.05333,3.94666 1.44,2.56 1.44,5.86666 h -4.96 q 0,-3.30666 -1.70666,-5.27999 -1.65333,-1.97334 -4.8,-1.97334 -3.30666,0 -5.28,2.24 -1.92,2.18667 -1.92,6.02667 v 2.87999 q 0,4.64 1.92,6.93333 1.92,2.24 5.44,2.24 3.25333,0 4.85333,-1.92 1.65333,-1.97333 1.65333,-5.27999 h 4.8 q 0,5.11999 -3.09333,8.15999 -3.04,3.04 -8.16,3.04 h -0.42666 q -3.62667,0 -6.34667,-1.65333 -2.71999,-1.70667 -4.21333,-4.74667 -1.44,-3.04 -1.44,-7.09333 v -1.28 q 0,-4.05333 1.49334,-7.09332 1.49333,-3.09334 4.21333,-4.74667 2.72,-1.70666 6.23999,-1.70666 z"
         style="font-family:Chivo;-inkscape-font-specification:Chivo"
         id="path7948" /><path
         d="m 474.72776,513.91025 q 5.70666,0 9.11999,3.51999 3.41333,3.52 3.41333,9.65333 v 1.97333 q 0,6.13333 -3.35999,9.65333 -3.36,3.52 -9.17333,3.52 -5.81333,0 -9.17333,-3.52 -3.36,-3.52 -3.36,-9.65333 v -1.97333 q 0,-6.13333 3.41333,-9.65333 3.41334,-3.51999 9.12,-3.51999 z m 0,3.99999 q -3.57333,0 -5.54667,2.45334 -1.97333,2.45333 -1.97333,7.19999 v 1.01333 q 0,4.64 1.92,7.14667 1.97333,2.50666 5.6,2.50666 3.52,0 5.49333,-2.45333 2.02666,-2.50667 2.02666,-7.2 v -1.01333 q 0,-4.64 -1.97333,-7.14666 -1.92,-2.50667 -5.54666,-2.50667 z"
         style="font-family:Chivo;-inkscape-font-specification:Chivo"
         id="path7950" /><path
         d="m 499.68771,503.29692 v 38.39998 h -5.01333 v -38.39998 z"
         style="font-family:Chivo;-inkscape-font-specification:Chivo"
         id="path7952" /><path
         d="m 513.98101,503.29692 v 38.39998 h -5.01333 v -38.39998 z"
         style="font-family:Chivo;-inkscape-font-specification:Chivo"
         id="path7954" /><path
         d="m 533.76765,513.91025 q 5.38666,0 7.99999,2.13333 2.66667,2.13333 2.66667,6.18666 v 14.13333 q 0,0.96 0.42667,1.44 0.42666,0.42666 1.06666,0.42666 1.22667,0 2.45333,-0.74666 v 3.67999 q -1.81333,1.06667 -4.10666,1.06667 -2.29333,0 -3.41333,-1.28 -1.12,-1.33333 -1.22667,-3.62666 -3.30666,4.90666 -9.54666,4.90666 -4.48,0 -6.72,-1.92 -2.18666,-1.97333 -2.18666,-6.18666 0,-3.30667 1.70667,-5.17333 1.70666,-1.92 5.65332,-2.77333 3.94667,-0.85334 10.88,-0.85334 v -2.50666 q 0,-2.72 -1.6,-3.78667 -1.6,-1.12 -4.64,-1.12 -2.88,0 -4.48,1.12 -1.59999,1.12 -1.59999,3.14667 v 0.64 h -4.90667 q -0.10666,-0.74667 -0.10666,-1.76 0,-1.86667 1.49333,-3.52 1.49333,-1.65333 4.05333,-2.61333 2.56,-1.01333 5.65333,-1.01333 z m 5.65333,15.30665 q -5.6,0 -8.48,0.58667 -2.82666,0.53333 -3.78666,1.65333 -0.96,1.12 -0.96,3.09333 0,3.68 5.6,3.68 1.97333,0 3.73333,-0.96 1.76,-1.01333 2.82666,-2.82666 1.06667,-1.81334 1.06667,-4.16 z"
         style="font-family:Chivo;-inkscape-font-specification:Chivo"
         id="path7956" /><path
         d="m 559.26091,517.91024 q 1.22666,-1.76 3.30666,-2.87999 2.13333,-1.12 4.58666,-1.12 5.22667,0 8.10667,3.67999 2.87999,3.62667 2.87999,9.86666 v 0.58667 q 0,6.61333 -2.98666,10.39999 -2.93333,3.78667 -8.05333,3.78667 -6.08,0 -9.17333,-4.85333 l -1.76,4.32 h -1.91999 v -38.39998 h 5.01333 z m 6.87999,0 q -3.57333,0 -5.28,2.50667 -1.65333,2.45333 -1.65333,7.67999 0,5.22667 1.70667,7.68 1.70666,2.45333 5.22666,2.45333 6.98666,0 6.98666,-10.13333 0,-5.22666 -1.75999,-7.67999 -1.76,-2.50667 -5.22667,-2.50667 z"
         style="font-family:Chivo;-inkscape-font-specification:Chivo"
         id="path7958" /><path
         d="m 596.22083,513.91025 q 5.70666,0 9.12,3.51999 3.41333,3.52 3.41333,9.65333 v 1.97333 q 0,6.13333 -3.36,9.65333 -3.36,3.52 -9.17333,3.52 -5.81333,0 -9.17333,-3.52 -3.36,-3.52 -3.36,-9.65333 v -1.97333 q 0,-6.13333 3.41334,-9.65333 3.41333,-3.51999 9.11999,-3.51999 z m 0,3.99999 q -3.57333,0 -5.54666,2.45334 -1.97333,2.45333 -1.97333,7.19999 v 1.01333 q 0,4.64 1.91999,7.14667 1.97334,2.50666 5.6,2.50666 3.52,0 5.49333,-2.45333 2.02667,-2.50667 2.02667,-7.2 v -1.01333 q 0,-4.64 -1.97334,-7.14666 -1.91999,-2.50667 -5.54666,-2.50667 z"
         style="font-family:Chivo;-inkscape-font-specification:Chivo"
         id="path7960" /><path
         d="m 628.22078,513.91025 q 3.78666,0 5.91999,2.45333 2.13334,2.4 2.13334,6.07999 l -0.16,2.02667 h -4.42667 v -1.17333 q 0,-1.6 -0.8,-2.82667 -0.8,-1.22666 -2.02666,-1.86666 -1.22667,-0.69334 -2.45333,-0.69334 -2.56,0 -4,2.02667 -1.44,2.02666 -1.44,5.49333 v 16.26666 h -5.01333 v -27.25332 h 3.57333 l 0.74667,4.05333 q 0.32,-1.06667 1.44,-2.13333 1.11999,-1.06667 2.77333,-1.76 1.70666,-0.69333 3.73333,-0.69333 z"
         style="font-family:Chivo;-inkscape-font-specification:Chivo"
         id="path7962" /><path
         d="m 652.80741,513.91025 q 5.38667,0 8,2.13333 2.66666,2.13333 2.66666,6.18666 v 14.13333 q 0,0.96 0.42667,1.44 0.42667,0.42666 1.06667,0.42666 1.22666,0 2.45333,-0.74666 v 3.67999 q -1.81333,1.06667 -4.10667,1.06667 -2.29333,0 -3.41333,-1.28 -1.12,-1.33333 -1.22666,-3.62666 -3.30667,4.90666 -9.54666,4.90666 -4.48,0 -6.72,-1.92 -2.18667,-1.97333 -2.18667,-6.18666 0,-3.30667 1.70667,-5.17333 1.70667,-1.92 5.65333,-2.77333 3.94666,-0.85334 10.87999,-0.85334 v -2.50666 q 0,-2.72 -1.6,-3.78667 -1.6,-1.12 -4.63999,-1.12 -2.88,0 -4.48,1.12 -1.6,1.12 -1.6,3.14667 v 0.64 h -4.90666 q -0.10667,-0.74667 -0.10667,-1.76 0,-1.86667 1.49333,-3.52 1.49333,-1.65333 4.05333,-2.61333 2.56,-1.01333 5.65333,-1.01333 z m 5.65333,15.30665 q -5.59999,0 -8.47999,0.58667 -2.82667,0.53333 -3.78667,1.65333 -0.96,1.12 -0.96,3.09333 0,3.68 5.6,3.68 1.97333,0 3.73333,-0.96 1.76,-1.01333 2.82667,-2.82666 1.06666,-1.81334 1.06666,-4.16 z"
         style="font-family:Chivo;-inkscape-font-specification:Chivo"
         id="path7964" /><path
         d="m 679.15397,514.44358 h 6.34667 v 4 h -6.34667 v 16.26665 q 0,1.92 0.74667,2.77334 0.74667,0.85333 2.29333,0.85333 1.38667,0 3.30667,-0.8 v 3.73333 q -1.92,0.96 -4.96,0.96 -3.14667,0 -4.8,-1.86667 -1.6,-1.86666 -1.6,-5.91999 v -15.99999 h -2.98666 v -4 h 3.14666 l 1.70667,-8.69333 h 3.14666 z"
         style="font-family:Chivo;-inkscape-font-specification:Chivo"
         id="path7966" /><path
         d="m 696.86055,503.29692 v 4.64 h -5.22666 v -4.64 z m -0.10666,11.14666 v 27.25332 h -5.01333 v -27.25332 z"
         style="font-family:Chivo;-inkscape-font-specification:Chivo"
         id="path7968" /><path
         d="m 727.84712,514.44358 -10.34666,27.25332 h -5.33333 l -10.34666,-27.25332 h 5.33333 l 7.78666,20.85332 h 0.21333 l 7.78667,-20.85332 z"
         style="font-family:Chivo;-inkscape-font-specification:Chivo"
         id="path7970" /><path
         d="m 743.8471,513.91025 q 3.36,0 5.92,1.44 2.61333,1.38666 4.05333,3.99999 1.44,2.61333 1.44,6.08 v 3.78666 h -19.03999 q 0.10667,4.32 2.02666,6.66667 1.92,2.34666 5.70667,2.34666 3.36,0 4.95999,-1.97333 1.6,-1.97333 1.6,-4.69333 h 4.74667 q 0,3.2 -1.49333,5.6 -1.44,2.39999 -4.05334,3.73333 -2.55999,1.33333 -5.86666,1.33333 h -0.21333 q -5.76,0 -9.12,-3.68 -3.30666,-3.73333 -3.30666,-9.91999 v -1.06667 q 0,-4.05333 1.49333,-7.14666 1.49333,-3.09333 4.26667,-4.8 2.77333,-1.70666 6.50666,-1.70666 z m -0.26667,3.99999 q -3.03999,0 -4.95999,1.86667 -1.86667,1.86666 -2.29333,5.54666 h 13.97332 v -0.64 q 0,-3.04 -1.86666,-4.90666 -1.81334,-1.86667 -4.85334,-1.86667 z"
         style="font-family:Chivo;-inkscape-font-specification:Chivo"
         id="path7972" /><path
         d="m 221.28855,587.51822 q 3.25333,0 5.81333,1.44 2.61333,1.38666 4.05333,3.94666 1.44,2.56 1.44,5.86666 h -4.96 q 0,-3.30666 -1.70666,-5.27999 -1.65334,-1.97334 -4.8,-1.97334 -3.30666,0 -5.28,2.24 -1.92,2.18667 -1.92,6.02667 v 2.87999 q 0,4.64 1.92,6.93333 1.92,2.24 5.44,2.24 3.25333,0 4.85333,-1.92 1.65333,-1.97333 1.65333,-5.27999 h 4.8 q 0,5.11999 -3.09333,8.15999 -3.04,3.04 -8.16,3.04 h -0.42666 q -3.62667,0 -6.34667,-1.65333 -2.71999,-1.70667 -4.21333,-4.74667 -1.44,-3.03999 -1.44,-7.09333 v -1.27999 q 0,-4.05334 1.49334,-7.09333 1.49333,-3.09333 4.21333,-4.74667 2.72,-1.70666 6.23999,-1.70666 z"
         style="font-family:Chivo;-inkscape-font-specification:Chivo"
         id="path7974" /><path
         d="m 250.35513,587.51822 q 5.38667,0 8,2.13333 2.66666,2.13333 2.66666,6.18666 v 14.13333 q 0,0.96 0.42667,1.44 0.42666,0.42666 1.06666,0.42666 1.22667,0 2.45334,-0.74666 v 3.67999 q -1.81334,1.06667 -4.10667,1.06667 -2.29333,0 -3.41333,-1.28 -1.12,-1.33333 -1.22667,-3.62666 -3.30666,4.90666 -9.54666,4.90666 -4.47999,0 -6.71999,-1.92 -2.18667,-1.97333 -2.18667,-6.18666 0,-3.30667 1.70667,-5.17333 1.70666,-1.92 5.65333,-2.77333 3.94666,-0.85334 10.87999,-0.85334 v -2.50666 q 0,-2.72 -1.6,-3.78667 -1.6,-1.12 -4.63999,-1.12 -2.88,0 -4.48,1.12 -1.6,1.12 -1.6,3.14667 v 0.64 h -4.90666 q -0.10667,-0.74667 -0.10667,-1.76 0,-1.86667 1.49333,-3.52 1.49333,-1.65333 4.05333,-2.61333 2.56,-1.01333 5.65333,-1.01333 z m 5.65333,15.30665 q -5.6,0 -8.47999,0.58667 -2.82667,0.53333 -3.78667,1.65333 -0.96,1.12 -0.96,3.09333 0,3.68 5.6,3.68 1.97333,0 3.73333,-0.96 1.76,-1.01333 2.82667,-2.82666 1.06666,-1.81333 1.06666,-4.16 z"
         style="font-family:Chivo;-inkscape-font-specification:Chivo"
         id="path7976" /><path
         d="m 276.06173,576.90489 v 38.39998 h -5.01333 v -38.39998 z"
         style="font-family:Chivo;-inkscape-font-specification:Chivo"
         id="path7978" /><path
         d="m 296.0617,587.51822 q 3.36,0 5.92,1.44 2.61333,1.38666 4.05333,3.99999 1.44,2.61334 1.44,6.08 v 3.78666 h -19.03999 q 0.10667,4.32 2.02666,6.66667 1.92,2.34666 5.70667,2.34666 3.36,0 4.96,-1.97333 1.59999,-1.97333 1.59999,-4.69333 h 4.74667 q 0,3.2 -1.49333,5.6 -1.44,2.4 -4.05334,3.73333 -2.55999,1.33333 -5.86666,1.33333 h -0.21333 q -5.76,0 -9.12,-3.68 -3.30666,-3.73333 -3.30666,-9.91999 v -1.06667 q 0,-4.05333 1.49333,-7.14666 1.49333,-3.09333 4.26667,-4.8 2.77333,-1.70666 6.50666,-1.70666 z m -0.26667,3.99999 q -3.03999,0 -4.95999,1.86667 -1.86667,1.86667 -2.29333,5.54666 h 13.97332 v -0.64 q 0,-3.03999 -1.86666,-4.90666 -1.81334,-1.86667 -4.85334,-1.86667 z"
         style="font-family:Chivo;-inkscape-font-specification:Chivo"
         id="path7980" /><path
         d="m 328.22167,587.51822 q 4.48,0 7.04,2.4 2.56,2.39999 2.56,7.03999 v 18.34666 h -5.01333 v -17.43999 q 0,-6.34667 -5.76,-6.34667 -1.92,0 -3.57333,1.01334 -1.65333,1.01333 -2.66667,2.77333 -1.01333,1.70666 -1.01333,3.78666 v 16.21333 h -5.01333 v -27.25332 h 3.62666 l 0.69334,4 q 3.41333,-4.53333 9.11999,-4.53333 z"
         style="font-family:Chivo;-inkscape-font-specification:Chivo"
         id="path7982" /><path
         d="m 368.64824,615.30487 h -3.73333 q -0.37334,-1.70667 -0.69334,-3.73333 -3.03999,4.26666 -8.42666,4.26666 -5.11999,0 -8.10666,-3.78666 -2.93333,-3.78667 -2.93333,-10.4 v -0.58666 q 0,-6.24 2.88,-9.86667 2.93333,-3.67999 8.15999,-3.67999 5.06667,0 7.84,3.99999 v -14.61332 h 5.01333 z m -11.94666,-23.78666 q -3.57333,0 -5.28,2.50667 -1.65333,2.45333 -1.65333,7.68 0,5.22666 1.70666,7.67999 1.70667,2.45333 5.22667,2.45333 6.98666,0 6.98666,-10.13332 0,-5.22667 -1.76,-7.68 -1.76,-2.50667 -5.22666,-2.50667 z"
         style="font-family:Chivo;-inkscape-font-specification:Chivo"
         id="path7984" /><path
         d="m 388.22146,587.51822 q 5.38666,0 8,2.13333 2.66666,2.13333 2.66666,6.18666 v 14.13333 q 0,0.96 0.42667,1.44 0.42666,0.42666 1.06666,0.42666 1.22667,0 2.45334,-0.74666 v 3.67999 q -1.81334,1.06667 -4.10667,1.06667 -2.29333,0 -3.41333,-1.28 -1.12,-1.33333 -1.22667,-3.62666 -3.30666,4.90666 -9.54666,4.90666 -4.47999,0 -6.71999,-1.92 -2.18667,-1.97333 -2.18667,-6.18666 0,-3.30667 1.70667,-5.17333 1.70666,-1.92 5.65333,-2.77333 3.94666,-0.85334 10.87999,-0.85334 v -2.50666 q 0,-2.72 -1.6,-3.78667 -1.6,-1.12 -4.64,-1.12 -2.87999,0 -4.47999,1.12 -1.6,1.12 -1.6,3.14667 v 0.64 h -4.90667 q -0.10666,-0.74667 -0.10666,-1.76 0,-1.86667 1.49333,-3.52 1.49333,-1.65333 4.05333,-2.61333 2.56,-1.01333 5.65333,-1.01333 z m 5.65333,15.30665 q -5.6,0 -8.47999,0.58667 -2.82667,0.53333 -3.78667,1.65333 -0.96,1.12 -0.96,3.09333 0,3.68 5.6,3.68 1.97333,0 3.73333,-0.96 1.76,-1.01333 2.82666,-2.82666 1.06667,-1.81333 1.06667,-4.16 z"
         style="font-family:Chivo;-inkscape-font-specification:Chivo"
         id="path7986" /><path
         d="m 420.96806,587.51822 q 3.78667,0 5.92,2.45333 2.13333,2.4 2.13333,6.08 l -0.16,2.02666 h -4.42666 v -1.17333 q 0,-1.6 -0.8,-2.82667 -0.8,-1.22666 -2.02667,-1.86666 -1.22666,-0.69334 -2.45333,-0.69334 -2.56,0 -4,2.02667 -1.44,2.02667 -1.44,5.49333 v 16.26666 h -5.01333 v -27.25332 h 3.57333 l 0.74667,4.05333 q 0.32,-1.06666 1.44,-2.13333 1.12,-1.06667 2.77333,-1.76 1.70667,-0.69333 3.73333,-0.69333 z"
         style="font-family:Chivo;-inkscape-font-specification:Chivo"
         id="path7988" /><path
         d="m 458.568,587.51822 q 5.38667,0 8,2.13333 2.66666,2.13333 2.66666,6.18666 v 14.13333 q 0,0.96 0.42667,1.44 0.42667,0.42666 1.06667,0.42666 1.22666,0 2.45333,-0.74666 v 3.67999 q -1.81333,1.06667 -4.10667,1.06667 -2.29333,0 -3.41333,-1.28 -1.12,-1.33333 -1.22666,-3.62666 -3.30667,4.90666 -9.54666,4.90666 -4.48,0 -6.72,-1.92 -2.18667,-1.97333 -2.18667,-6.18666 0,-3.30667 1.70667,-5.17333 1.70667,-1.92 5.65333,-2.77333 3.94666,-0.85334 10.87999,-0.85334 v -2.50666 q 0,-2.72 -1.6,-3.78667 -1.59999,-1.12 -4.63999,-1.12 -2.88,0 -4.48,1.12 -1.6,1.12 -1.6,3.14667 v 0.64 h -4.90666 q -0.10667,-0.74667 -0.10667,-1.76 0,-1.86667 1.49333,-3.52 1.49334,-1.65333 4.05333,-2.61333 2.56,-1.01333 5.65333,-1.01333 z m 5.65333,15.30665 q -5.59999,0 -8.47999,0.58667 -2.82667,0.53333 -3.78667,1.65333 -0.96,1.12 -0.96,3.09333 0,3.68 5.6,3.68 1.97333,0 3.73333,-0.96 1.76,-1.01333 2.82667,-2.82666 1.06666,-1.81333 1.06666,-4.16 z"
         style="font-family:Chivo;-inkscape-font-specification:Chivo"
         id="path7990" /><path
         d="m 491.90127,587.51822 q 5.17333,0 8.10666,3.78666 2.93333,3.78667 2.93333,10.4 v 0.58666 q 0,6.29333 -2.93333,9.92 -2.88,3.62666 -8.10666,3.62666 -5.01333,0 -7.83999,-4 v 13.11999 h -5.01333 v -36.90664 h 3.73333 q 0.37333,1.70667 0.69333,3.73333 3.04,-4.26666 8.42666,-4.26666 z m -0.90666,3.99999 q -3.62667,0 -5.33334,2.50667 -1.65333,2.50667 -1.65333,7.62666 0,5.22667 1.70667,7.73333 1.76,2.45333 5.28,2.45333 3.51999,0 5.22666,-2.50666 1.70666,-2.50667 1.70666,-7.68 0,-5.22666 -1.75999,-7.67999 -1.70667,-2.45334 -5.17333,-2.45334 z"
         style="font-family:Chivo;-inkscape-font-specification:Chivo"
         id="path7992" /><path
         d="m 522.9945,587.51822 q 5.17333,0 8.10666,3.78666 2.93334,3.78667 2.93334,10.4 v 0.58666 q 0,6.29333 -2.93334,9.92 -2.87999,3.62666 -8.10666,3.62666 -5.01333,0 -7.83999,-4 v 13.11999 h -5.01333 v -36.90664 h 3.73333 q 0.37333,1.70667 0.69333,3.73333 3.04,-4.26666 8.42666,-4.26666 z m -0.90666,3.99999 q -3.62667,0 -5.33333,2.50667 -1.65334,2.50667 -1.65334,7.62666 0,5.22667 1.70667,7.73333 1.76,2.45333 5.28,2.45333 3.51999,0 5.22666,-2.50666 1.70667,-2.50667 1.70667,-7.68 0,-5.22666 -1.76,-7.67999 -1.70667,-2.45334 -5.17333,-2.45334 z"
         style="font-family:Chivo;-inkscape-font-specification:Chivo"
         id="path7994" /><path
         d="m 549.66097,578.18489 q 3.57334,0 6.08,1.54667 2.56,1.49333 3.84,3.99999 1.28,2.50667 1.28,5.33333 0,3.04 -1.33333,5.01333 -1.33334,1.92 -3.73334,4 -1.65333,1.49333 -2.45333,2.50667 -0.74666,1.01333 -0.74666,2.23999 v 2.61334 h -5.33333 v -3.41333 q 0,-1.81334 1.06666,-3.25334 1.06667,-1.49333 3.14667,-3.46666 2.08,-2.02667 3.09333,-3.41333 1.01333,-1.38667 1.01333,-3.14667 0,-2.50666 -1.81333,-4.15999 -1.81333,-1.65334 -4.48,-1.65334 -2.93333,0 -4.69333,1.65334 -1.70666,1.65333 -1.70666,4.31999 l 0.10666,1.97334 h -5.22666 q -0.16,-0.64 -0.16,-2.02667 0,-2.56 1.38666,-5.01333 1.38667,-2.45333 4.05333,-4.05333 2.66667,-1.6 6.29333,-1.6 z m 3.04,31.19998 v 5.92 h -5.54666 v -5.92 z"
         style="font-family:Chivo;-inkscape-font-specification:Chivo"
         id="path7996" /></g><g
       aria-label="mash.pet/help"
       transform="matrix(0.26458333,0,0,0.26458333,-0.66570828,-4.7625002)"
       id="text6920"
       style="font-size:32px;line-height:1.25;white-space:pre;shape-inside:url(#rect6922);display:inline;fill:#28a182"><path
         d="m 191.32133,735.41976 q 2.528,0 3.936,1.472 1.408,1.472 1.408,4.192 v 11.008 h -3.008 v -10.464 q 0,-3.808 -2.944,-3.808 -1.024,0 -1.92,0.608 -0.864,0.608 -1.408,1.664 -0.512,1.024 -0.512,2.272 v 9.728 h -3.008 v -10.464 q 0,-3.808 -2.944,-3.808 -1.024,0 -1.92,0.608 -0.864,0.608 -1.408,1.664 -0.512,1.024 -0.512,2.272 v 9.728 h -3.008 v -16.352 h 2.176 l 0.416,2.4 q 1.856,-2.72 5.152,-2.72 3.232,0 4.48,2.72 1.088,-1.536 2.336,-2.112 1.248,-0.608 2.688,-0.608 z"
         style="font-family:Chivo;-inkscape-font-specification:Chivo;text-align:center;text-anchor:middle"
         id="path7999" /><path
         d="m 208.24929,735.41976 q 3.232,0 4.8,1.28 1.6,1.28 1.6,3.712 v 8.48 q 0,0.576 0.256,0.864 0.256,0.256 0.64,0.256 0.736,0 1.472,-0.448 v 2.208 q -1.088,0.64 -2.464,0.64 -1.376,0 -2.048,-0.768 -0.672,-0.8 -0.736,-2.176 -1.984,2.944 -5.728,2.944 -2.688,0 -4.032,-1.152 -1.312,-1.184 -1.312,-3.712 0,-1.984 1.024,-3.104 1.024,-1.152 3.392,-1.664 2.368,-0.512 6.528,-0.512 v -1.504 q 0,-1.632 -0.96,-2.272 -0.96,-0.672 -2.784,-0.672 -1.728,0 -2.688,0.672 -0.96,0.672 -0.96,1.888 v 0.384 h -2.944 q -0.064,-0.448 -0.064,-1.056 0,-1.12 0.896,-2.112 0.896,-0.992 2.432,-1.568 1.536,-0.608 3.392,-0.608 z m 3.392,9.184 q -3.36,0 -5.088,0.352 -1.696,0.32 -2.272,0.992 -0.576,0.672 -0.576,1.856 0,2.208 3.36,2.208 1.184,0 2.24,-0.576 1.056,-0.608 1.696,-1.696 0.64,-1.088 0.64,-2.496 z"
         style="font-family:Chivo;-inkscape-font-specification:Chivo;text-align:center;text-anchor:middle"
         id="path8001" /><path
         d="m 226.77726,735.41976 q 1.824,0 3.232,0.576 1.44,0.576 2.208,1.6 0.8,1.024 0.8,2.272 l -0.032,0.576 h -2.976 v -0.288 q 0,-2.336 -3.616,-2.336 -3.584,0 -3.584,2.144 0,0.992 1.024,1.472 1.024,0.448 3.136,0.864 2.016,0.416 3.296,0.864 1.312,0.448 2.208,1.408 0.928,0.96 0.928,2.592 0,2.624 -1.792,3.936 -1.792,1.312 -5.152,1.312 h -0.48 q -2.016,0 -3.52,-0.608 -1.504,-0.64 -2.336,-1.696 -0.8,-1.088 -0.768,-2.432 v -0.704 h 2.976 v 0.32 q 0,2.72 4.576,2.72 1.344,0 2.4,-0.608 1.088,-0.608 1.088,-1.664 0,-0.896 -0.608,-1.408 -0.576,-0.512 -1.44,-0.768 -0.864,-0.256 -2.4,-0.512 -1.984,-0.384 -3.2,-0.768 -1.216,-0.416 -2.08,-1.376 -0.864,-0.96 -0.864,-2.624 0,-2.272 1.792,-3.552 1.792,-1.312 4.896,-1.312 z"
         style="font-family:Chivo;-inkscape-font-specification:Chivo;text-align:center;text-anchor:middle"
         id="path8003" /><path
         d="m 240.63321,737.78776 q 2.016,-2.368 5.056,-2.368 2.688,0 4.224,1.44 1.536,1.44 1.536,4.224 v 11.008 h -3.008 v -10.464 q 0,-3.808 -3.456,-3.808 -1.152,0 -2.144,0.608 -0.992,0.608 -1.6,1.664 -0.608,1.024 -0.608,2.272 v 9.728 h -3.008 v -23.04 h 3.008 z"
         style="font-family:Chivo;-inkscape-font-specification:Chivo;text-align:center;text-anchor:middle"
         id="path8005" /><path
         d="m 259.38516,748.53976 v 3.552 h -3.232 v -3.552 z"
         style="font-family:Chivo;-inkscape-font-specification:Chivo;text-align:center;text-anchor:middle"
         id="path8007" /><path
         d="m 271.96111,735.41976 q 3.104,0 4.864,2.272 1.76,2.272 1.76,6.24 v 0.352 q 0,3.776 -1.76,5.952 -1.728,2.176 -4.864,2.176 -3.008,0 -4.704,-2.4 v 7.872 h -3.008 v -22.144 h 2.24 q 0.224,1.024 0.416,2.24 1.824,-2.56 5.056,-2.56 z m -0.544,2.4 q -2.176,0 -3.2,1.504 -0.992,1.504 -0.992,4.576 0,3.136 1.024,4.64 1.056,1.472 3.168,1.472 2.112,0 3.136,-1.504 1.024,-1.504 1.024,-4.608 0,-3.136 -1.056,-4.608 -1.024,-1.472 -3.104,-1.472 z"
         style="font-family:Chivo;-inkscape-font-specification:Chivo;text-align:center;text-anchor:middle"
         id="path8009" /><path
         d="m 289.46505,735.41976 q 2.016,0 3.552,0.864 1.568,0.832 2.432,2.4 0.864,1.568 0.864,3.648 v 2.272 h -11.424 q 0.064,2.592 1.216,4 1.152,1.408 3.424,1.408 2.016,0 2.976,-1.184 0.96,-1.184 0.96,-2.816 h 2.848 q 0,1.92 -0.896,3.36 -0.864,1.44 -2.432,2.24 -1.536,0.8 -3.52,0.8 h -0.128 q -3.456,0 -5.472,-2.208 -1.984,-2.24 -1.984,-5.952 v -0.64 q 0,-2.432 0.896,-4.288 0.896,-1.856 2.56,-2.88 1.664,-1.024 3.904,-1.024 z m -0.16,2.4 q -1.824,0 -2.976,1.12 -1.12,1.12 -1.376,3.328 h 8.384 v -0.384 q 0,-1.824 -1.12,-2.944 -1.088,-1.12 -2.912,-1.12 z"
         style="font-family:Chivo;-inkscape-font-specification:Chivo;text-align:center;text-anchor:middle"
         id="path8011" /><path
         d="m 304.21705,735.73976 h 3.808 v 2.4 h -3.808 v 9.76 q 0,1.152 0.448,1.664 0.448,0.512 1.376,0.512 0.832,0 1.984,-0.48 v 2.24 q -1.152,0.576 -2.976,0.576 -1.888,0 -2.88,-1.12 -0.96,-1.12 -0.96,-3.552 v -9.6 h -1.792 v -2.4 h 1.888 l 1.024,-5.216 h 1.888 z"
         style="font-family:Chivo;-inkscape-font-specification:Chivo;text-align:center;text-anchor:middle"
         id="path8013" /><path
         d="m 327.513,730.13976 -15.648,27.424 h -2.592 l 15.68,-27.424 z"
         style="font-family:Chivo;-inkscape-font-specification:Chivo;text-align:center;text-anchor:middle"
         id="path8015" /><path
         d="m 333.65695,737.78776 q 2.016,-2.368 5.056,-2.368 2.688,0 4.224,1.44 1.536,1.44 1.536,4.224 v 11.008 h -3.008 v -10.464 q 0,-3.808 -3.456,-3.808 -1.152,0 -2.144,0.608 -0.992,0.608 -1.6,1.664 -0.608,1.024 -0.608,2.272 v 9.728 h -3.008 v -23.04 h 3.008 z"
         style="font-family:Chivo;-inkscape-font-specification:Chivo;text-align:center;text-anchor:middle"
         id="path8017" /><path
         d="m 356.1849,735.41976 q 2.016,0 3.552,0.864 1.568,0.832 2.432,2.4 0.864,1.568 0.864,3.648 v 2.272 h -11.424 q 0.064,2.592 1.216,4 1.152,1.408 3.424,1.408 2.016,0 2.976,-1.184 0.96,-1.184 0.96,-2.816 h 2.848 q 0,1.92 -0.896,3.36 -0.864,1.44 -2.432,2.24 -1.536,0.8 -3.52,0.8 h -0.128 q -3.456,0 -5.472,-2.208 -1.984,-2.24 -1.984,-5.952 v -0.64 q 0,-2.432 0.896,-4.288 0.896,-1.856 2.56,-2.88 1.664,-1.024 3.904,-1.024 z m -0.16,2.4 q -1.824,0 -2.976,1.12 -1.12,1.12 -1.376,3.328 h 8.384 v -0.384 q 0,-1.824 -1.12,-2.944 -1.088,-1.12 -2.912,-1.12 z"
         style="font-family:Chivo;-inkscape-font-specification:Chivo;text-align:center;text-anchor:middle"
         id="path8019" /><path
         d="m 370.55289,729.05176 v 23.04 h -3.008 v -23.04 z"
         style="font-family:Chivo;-inkscape-font-specification:Chivo;text-align:center;text-anchor:middle"
         id="path8021" /><path
         d="m 383.70488,735.41976 q 3.104,0 4.864,2.272 1.76,2.272 1.76,6.24 v 0.352 q 0,3.776 -1.76,5.952 -1.728,2.176 -4.864,2.176 -3.008,0 -4.704,-2.4 v 7.872 h -3.008 v -22.144 h 2.24 q 0.224,1.024 0.416,2.24 1.824,-2.56 5.056,-2.56 z m -0.544,2.4 q -2.176,0 -3.2,1.504 -0.992,1.504 -0.992,4.576 0,3.136 1.024,4.64 1.056,1.472 3.168,1.472 2.112,0 3.136,-1.504 1.024,-1.504 1.024,-4.608 0,-3.136 -1.056,-4.608 -1.024,-1.472 -3.104,-1.472 z"
         style="font-family:Chivo;-inkscape-font-specification:Chivo;text-align:center;text-anchor:middle"
         id="path8023" /></g></g></svg>
