<?xml version="1.0" encoding="UTF-8" standalone="no"?>
<!-- Created with Inkscape (http://www.inkscape.org/) -->

<svg
   width="148mm"
   height="210mm"
   viewBox="0 0 148 210"
   version="1.1"
   id="svg5"
   xml:space="preserve"
   inkscape:version="1.2.1 (9c6d41e410, 2022-07-14)"
   sodipodi:docname="flyer.svg"
   xmlns:inkscape="http://www.inkscape.org/namespaces/inkscape"
   xmlns:sodipodi="http://sodipodi.sourceforge.net/DTD/sodipodi-0.dtd"
   xmlns="http://www.w3.org/2000/svg"
   xmlns:svg="http://www.w3.org/2000/svg"><sodipodi:namedview
     id="namedview7"
     pagecolor="#ffffff"
     bordercolor="#666666"
     borderopacity="1.0"
     inkscape:showpageshadow="2"
     inkscape:pageopacity="0.0"
     inkscape:pagecheckerboard="0"
     inkscape:deskcolor="#d1d1d1"
     inkscape:document-units="mm"
     showgrid="false"
     inkscape:zoom="0.67496197"
     inkscape:cx="243.71744"
     inkscape:cy="298.53534"
     inkscape:window-width="1846"
     inkscape:window-height="1136"
     inkscape:window-x="0"
     inkscape:window-y="0"
     inkscape:window-maximized="1"
     inkscape:current-layer="layer1" /><defs
     id="defs2"><rect
       x="2.921483"
       y="722.81423"
       width="557.56584"
       height="54.769781"
       id="rect6922" /><rect
       x="2.0305912"
       y="242.21823"
       width="765.12759"
       height="459.2427"
       id="rect6811" /></defs><g
     inkscape:label="Layer 1"
     inkscape:groupmode="layer"
     id="layer1"><path
       id="rect2885"
       d="m 47.610073,124.74422 v 2.11169 2.11066 2.11168 2.11065 2.1117 2.11066 2.11169 h 2.111688 2.110658 2.111688 2.110658 2.11169 2.110658 2.111688 v -2.11169 -2.11066 -2.1117 -2.11065 -2.11168 -2.11066 -2.11169 h -2.111688 -2.110658 -2.11169 -2.110658 -2.111688 -2.110658 z m 19.001076,0 v 2.11169 h 2.110656 v -2.11169 z m 0,2.11169 h -2.11169 v 2.11066 2.11168 h 2.11169 v 2.11065 h 2.110656 2.111688 2.11169 v -2.11065 h 2.11066 v -2.11168 -2.11066 h 2.11169 2.11066 v 2.11066 2.11168 h 2.11168 v -2.11168 -2.11066 -2.11169 h -2.11168 -2.11066 -2.11169 -2.11066 v 2.11169 h -2.11169 v 2.11066 h -2.111688 -2.110656 z m 12.667044,4.22234 h -2.11066 v 2.11065 h -2.11169 v 2.1117 2.11066 h 2.11169 v -2.11066 h 2.11066 v 2.11066 h 2.11168 v -2.11066 -2.1117 h -2.11168 z m 2.11168,6.33301 v 2.11169 h 2.11067 v -2.11169 z m 0,2.11169 h -2.11168 v -2.11169 h -2.11066 v 2.11169 2.11064 h -2.11169 v 2.1117 h 2.11169 2.11066 v -2.1117 h 2.11168 z m -6.33403,2.11064 v -2.11064 -2.11169 h -2.11066 v 2.11169 2.11064 z m -2.11066,-4.22233 v -2.11066 h -2.11169 v 2.11066 z m -2.11169,0 h -2.111688 v 2.11169 h 2.111688 z m -2.111688,2.11169 h -2.110656 v -2.11169 h 2.110656 v -2.11066 h -2.110656 v -2.1117 h -2.11169 v 2.1117 2.11066 2.11169 2.11064 h 2.11169 2.110656 z m 0,2.11064 v 2.1117 2.11066 h -2.110656 v -2.11066 h -2.11169 v -2.1117 h -2.110658 -2.111688 v 2.1117 h 2.111688 v 2.11066 h -2.111688 v 2.11169 h 2.111688 2.110658 v 2.11168 h 2.11169 v -2.11168 h 2.110656 2.111688 v -2.11169 h 2.11169 v -2.11066 h -2.11169 v -2.1117 z m 16.890418,-16.88937 v 2.11169 2.11066 2.11168 2.11065 2.1117 2.11066 2.11169 h 2.11066 2.11169 2.11066 2.11169 2.11066 2.11168 2.110667 v -2.11169 -2.11066 -2.1117 -2.11065 -2.11168 -2.11066 -2.11169 h -2.110667 -2.11168 -2.11066 -2.11169 -2.11066 -2.11169 z m -35.890462,2.11169 h 2.110658 2.111688 2.110658 2.11169 2.110658 v 2.11066 2.11168 2.11065 2.1117 2.11066 h -2.110658 -2.11169 -2.110658 -2.111688 -2.110658 v -2.11066 -2.1117 -2.11065 -2.11168 z m 38.001122,0 h 2.11169 2.11066 2.11169 2.11066 2.11168 v 2.11066 2.11168 2.11065 2.1117 2.11066 h -2.11168 -2.11066 -2.11169 -2.11066 -2.11169 v -2.11066 -2.1117 -2.11065 -2.11168 z m -35.890464,2.11066 v 2.11168 2.11065 2.1117 h 2.111688 2.110658 2.11169 v -2.1117 -2.11065 -2.11168 h -2.11169 -2.110658 z m 38.002154,0 v 2.11168 2.11065 2.1117 h 2.11066 2.11169 2.11066 v -2.1117 -2.11065 -2.11168 h -2.11066 -2.11169 z m -42.2245,12.66702 v 2.1117 2.11066 h 2.111688 2.110658 2.111688 v 2.11169 2.11168 h 2.110658 2.11169 v -2.11168 -2.11169 h -2.11169 v -2.11066 -2.1117 h -2.110658 v 2.1117 h -2.111688 v -2.1117 h -2.110658 z m 6.334034,8.44573 h -2.111688 v 2.11066 h 2.111688 z m 0,2.11066 v 2.11169 2.11066 h 2.110658 v 2.1117 h -2.110658 v 2.11065 h 2.110658 2.11169 2.110658 2.111688 v -2.11065 h -2.111688 -2.110658 v -2.1117 h 2.110658 2.111688 v -2.11066 h -2.111688 v -2.11169 h -2.110658 -2.11169 z m 6.333006,0 h 2.111688 v -2.11066 h -2.111688 z m 2.111688,4.22235 v 2.1117 h 2.110658 v -2.1117 z m 2.110658,0 h 2.11169 2.110656 v -2.11066 h -2.110656 -2.11169 z m 4.222346,-2.11066 h 2.111688 2.11169 v 2.11066 2.1117 h 2.11066 v 2.11065 h 2.11169 v 2.11168 h 2.11066 v -2.11168 -2.11065 h -2.11066 v -2.1117 h -2.11169 v -2.11066 -2.11169 h 2.11169 v -2.11066 h 2.11066 2.111679 v 2.11066 h 2.11067 2.111681 v 2.11169 h -2.111681 -2.11067 v 2.11066 h 2.11067 2.111681 v 2.1117 h -2.111681 -2.11067 v 2.11065 2.11168 h -2.11168 v 2.11066 h 2.11168 v 2.11169 2.11066 h -2.11168 v 2.1117 h -2.11066 v -2.1117 h -2.11169 v -2.11066 h -2.110659 v -2.11169 h -2.11169 v 2.11169 h -2.111688 v -2.11169 h -2.110657 v 2.11169 2.11066 h 2.110657 v 2.1117 2.11066 h 2.111688 v 2.11167 2.11066 h 2.11169 v -2.11066 h 2.110659 2.11169 v -2.11167 h 2.11066 v 2.11167 h 2.11168 v 2.11066 h 2.11067 v -2.11066 -2.11167 -2.11066 -2.1117 h 2.111681 2.110659 v 2.1117 2.11066 h 2.11169 2.11066 v -2.11066 h 2.11169 v 2.11066 h 2.11066 v -2.11066 -2.1117 h -2.11066 v -2.11066 h 2.11066 v -2.11169 h -2.11066 v -2.11066 -2.11168 h 2.11066 v -2.11065 h -2.11066 -2.11169 v -2.1117 -2.11066 h -2.11066 v -2.11169 h -2.11169 v -2.11066 h -2.110659 v -2.11168 h -2.111681 v -2.11169 h 2.111681 v 2.11169 h 2.110659 v -2.11169 -2.11066 h 2.11169 2.11066 v -2.1117 h -2.11066 -2.11169 -2.110659 v 2.1117 h -2.111681 -2.11067 v 2.11066 2.11169 h -2.11168 -2.11066 v -2.11169 h -2.11169 v 2.11169 2.11168 h -2.110659 v 2.11066 h -2.11169 -2.111688 z m 23.223428,0 h 2.11169 v 2.11066 h 2.11066 v -2.11066 -2.11169 h -2.11066 v -2.11066 h -2.11169 v 2.11066 z m 4.22235,-2.11169 h 2.11168 v 2.11169 2.11066 h 2.110667 v -2.11066 -2.11169 -2.11066 h -2.110667 -2.11168 z m 2.11168,4.22235 h -2.11168 v 2.1117 h 2.11168 z m -2.11168,8.44469 h 2.11168 2.110667 v -2.11066 -2.11168 h -2.110667 v 2.11168 h -2.11168 z m -2.11066,8.44471 h -2.11169 v 2.11167 h 2.11169 z m -6.33404,0 h -2.11066 v 2.11167 2.11066 h 2.11066 2.11169 v -2.11066 h -2.11169 z m -8.44469,2.11167 h -2.11066 v 2.11066 h 2.11066 z m -12.667044,-6.33403 h -2.11169 v 2.1117 h 2.11169 z m 0,-4.22235 v -2.11066 -2.11168 h -2.11169 v 2.11168 2.11066 z m 0,-4.22234 h 2.110656 v 2.11168 h 2.111688 v -2.11168 h 2.11169 v -2.11065 h -2.11169 -2.111688 -2.110656 z m 8.444694,6.33403 h 2.11169 v -2.11169 -2.11066 h -2.11169 v 2.11066 z m 2.11169,0 v 2.11066 h 2.11066 v -2.11066 z m 4.22234,-8.44468 v -2.1117 h -2.11168 v 2.1117 z m -4.22234,-6.33405 v 2.11169 h 2.11066 v -2.11169 z m -25.335115,0 H 49.72176 v 2.11169 h 2.110658 z m -2.110658,2.11169 h -2.111688 v 2.11066 h 2.111688 z m 0,2.11066 v 2.1117 h -2.111688 v 2.11065 h 2.111688 2.110658 v -2.11065 -2.1117 z m 0,-4.22235 v -2.11066 h 2.110658 v -2.11168 H 49.72176 47.610072 v 2.11168 2.11066 z m 44.335162,-10.55639 v 2.1117 h 2.11066 2.11168 v -2.1117 h -2.11168 z m 4.222341,2.1117 v 2.11066 h -2.11168 v 2.11169 h 2.11168 2.110667 v -2.11169 -2.11066 z m -8.44469,2.11066 v 2.11169 h 2.11066 v -2.11169 z m -2.11169,10.55638 h 2.11169 v 2.1117 h -2.11169 z m -4.22234,4.22235 h 2.11168 2.110659 2.11169 v 2.11168 2.11066 2.11169 h -2.11169 -2.110659 -2.111681 v -2.11169 -2.11066 z m -35.890471,2.11168 v 2.11066 2.11169 2.11066 2.1117 2.11066 2.11167 2.11066 h 2.111689 2.110658 2.111688 2.110658 2.11169 2.110658 2.111688 v -2.11066 -2.11167 -2.11066 -2.1117 -2.11066 -2.11169 -2.11066 h -2.111688 -2.110658 -2.11169 -2.110658 -2.111688 -2.110658 z m 38.002151,0 v 2.11066 h 2.110659 v -2.11066 z m -35.890463,2.11066 h 2.110658 2.111688 2.110658 2.11169 2.110658 v 2.11169 2.11066 2.1117 2.11066 2.11167 h -2.110658 -2.11169 -2.110658 -2.111688 -2.110658 v -2.11167 -2.11066 -2.1117 -2.11066 z m 2.110658,2.11169 v 2.11066 2.1117 2.11066 h 2.111688 2.110658 2.11169 v -2.11066 -2.1117 -2.11066 h -2.11169 -2.110658 z m 46.446845,0 v 2.11066 h 2.110657 v -2.11066 z m 0,4.22236 v 2.11066 h 2.110657 v -2.11066 z m -33.779804,2.11066 v 2.11167 2.11066 h 2.111689 v -2.11066 -2.11167 z m 31.668124,2.11167 v 2.11066 h 2.11168 2.110667 v -2.11066 h -2.110667 z"
       style="fill:#000000;fill-opacity:1;stroke-width:2.11122" /><path
       id="path4562-3"
       style="color:#000000;display:inline;fill:#4fbda1;fill-opacity:1;stroke:none;stroke-width:0.15543;-inkscape-stroke:none"
       d="m 107.46743,16.324948 c -1.15971,0.01091 -2.16958,0.300069 -2.16958,0.300069 l -0.0609,0.0173 0.004,0.06183 c 0,0 1.45986,23.98057 0.84413,34.364705 l -0.003,0.04364 0.0342,0.02393 c 1.4641,1.06052 2.37128,1.365562 3.02189,1.372431 0.6506,0.0068 1.03153,-0.282573 1.40578,-0.37463 l 0.0182,-0.0047 0.014,-0.01273 c 0.66183,-0.580525 0.84162,-1.736186 0.8705,-3.191628 0.0289,-1.455443 -0.10062,-3.219501 -0.10548,-5.02901 -0.004,-1.809514 0.11437,-3.663006 0.63711,-5.291194 0.51937,-1.617689 1.43857,-3.008226 3.02522,-3.931796 0.84109,0.106261 1.62519,0.95936 2.31992,2.242022 0.70089,1.294018 1.31015,3.0032 1.82253,4.739251 0.51239,1.736045 0.92823,3.499869 1.24635,4.906559 0.15904,0.703345 0.29428,1.316218 0.40432,1.793736 0.11006,0.477513 0.19253,0.81474 0.25794,0.981736 l 0.007,0.01607 0.0115,0.0115 c 0.63486,0.616615 1.08571,1.036894 1.49397,1.327573 0.40827,0.290679 0.77598,0.450708 1.23239,0.53982 0.46239,0.09027 1.09837,0.07341 1.62916,-0.227932 0.53079,-0.301342 0.94502,-0.894836 0.9484,-1.911037 v -0.02181 l -0.0112,-0.01818 c -2.11357,-3.672139 -3.80766,-10.285088 -4.77592,-13.133865 -0.4867,-1.431935 -1.44415,-3.119216 -2.63363,-4.446156 -1.18948,-1.326939 -2.61383,-2.299719 -4.04273,-2.265965 -2.67493,0.06319 -4.30245,2.341463 -4.48949,2.609678 -0.004,-0.177009 -0.069,-2.979931 -0.087,-6.197456 -0.009,-1.658723 -0.007,-3.378627 0.0261,-4.805628 0.0327,-1.426996 0.0975,-2.568029 0.19944,-3.040381 l 0.006,-0.02757 -0.0137,-0.02393 c -0.29987,-0.569129 -0.78585,-0.923335 -1.33788,-1.130558 -0.55203,-0.207227 -1.17054,-0.271258 -1.7504,-0.265816 z M 68.090686,29.65583 c -1.146692,-0.01144 -3.241838,0.359046 -5.760995,2.575126 -3.827421,3.366955 -6.774368,7.387834 -8.003014,9.318162 -0.616493,0.968569 -1.111042,2.062913 -1.294534,3.119485 -0.183494,1.056578 -0.05472,2.080509 0.584374,2.883377 0.621887,0.781266 1.093208,1.392971 1.750394,1.811015 0.657187,0.418051 1.493601,0.633478 2.829729,0.633478 1.359101,0 2.862859,-0.811689 4.143357,-1.756151 1.280497,-0.944469 2.335711,-2.022789 2.788206,-2.5821 0.861975,-1.06547 2.895307,-4.008122 3.071297,-4.262477 0.0069,0.202899 0.06818,2.012636 0.183372,4.122747 0.06073,1.112522 0.133963,2.25119 0.216414,3.162837 0.04124,0.455817 0.08482,0.855403 0.130637,1.167532 0.04583,0.312134 0.08929,0.530547 0.149124,0.654088 0.212949,0.439782 0.817367,0.897012 1.467294,1.261196 0.649936,0.364183 1.336119,0.628925 1.75616,0.628925 0.398929,0 0.834954,-0.105347 1.202988,-0.35735 0.368043,-0.252004 0.665573,-0.652622 0.77897,-1.228156 0.05934,-0.301266 0.03041,-0.823573 -0.04245,-1.516706 -0.07286,-0.693134 -0.192625,-1.550901 -0.325228,-2.496014 -0.265207,-1.890227 -0.582101,-4.129193 -0.68167,-6.080765 -0.09957,-1.95155 -0.0052,-4.097146 0.01481,-5.929517 0.01014,-0.916186 8.67e-4,-1.754627 -0.05969,-2.452676 -0.06108,-0.698043 -0.172213,-1.255253 -0.382502,-1.619753 -0.41869,-0.725716 -1.329302,-0.952668 -2.122601,-1.006893 -0.785944,-0.05372 -1.458292,0.06297 -1.470941,0.06517 -0.01715,-0.0053 -0.338171,-0.108725 -0.923537,-0.114573 z m -27.74443,0.170646 c -0.53335,0.0059 -1.077256,0.212201 -1.552168,0.444644 -0.474911,0.232447 -0.884159,0.49302 -1.127224,0.611652 -0.203637,0.09939 -0.499512,0.345743 -0.86383,0.691978 -0.364319,0.34623 -0.790752,0.791272 -1.228155,1.2818 -0.840396,0.942469 -1.695158,2.038403 -2.247476,2.930359 -0.622423,-2.165445 -1.305423,-3.464407 -1.94165,-4.260354 -0.652841,-0.816734 -1.256869,-1.136803 -1.664619,-1.409107 -0.233563,-0.155976 -0.585958,-0.19135 -0.997796,-0.152457 -0.411845,0.03889 -0.885698,0.156956 -1.360917,0.332499 -0.950428,0.351091 -1.906093,0.92923 -2.361136,1.600363 -0.449805,0.663402 -1.45437,2.715893 -2.240808,6.064395 -0.78644,3.348503 -1.440886,7.986765 -0.989761,13.797351 v 0.01273 l 0.0059,0.0112 c 0.118738,0.277095 0.218261,0.45953 0.304915,0.579828 0.08665,0.120297 0.160252,0.182575 0.238237,0.203983 0.07799,0.02141 0.149308,-0.01484 0.184282,-0.05185 0.03496,-0.03695 0.04939,-0.07789 0.04939,-0.07789 l 0.0067,-0.01696 -0.0023,-0.01848 c 0,0 -0.293178,-2.892151 -0.221258,-6.526318 0.06584,-3.327071 0.57195,-7.225312 1.748415,-10.128947 -0.906842,4.503805 -1.720666,6.716518 -1.06327,16.581914 l 0.0023,0.03666 0.03091,0.02182 c 0.712577,0.500816 1.29505,0.569616 1.724022,0.4595 0.428977,-0.110122 0.697152,-0.389398 0.806546,-0.578613 0.02182,-0.03777 0.02047,-0.06157 0.02516,-0.100936 0.0047,-0.03936 0.0075,-0.08877 0.01033,-0.150029 0.0059,-0.122533 0.0081,-0.290597 0.0091,-0.499508 0.0017,-0.417828 -0.0023,-0.99918 -0.0047,-1.700988 -0.0041,-1.403623 0.0029,-3.287451 0.09396,-5.293617 0.179472,-3.950442 0.707045,-8.358127 2.088351,-10.505096 1.058367,1.340676 1.823386,3.361518 2.356589,5.15177 0.273119,0.916995 0.48908,1.768105 0.659848,2.427513 0.08538,0.329707 0.159312,0.61153 0.224292,0.830494 0.06498,0.218958 0.117041,0.371714 0.175494,0.462832 0.200521,0.312568 0.695051,0.76052 1.242704,1.129342 0.547653,0.368823 1.136551,0.661403 1.561564,0.595893 0.394933,-0.06088 0.810787,-0.271711 1.159352,-0.539515 0.348565,-0.267805 0.630305,-0.59086 0.744713,-0.899294 0.05972,-0.160991 0.09104,-0.418625 0.122452,-0.745927 0.0314,-0.327296 0.06045,-0.720742 0.100931,-1.133888 0.08095,-0.826301 0.21377,-1.733289 0.508601,-2.330226 0.573968,-1.1621 1.791593,-2.740269 1.908308,-2.892469 0.04156,0.14115 0.671432,2.276324 1.393041,5.023256 0.745002,2.83598 1.541031,6.160598 1.747059,8.095759 l 0.0034,0.0264 0.01728,0.01818 c 1.210877,1.309268 2.105145,1.65975 2.772442,1.603999 0.667297,-0.05578 1.084511,-0.516494 1.334543,-0.751687 l 0.0046,-0.0047 0.0034,-0.0047 c 0.196509,-0.257183 0.344381,-0.411294 0.453738,-0.533756 0.109358,-0.122468 0.185778,-0.220054 0.215504,-0.35281 0.05945,-0.265499 -0.05407,-0.607254 -0.278548,-1.599449 -0.224373,-0.991231 -1.066557,-4.919578 -1.997842,-8.775038 -0.465642,-1.927723 -0.953388,-3.837634 -1.3988,-5.355443 -0.222707,-0.758908 -0.434068,-1.418831 -0.627717,-1.935894 -0.193649,-0.517057 -0.36494,-0.888413 -0.525876,-1.082667 -0.379901,-0.458556 -0.857858,-0.625213 -1.342727,-0.619835 z m 54.341027,0.102144 c -1.08847,-0.01349 -2.2962,0.131119 -3.46866,0.560126 -1.696598,0.620791 -4.200912,1.786452 -6.31536,2.948541 -1.057224,0.581047 -2.016516,1.160511 -2.728794,1.672501 -0.356148,0.255991 -0.650612,0.494827 -0.86596,0.71046 -0.215349,0.215637 -0.355334,0.404859 -0.39069,0.585287 -0.124043,0.632926 0.186266,1.249535 0.89565,1.841017 0.709394,0.591482 1.821752,1.173122 3.344085,1.76858 2.986802,1.168283 6.182239,2.288717 6.293549,2.327797 -0.0606,0.07415 -0.827756,1.016618 -1.932569,2.138969 -1.147394,1.165614 -2.587917,2.439132 -3.718408,2.873071 -1.154637,0.443196 -1.82339,0.63376 -2.215656,0.858073 -0.196115,0.112151 -0.326414,0.23917 -0.396147,0.408877 -0.06974,0.169707 -0.07944,0.372142 -0.06307,0.640445 0.03526,0.577576 0.605743,1.230796 1.339082,1.758276 0.733331,0.527491 1.637228,0.923241 2.3863,0.923241 0.204676,0 0.464867,-0.08934 0.781387,-0.246114 0.31653,-0.156786 0.687181,-0.383082 1.093888,-0.662276 0.813399,-0.558385 1.772544,-1.332049 2.727583,-2.198374 1.91008,-1.732637 3.80106,-3.828667 4.46192,-5.33817 0.52493,-1.199034 0.72237,-2.323855 0.0482,-3.32802 -0.17959,-0.267488 -0.52424,-0.478123 -0.97144,-0.667726 -0.44719,-0.189601 -0.99916,-0.355044 -1.59702,-0.51315 -1.19574,-0.316199 -2.575981,-0.601195 -3.650827,-0.963548 -1.078857,-0.363732 -1.752608,-0.67142 -2.154655,-0.88656 -0.329621,-0.176393 -0.391036,-0.238648 -0.43191,-0.27279 0.08724,-0.05945 1.37799,-0.944175 3.155861,-1.862543 1.836691,-0.948744 4.090601,-1.865551 5.714311,-1.761911 0.836,0.05338 1.42923,-0.03015 1.84891,-0.199438 0.41967,-0.169279 0.66494,-0.427845 0.78927,-0.708946 0.24865,-0.562209 0.0295,-1.189112 -0.0758,-1.430932 -0.0264,-0.06059 -0.0748,-0.1073 -0.14186,-0.157003 -0.067,-0.04968 -0.15374,-0.100162 -0.25884,-0.151249 -0.21022,-0.102168 -0.4959,-0.207034 -0.8411,-0.303401 -0.69039,-0.192723 -1.62065,-0.350113 -2.65999,-0.36311 -3.1e-4,-6e-6 -5.9e-4,0 -8.6e-4,0 z m -28.256367,4.607399 c -0.128653,0.362658 -1.369474,3.831036 -3.248907,6.696963 -1.939297,2.957204 -4.922142,5.194787 -5.035987,5.279981 -0.02463,-0.05109 -0.05615,-0.129612 -0.08578,-0.24642 -0.06065,-0.239146 -0.109805,-0.629225 -0.05395,-1.223311 0.05669,-0.602902 0.06649,-0.918115 0.454951,-1.611876 0.388459,-0.693761 1.159317,-1.759477 2.729705,-3.813582 1.567273,-2.050038 2.931123,-3.356971 3.900881,-4.150332 0.842975,-0.689638 1.211789,-0.864758 1.339082,-0.931423 z"
       sodipodi:nodetypes="sccccccscccscscsssscccssscccsssccscccsssssssssssscssssssssssssssscsssssscsssssscccssscccscsccsscccsccssssssssssscscccscccssssssssssssssssscsssssssssssssssscsssscsssssscscsssssc" /><text
       xml:space="preserve"
       transform="matrix(0.13229166,0,0,0.13229166,23.142492,32.756329)"
       id="text6809"
       style="font-style:normal;font-weight:normal;font-size:53.3333px;line-height:1.35;font-family:sans-serif;white-space:pre;shape-inside:url(#rect6811);display:inline;fill:#000000;fill-opacity:1;stroke:none"
       x="127.91976"
       y="0"><tspan
         x="149.32044"
         y="313.73573"
         id="tspan7782"><tspan
           style="font-size:74.6667px"
           id="tspan7780">help wanted.
</tspan></tspan><tspan
         x="58.648978"
         y="394.48095"
         id="tspan7786"><tspan
           style="font-family:Chivo;-inkscape-font-specification:Chivo"
           id="tspan7784">interested in working on a </tspan></tspan><tspan
         x="57.342216"
         y="468.08892"
         id="tspan7790"><tspan
           style="font-family:Chivo;-inkscape-font-specification:Chivo"
           id="tspan7788">fresh, clean, open-source, </tspan></tspan><tspan
         x="11.049061"
         y="541.6969"
         id="tspan7794"><tspan
           style="font-family:Chivo;-inkscape-font-specification:Chivo"
           id="tspan7792">privacy-focused collaborative </tspan></tspan><tspan
         x="206.19523"
         y="615.30487"
         id="tspan7798"><tspan
           style="font-family:Chivo;-inkscape-font-specification:Chivo"
           id="tspan7796">calendar app?</tspan></tspan></text><text
       xml:space="preserve"
       transform="matrix(0.26458333,0,0,0.26458333,-0.66570828,-4.7625002)"
       id="text6920"
       style="font-style:normal;font-weight:normal;font-size:32px;line-height:1.25;font-family:sans-serif;white-space:pre;shape-inside:url(#rect6922);display:inline;fill:#28a182;fill-opacity:1;stroke:none"
       x="144.03969"
       y="0"><tspan
         x="171.41733"
         y="752.09176"
         id="tspan7802"><tspan
           style="font-family:Chivo;-inkscape-font-specification:Chivo;text-align:center;text-anchor:middle"
           id="tspan7800">mash.pet/help</tspan></tspan></text></g></svg>
