<?xml version="1.0" encoding="UTF-8" standalone="no"?>
<!-- Created with Inkscape (http://www.inkscape.org/) -->

<svg
   width="160.64549mm"
   height="29.632299mm"
   viewBox="0 0 160.64549 29.632299"
   version="1.1"
   id="svg5"
   inkscape:version="1.2.1 (9c6d41e410, 2022-07-14)"
   sodipodi:docname="logo2.svg"
   xmlns:inkscape="http://www.inkscape.org/namespaces/inkscape"
   xmlns:sodipodi="http://sodipodi.sourceforge.net/DTD/sodipodi-0.dtd"
   xmlns="http://www.w3.org/2000/svg"
   xmlns:svg="http://www.w3.org/2000/svg">
  <sodipodi:namedview
     id="namedview7"
     pagecolor="#ffffff"
     bordercolor="#666666"
     borderopacity="1.0"
     inkscape:showpageshadow="2"
     inkscape:pageopacity="0.0"
     inkscape:pagecheckerboard="0"
     inkscape:deskcolor="#d1d1d1"
     inkscape:document-units="mm"
     showgrid="false"
     inkscape:zoom="1.3904359"
     inkscape:cx="203.1737"
     inkscape:cy="84.505876"
     inkscape:window-width="1846"
     inkscape:window-height="1136"
     inkscape:window-x="0"
     inkscape:window-y="0"
     inkscape:window-maximized="1"
     inkscape:current-layer="layer1" />
  <defs
     id="defs2">
    <rect
       x="62.62442"
       y="397.88828"
       width="674.34961"
       height="342.13907"
       id="rect236" />
  </defs>
  <g
     inkscape:label="Layer 1"
     inkscape:groupmode="layer"
     id="layer1"
     transform="translate(-25.617533,-121.58302)">
    <path
       id="rect450"
       style="fill:#28a182;stroke-width:6.4108;stroke-opacity:0.286591;paint-order:stroke fill markers"
       d="m 25.617533,121.58302 v 29.6323 h 10.112561 c -0.04457,-0.0598 -0.0883,-0.12339 -0.129708,-0.19586 h 1.066602 l -0.101286,-0.2036 c -0.03387,-0.1016 -0.05116,-0.20277 -0.05116,-0.30437 h -0.203088 v -1.01648 h 0.152445 v -1.01596 h -0.355533 v -0.50798 h 0.203088 v -1.01596 h -1.879472 v -1.01596 h 1.828829 v -1.52393 h -0.406694 v -0.50798 h 0.152446 v -0.25373 h 0.203088 v -0.5085 h 0.101803 v -0.50798 h 0.101802 v -0.25373 h -0.355533 v -0.76223 h 0.101285 v -0.76171 h 0.965316 v -0.25425 h 0.762228 v -0.50798 h -2.844788 v -0.25373 h 0.151929 v -1.01596 h 0.762227 v -1.01595 h 0.203088 v -0.25425 h 0.101803 v -0.76223 h -0.457336 v -0.25373 h 0.711067 v -1.01596 h -0.355534 v -0.50798 h 0.152446 v -0.76223 h 0.05064 v -0.50798 H 36.05772 v -0.25373 h 0.203088 v -0.76222 h -0.457336 v -0.76172 h 0.355533 v -0.76222 h -0.05064 v -1.01596 h 0.101285 v -0.25425 h -0.406176 v -0.50798 h 0.609781 v -1.01596 h -0.559139 v -0.25373 h -0.304374 v -0.25425 h -2.083077 v -0.76171 h -3.758943 v -0.25425 h 4.419368 v -0.20308 c 0,-0.3048 0.08492,-0.57581 0.254248,-0.81287 h 2.844788 c 0.06773,-0.1016 0.152131,-0.186 0.253731,-0.25374 h -2.235006 c 0.2032,-0.20319 0.490981,-0.30489 0.863514,-0.30489 h 8.381917 c 0.338666,0 0.626447,0.1017 0.863513,0.30489 h 2.235522 c 0.06773,0.0339 0.118579,0.0674 0.152446,0.10129 0.03387,0.0339 0.06742,0.0847 0.101286,0.15245 h -2.844788 c 0.169333,0.23706 0.254248,0.50807 0.254248,0.81287 v 0.20308 h -4.419885 v 0.25425 h 3.75946 v 0.76171 h 2.082561 v 0.25425 h 0.304891 v 0.20309 l 0.152445,-0.20309 h -0.05064 c 0.03387,-0.0677 0.101489,-0.15265 0.203089,-0.25425 h 1.981274 c 0.2032,-0.27093 0.456911,-0.52464 0.761711,-0.76171 h 1.270206 l 0.304891,-0.25425 h -3.302124 l 0.711068,-0.50797 c 0.270933,-0.2032 0.558713,-0.37252 0.863513,-0.50798 h 0.507979 c 0.06773,-0.0677 0.135872,-0.11858 0.203606,-0.15245 l 0.304374,-0.10129 h 2.286165 c 0.508,-0.23706 1.050008,-0.42367 1.625741,-0.55913 0.575732,-0.13547 1.185363,-0.21987 1.828829,-0.25374 1.964264,-0.0677 3.555703,0.20328 4.774902,0.81287 h -2.285649 c 0.06773,0.0339 0.152132,0.0674 0.253732,0.10129 0.1016,0.0339 0.186514,0.0847 0.254248,0.15245 h -0.50798 c 0.508,0.3048 0.948317,0.64342 1.32085,1.01595 h 5.384684 c 0.270933,-0.20319 0.524644,-0.38928 0.761711,-0.55862 0.270933,-0.16933 0.541937,-0.32187 0.81287,-0.45733 h -2.235006 l 0.558623,-0.25374 h 0.863513 c 0.575733,-0.27093 1.168586,-0.47431 1.778186,-0.60978 0.609599,-0.13546 1.236006,-0.20309 1.879472,-0.20309 1.490132,0 2.827859,0.27101 4.013191,0.81287 h -0.863513 l 0.558622,0.25374 h 2.235523 c 0.270933,0.13546 0.507868,0.288 0.711068,0.45733 0.237066,0.16934 0.474001,0.35543 0.711067,0.55862 H 71.10933 c 0.06773,0.0339 0.118579,0.0679 0.152445,0.10181 0.03387,0.0339 0.06794,0.0847 0.101803,0.15244 h 8.077026 l 0.660425,0.76171 H 71.9222 c 0.03387,0.0677 0.101489,0.15265 0.203089,0.25425 h 5.181595 c 0.1016,0.1016 0.169739,0.186 0.203606,0.25373 h 0.253731 c 0.1016,0.13547 0.203291,0.30478 0.304891,0.50798 l 0.304891,0.50798 h -0.609782 c 0.06773,0.0677 0.118579,0.15265 0.152445,0.25425 0.03387,0.1016 0.06794,0.186 0.101803,0.25373 h 0.355534 c 0.06773,0.13547 0.101286,0.22038 0.101286,0.25425 h -0.05064 c 0.06773,0.13547 0.135355,0.30478 0.203088,0.50798 0.06773,0.16933 0.118579,0.33864 0.152445,0.50798 h 0.05116 l 0.101286,0.40617 c 0.03387,0.1016 0.06794,0.22059 0.101803,0.35605 h -0.355534 l 0.152445,0.76172 h 0.45682 c 0.03387,0.13546 0.05116,0.27122 0.05116,0.40669 0,0.1016 0.01678,0.22007 0.05064,0.35553 h -0.152445 v 0.25373 h 0.304891 l 0.05064,0.50798 h 0.101802 c 0.03387,0.13547 0.05064,0.27123 0.05064,0.4067 v 0.35553 h -0.15244 v 0.50798 h -0.406177 v 1.01596 h 1.168404 v 0.25373 H 79.59305 v 0.76223 h -0.101286 v 0.54053 c 0.01726,-0.0109 0.03324,-0.0217 0.05064,-0.0325 0.237066,-0.2032 0.490777,-0.37252 0.76171,-0.50798 h 2.794145 l 0.457337,-0.25373 h 1.422135 c 0.06773,-0.0677 0.152648,-0.11858 0.254248,-0.15245 0.1016,-0.0339 0.185998,-0.0679 0.253731,-0.1018 h 0.609782 c 0.6096,-0.3048 1.270075,-0.55903 1.981275,-0.76223 h 3.098519 c 0.474132,-0.16933 0.948519,-0.30458 1.422652,-0.40618 0.507999,-0.13546 1.032714,-0.25393 1.574581,-0.35553 h -1.26969 l 0.81287,-0.15245 5.384684,-0.86351 v -0.25425 h 2.590547 v -0.25373 h -4.876712 v -0.25425 h 2.89543 v -0.40617 c 0,-0.13547 -0.01678,-0.25394 -0.05064,-0.35554 -0.03387,-0.3048 -0.152334,-0.55902 -0.355533,-0.76222 h -0.863514 c -0.03387,-0.0339 -0.118781,-0.0847 -0.254248,-0.15245 l -0.355534,0.15245 h -0.863513 c -0.135466,0.1016 -0.27071,0.22006 -0.406176,0.35553 -0.135467,0.1016 -0.288004,0.23736 -0.457337,0.40669 h 0.05064 c -0.372533,0.37254 -0.846403,0.55863 -1.422135,0.55863 h -8.636166 c -0.507999,0 -0.846625,-0.18609 -1.015958,-0.55863 h -0.05064 c -0.1016,-0.16933 -0.13567,-0.35594 -0.101803,-0.55914 v -0.20308 h 0.81287 c 0.03387,-0.0677 0.05064,-0.15214 0.05064,-0.25374 H 82.53964 c 0,-0.13546 0.03355,-0.30477 0.101286,-0.50797 h 7.315315 c 0,-0.0339 0.03407,-0.11879 0.101803,-0.25425 h -4.521171 c 0.1016,-0.33867 0.25362,-0.67729 0.45682,-1.01596 h 0.86403 c 0.1016,-0.16933 0.220067,-0.33865 0.355533,-0.50798 l 0.406177,-0.50798 H 83.80933 l 0.457336,-0.50798 h 7.365959 c 0.135466,-0.13547 0.271227,-0.25393 0.406693,-0.35553 0.169334,-0.13547 0.321354,-0.27123 0.45682,-0.4067 h -4.673616 l 0.304891,-0.25373 h -1.422136 c 0.169333,-0.13546 0.355423,-0.25393 0.558622,-0.35553 l 0.609782,-0.4067 h 2.387451 c 0.7112,-0.40639 1.456074,-0.74502 2.235006,-1.01595 h 0.355534 c 0.914399,-0.33867 1.930794,-0.59238 3.048393,-0.76171 1.151465,-0.2032 2.404278,-0.3049 3.758943,-0.3049 2.777062,0 5.130672,0.35541 7.061072,1.06661 h -0.40618 c 0.37253,0.13546 0.72793,0.288 1.0666,0.45733 0.37253,0.16934 0.72845,0.35543 1.06712,0.55862 h -2.38797 l 1.06712,0.76223 h 1.42214 l 0.30489,0.25373 h 4.67361 l 0.76223,0.76223 h -7.36596 c 0.0677,0.0677 0.13536,0.15213 0.20309,0.25373 0.0677,0.1016 0.13535,0.18652 0.20309,0.25425 h 3.75946 c 0.13547,0.13547 0.25393,0.30478 0.35553,0.50798 0.13547,0.16933 0.23716,0.33865 0.30489,0.50798 h -0.81287 l 0.45682,1.01596 h 3.55637 c 0.0677,-0.13547 0.13536,-0.25394 0.20309,-0.35554 0.0677,-0.13546 0.11858,-0.27122 0.15245,-0.40669 h 0.20309 l 0.30489,-0.50798 h -0.0506 c 0.0677,-0.13547 0.15213,-0.25393 0.25373,-0.35553 l 0.30489,-0.40618 c 0.1016,-0.13547 0.20329,-0.25393 0.30489,-0.35553 0.1016,-0.13547 0.22007,-0.27123 0.35553,-0.4067 h -0.1018 l 0.25425,-0.25373 h -0.0512 c 0.0339,-0.0677 0.0679,-0.11858 0.1018,-0.15244 0.0677,-0.0339 0.11858,-0.0679 0.15245,-0.10181 h 0.1018 l 0.60926,-0.50798 0.15245,-0.15244 0.20309,-0.10129 h -0.9648 c 0.57573,-0.37253 1.20214,-0.71116 1.87947,-1.01596 h 1.57458 c 0.1016,-0.0677 0.20329,-0.11857 0.30489,-0.15244 0.1016,-0.0339 0.22007,-0.0679 0.35554,-0.1018 h -3.45457 c 0.13546,-0.0677 0.25445,-0.11858 0.35605,-0.15245 l 0.40617,-0.10129 h 2.18437 c 0.84666,-0.27093 1.74407,-0.47431 2.69234,-0.60978 0.98213,-0.13546 2.0153,-0.20309 3.09903,-0.20309 1.1176,0 2.16755,0.0676 3.14968,0.20309 0.98214,0.13547 1.89632,0.33885 2.74299,0.60978 h -2.18436 c 0.13546,0.0339 0.25393,0.0674 0.35553,0.10129 0.13547,0.0339 0.27123,0.0847 0.40669,0.15245 h 3.40341 l 0.71107,0.25424 h -1.57458 c 0.37253,0.13547 0.72793,0.30478 1.0666,0.50798 0.33867,0.16934 0.66052,0.33865 0.96532,0.50798 h 0.96531 l 0.40618,0.25373 h 0.0506 c 0.13547,0.0677 0.25445,0.15265 0.35605,0.25425 0.13547,0.1016 0.25394,0.186 0.35554,0.25373 h -0.0512 l 0.30489,0.25425 h 0.0506 l 0.30489,0.25373 h 0.1018 c 0.3048,0.23707 0.55851,0.4913 0.76171,0.76223 0.27094,0.23707 0.47432,0.49078 0.60979,0.76171 h 0.0506 l 0.30489,0.50798 h -0.25373 l 0.20309,0.40669 c 0.0677,0.1016 0.11858,0.22007 0.15244,0.35554 h 0.35554 l 0.15244,0.50798 h 0.96532 l 0.0506,0.35553 v 0.15245 h 0.86351 c 0,0.13546 -0.0335,0.30478 -0.10128,0.50798 -0.23707,0.47413 -0.57621,0.71106 -1.01648,0.71106 h -8.53436 c -0.33867,0 -0.66,-0.0676 -0.9648,-0.20309 l -0.81287,-0.50797 c -0.23707,-0.16934 -0.50807,-0.33865 -0.81287,-0.50798 h -0.86351 c -0.33867,-0.2032 -0.71136,-0.30489 -1.11776,-0.30489 -0.33867,0 -0.60967,0.10169 -0.81287,0.30489 h -2.23501 c -0.16933,0.16933 -0.25425,0.33864 -0.25425,0.50798 h 2.38797 c 0,0.16933 0.0336,0.33864 0.10129,0.50797 0.0677,0.16934 0.22027,0.33865 0.45733,0.50798 h -3.35276 c 0.16933,0.0677 0.35542,0.15265 0.55862,0.25425 0.2032,0.1016 0.45743,0.186 0.76223,0.25373 h -0.0512 c 0.4064,0.13547 0.91485,0.25394 1.52445,0.35554 0.64347,0.1016 1.38834,0.22058 2.23501,0.35605 0.0677,0 0.11857,0.0168 0.15244,0.0506 h 0.15245 4.47053 c 0.40639,0.0677 0.79535,0.15213 1.16788,0.25373 0.4064,0.0677 0.7791,0.15265 1.11776,0.25425 h -2.38745 c 0.13547,0.0339 0.25394,0.0674 0.35554,0.10129 0.13546,0.0339 0.27071,0.0847 0.40617,0.15244 h -0.30437 c 0.44027,0.13547 0.82974,0.288 1.1684,0.45734 0.37254,0.16933 0.72794,0.35542 1.0666,0.55862 h 0.76223 l 0.81236,0.5085 h -2.18437 l 0.50798,0.40617 c 0.16934,0.1016 0.32187,0.22007 0.45734,0.35554 h 1.42265 l 0.25373,0.25424 h -0.45733 l 0.25424,0.25374 h 1.01596 c 0.37254,0.37253 0.64354,0.71116 0.81287,1.01595 h 0.10181 c 0.10159,0.13547 0.18599,0.27123 0.25373,0.4067 0.0677,0.1016 0.13535,0.22007 0.20308,0.35553 h -0.20308 l 0.20308,0.50798 c 0.1016,0.16933 0.16923,0.33865 0.20309,0.50798 h -0.15193 l 0.10129,0.25373 h -0.20309 c 0.0339,0.0677 0.0506,0.15265 0.0506,0.25425 0,0.1016 0.0173,0.186 0.0512,0.25373 h -0.45733 c 0.1016,0.33867 0.15244,0.67729 0.15244,1.01596 h 0.66043 v 0.35605 c 0,0.13547 -0.0173,0.28749 -0.0512,0.45682 v 0.45734 h -0.15245 l -0.10128,0.50798 c 0,0.16933 -0.0341,0.33864 -0.10181,0.50798 h 1.16841 c 0,0.16933 -0.0508,0.33864 -0.15245,0.50797 h 1.62574 c -0.0677,0.13547 -0.1018,0.22039 -0.1018,0.25425 h 0.96532 c -0.0677,0.16934 -0.15213,0.33865 -0.25373,0.50798 -0.0339,0.0847 -0.0719,0.16907 -0.11421,0.25373 h 0.57103 v -0.76171 h 0.1018 v -0.50798 h 0.10128 v -0.50798 h 1.06712 v -0.25424 h 1.82883 v -0.50798 h -0.50798 v -0.50798 h 0.86351 v -0.76223 h 1.16841 v -0.50798 h -6.2482 v -0.25373 h 0.71107 v -0.25425 h 1.1684 v -0.25373 h -1.01596 v -0.25425 h 0.91416 v -0.76171 h -0.0506 v -0.76223 h -0.86352 v -0.25373 h 0.71107 v -0.50798 h 0.76223 v -0.25424 h -1.27021 v -1.01596 h -1.37149 v -0.50798 h 1.1684 v -1.01596 h 1.42214 v -0.25425 h -0.81287 v -0.25373 h -0.0506 v -0.25425 h 0.20309 v -0.50798 h 1.42265 v -0.25373 h -1.98128 v -0.50798 h 0.66043 v -0.76223 h 1.0666 v -0.25373 h -0.66043 v -0.76222 h -0.45681 v -0.25374 h -0.4067 v -0.76222 h 0.96532 v -1.01596 h -1.5751 v -1.01596 h 1.5751 v -0.76223 h -1.62574 v -1.01596 h 1.06712 v -0.25373 h 0.50797 v -0.76223 h -0.55913 v -0.76171 h -0.15245 v -1.01595 h 0.40669 v -0.76223 h 1.4733 v -0.76223 h -1.87999 v -0.50798 h -1.1684 v -1.01596 h -2.94608 v -0.48007 z m 128.092437,0 v 0.48007 h 2.94659 v 1.01596 h 1.16841 v 0.50798 h 1.87947 v 0.76223 h -1.4733 v 0.76223 h -0.40617 v 1.01595 h 0.15244 v 0.76171 h 0.55862 v 0.76223 h 1.21957 c 0.16933,-0.13546 0.32135,-0.25393 0.45682,-0.35553 0.13546,-0.13547 0.288,-0.27123 0.45733,-0.4067 h -1.47329 c 0.2032,-0.13546 0.38981,-0.27071 0.55914,-0.40617 0.2032,-0.13547 0.42336,-0.25394 0.66042,-0.35554 0.84667,-0.47413 1.74408,-0.81275 2.69235,-1.01595 h 1.1684 c 0.88053,-0.2032 1.77794,-0.3049 2.69234,-0.3049 0.88053,0 1.7271,0.1017 2.5399,0.3049 h -1.16841 c 0.88054,0.2032 1.7271,0.54182 2.5399,1.01595 0.16933,0.1016 0.35594,0.22007 0.55914,0.35554 0.2032,0.1016 0.38929,0.23684 0.55862,0.40617 h 1.42214 c 0.16933,0.13547 0.30509,0.27123 0.40669,0.4067 0.13547,0.1016 0.27071,0.22007 0.40618,0.35553 h -1.32085 l 0.1018,0.10129 c 0.0339,0.0339 0.0679,0.0847 0.1018,0.15244 h -1.1684 c 0.16933,0.13547 0.30458,0.30478 0.40618,0.50798 l 0.40617,0.50798 h 1.67639 l 0.45733,0.76223 h -1.57458 l 0.45734,1.01596 h 1.62522 c 0.0677,0.13546 0.13536,0.30478 0.20309,0.50798 0.0677,0.16933 0.11858,0.33864 0.15245,0.50798 h -0.9648 c 0.0677,0.13546 0.10128,0.27122 0.10128,0.40669 0.0339,0.1016 0.0679,0.22007 0.10181,0.35553 h 0.40617 c 0.0339,0.0677 0.0512,0.15214 0.0512,0.25374 h 0.50798 l 0.15193,0.76222 h 0.60978 c 0.0339,0.0677 0.0506,0.15213 0.0506,0.25373 h -1.01595 l 0.0512,0.50798 h -0.50798 v 0.25425 h 0.81235 c 0.0339,0.0677 0.0512,0.15213 0.0512,0.25373 v 0.25425 h 1.42213 v 0.25373 h -1.67638 v 0.50798 h -0.0506 c 0.0339,0.0677 0.0506,0.15265 0.0506,0.25425 h -0.0506 v 0.25373 h -0.15245 v 0.25425 h 0.10181 v 1.01596 h -1.98128 v 0.50798 h 2.13372 v 1.01596 h -0.2036 v 0.25424 h 0.45733 v 0.50798 h -0.96531 v 0.25373 h 0.81287 v 0.76223 h 0.76222 v 0.76171 h -0.96531 v 0.25425 h 0.50798 v 0.25373 h 0.35553 v 0.25425 h -2.13372 v 0.25373 h 2.7435 v 0.50798 h -1.57509 v 0.76223 h 3.35276 v 0.50798 h -4.67361 v 0.50798 h 3.30212 v 0.25424 h -0.60926 v 0.50798 h -1.27021 v 1.26969 h 0.45733 v 0.50798 h 1.42214 v 0.50798 h -3.40341 v 1.01596 h 3.6065 v 0.76223 h -2.1332 v 0.50798 h 0.66042 v 0.25425 h -0.60978 c -0.0677,0.2032 -0.13536,0.37251 -0.20309,0.50797 -0.0268,0.0537 -0.081,0.12094 -0.15038,0.19586 h 10.75748 v -29.6323 z m -90.931915,5.56038 0.304891,0.40618 c 0.1016,0.1016 0.186515,0.22007 0.254248,0.35553 h 2.895431 c 0.135466,-0.13546 0.271227,-0.25393 0.406693,-0.35553 l 0.406177,-0.40618 z m 95.250005,0.50798 v 0.25373 h 0.1018 l 0.15244,-0.15244 0.10129,-0.10129 z m -96.418409,0.50798 0.152446,0.25373 h 0.609782 l 0.254248,0.55914 c 0.06773,-0.1016 0.135355,-0.18651 0.203088,-0.25425 l 0.203089,-0.30489 h -0.254249 l 0.254249,-0.25373 z m 47.091699,3.30213 c 0.0677,0.0677 0.1018,0.15213 0.1018,0.25373 0.0339,0.1016 0.0674,0.18651 0.10129,0.25424 h 1.6769 v 0.10129 c 0.0339,0.0339 0.0506,0.0847 0.0506,0.15245 h 0.86352 l 0.30489,1.52393 h -2.94659 v 0.10181 c 0.0339,0.0339 0.0506,0.0847 0.0506,0.15244 h 3.78478 l -0.0253,-0.25425 h 3.40341 c -0.0339,-0.0677 -0.0506,-0.15213 -0.0506,-0.25373 v -0.35553 c 0.0339,-0.13547 0.0506,-0.27123 0.0506,-0.40669 h -2.38745 l 0.0506,-0.50798 h 2.28617 l 0.15244,-0.50798 h -1.01596 c 0.0339,-0.0677 0.0674,-0.15213 0.10129,-0.25373 z m -13.00489,0.45682 c -0.237067,0 -0.40638,0.0173 -0.50798,0.0512 h 1.067119 c -0.1016,-0.0339 -0.288206,-0.0512 -0.559139,-0.0512 z m -45.414799,1.98127 c -0.474133,0 -0.880898,0.11847 -1.219564,0.35553 -0.237067,0.2032 -0.439932,0.45743 -0.609265,0.76223 h -0.152446 l -0.152445,0.50798 h 0.304891 c -0.03387,0.13547 -0.05116,0.27071 -0.05116,0.40618 v 0.45733 0.15245 h -0.711068 v 0.25373 h 0.457337 v 0.76223 h -0.101803 v 0.25425 H 47.84305 v 1.01595 h -0.761711 v 1.01596 h -0.152445 v 0.25373 h 2.844787 v 0.50798 h -0.762227 v 0.25425 h -0.965316 v 0.76171 h -0.101286 v 0.76223 h 0.355534 v 0.25373 h -0.101802 v 0.50798 h -0.101286 v 0.5085 h -0.203605 v 0.25373 h -0.151929 v 0.50798 h 0.406177 v 1.52393 h -1.828829 v 1.01596 h 1.879472 v 1.01596 h -0.203089 v 0.50798 h 0.355534 v 1.01596 h -0.152445 v 0.86403 c 0,0.0339 -0.01678,0.0674 -0.05064,0.10129 v 0.0512 h 0.253731 l -0.151929,0.50797 h -1.117761 c -0.03104,0.0724 -0.07052,0.13608 -0.114205,0.19586 h 6.476607 c -0.04368,-0.0598 -0.08316,-0.12343 -0.114205,-0.19586 h -1.117244 l -0.152445,-0.50797 h -0.304891 v -1.01648 h 0.304891 v -1.01596 h 0.05064 v -0.50798 h 0.812871 v -1.01596 h -2.794145 v -1.01596 h 2.13372 V 144.9232 H 52.11049 v -0.50798 h -0.05116 v -0.50798 h 0.05116 v -0.76223 h 0.101285 v -0.50798 h 0.254248 v -0.25373 h -0.457336 v -0.76223 h 0.101803 v -0.76171 h -0.660425 v -0.25425 h 3.809586 v -0.50798 h -2.285648 v -0.25373 h 0.406176 v -1.01596 H 52.11049 v -1.01595 h 0.101285 v -0.25425 h -0.355534 v -0.76223 h 0.609782 v -0.25373 h -0.304891 v -0.15245 c 0,-0.16933 -0.01678,-0.32187 -0.05064,-0.45733 0,-0.13547 -0.01729,-0.27071 -0.05116,-0.40618 h 0.304891 c 0,-0.2032 -0.05085,-0.37251 -0.152446,-0.50798 h -0.406176 c -0.135467,-0.3048 -0.338849,-0.55903 -0.609782,-0.76223 h 0.254248 c -0.270933,-0.23706 -0.660405,-0.35553 -1.168404,-0.35553 z m 15.697233,0 c -0.474133,0 -0.880898,0.11847 -1.219564,0.35553 h -0.253731 c -0.2032,0.16934 -0.389806,0.42356 -0.559139,0.76223 h 0.457336 c -0.1016,0.13547 -0.152445,0.30478 -0.152445,0.50798 h -0.355534 c -0.03387,0.13547 -0.05064,0.27071 -0.05064,0.40618 v 0.45733 0.15245 h 0.304891 v 0.25373 h -0.609782 v 0.76223 h 0.355534 v 0.25425 h -0.101286 v 1.01595 h 1.26969 v 1.01596 h -0.406177 v 0.25373 h 2.285649 v 0.50798 h 1.62574 v -0.50798 h -0.711067 v -0.25373 h 0.965315 v -1.01596 h -1.015958 v -1.2702 h 0.101285 v -0.76223 h 0.762228 v -0.25373 h -1.168404 v -0.15245 -0.45733 c 0,-0.13547 -0.01729,-0.27071 -0.05116,-0.40618 h 0.406694 l -0.152446,-0.50798 h 0.152446 c -0.135467,-0.3048 -0.338849,-0.55903 -0.609782,-0.76223 h -0.101286 c -0.270933,-0.23706 -0.660405,-0.35553 -1.168404,-0.35553 z m 94.690856,0 c -0.60959,0 -1.08346,0.11847 -1.42213,0.35553 h -0.0512 c -0.0677,0.0339 -0.16942,0.11879 -0.30489,0.25425 h -0.66043 c -0.0677,0.0677 -0.13535,0.15213 -0.20308,0.25373 -0.0677,0.0677 -0.13536,0.15265 -0.20309,0.25425 h 1.93063 c -0.0677,0.13547 -0.1018,0.21987 -0.1018,0.25373 h -1.42266 l -0.15192,0.50798 h -0.25425 c 0,0.1016 -0.0168,0.18652 -0.0507,0.25425 h 0.10129 v 0.25373 h 0.76223 v 0.25425 h -1.42265 v 1.01596 h -1.16841 v 0.50798 h 1.37201 v 1.01596 h 1.26969 v 0.25424 h -0.76171 v 0.50798 h -0.71158 v 0.25373 h 0.86403 v 0.76223 h 0.0506 v 0.76171 h -0.91467 v 0.25425 h 1.01595 v 0.25373 h -1.1684 v 0.25425 h -0.71107 v 0.25373 h 5.53713 v -0.25373 h 2.13372 v -0.25425 h -0.35553 v -0.25373 h -0.50798 v -0.25425 h 0.96531 v -0.76171 h -0.76222 v -0.76223 h -0.81287 v -0.25373 h 0.96531 v -0.50798 h -0.45733 v -0.25424 h 0.2036 v -1.01596 h -2.13372 v -0.50798 h 1.98128 v -1.01596 h -0.10181 v -0.25425 h 0.15245 c 0,-0.0677 -0.0168,-0.11806 -0.0506,-0.15193 v -0.1018 h 0.0506 c -0.0339,-0.0677 -0.0506,-0.15265 -0.0506,-0.25425 h 0.0506 l -0.15245,-0.50798 h 1.67639 c -0.0677,-0.13546 -0.10181,-0.21986 -0.10181,-0.25373 h -1.42213 c -0.0339,-0.1016 -0.10149,-0.18651 -0.20309,-0.25425 -0.0677,-0.1016 -0.13536,-0.186 -0.20309,-0.25373 h -0.81287 c -0.13547,-0.13546 -0.25393,-0.22038 -0.35553,-0.25425 h 0.55862 c -0.37253,-0.23706 -0.8637,-0.35553 -1.4733,-0.35553 z m -49.4285,0.35553 v 0.25425 c 0.0339,0.16933 0.0512,0.33865 0.0512,0.50798 v 0.50798 h 1.32085 v 0.76171 h -3.14968 v 0.76223 h -0.55914 v 0.25425 h -1.37149 v 0.25373 h -2.79363 v 1.01596 h 4.16512 v 1.01595 h -0.10129 v 0.50798 h -1.82883 v 0.25425 h 1.11777 v 0.50798 h 3.35276 v 0.76171 h -0.60978 v 0.50798 h 0.40618 v 1.01596 h -0.30438 v 1.52445 h -1.67638 v 1.01596 h 1.93011 v 0.76171 h 0.25425 v 1.01596 h 0.45682 v 0.25425 h 0.4067 v 0.76171 h -1.5751 v 0.50798 h -0.30438 v 0.50798 h 4.41937 v 0.86403 c 0,0.0677 -0.0168,0.11858 -0.0506,0.15245 h -2.38797 c -0.0405,0.2834 -0.13638,0.51722 -0.28577,0.70383 h 7.69669 c -0.0759,-0.0382 -0.15673,-0.0717 -0.24805,-0.0946 -0.1016,-0.0339 -0.22007,-0.0674 -0.35553,-0.10129 h 0.15244 l -1.11776,-0.50797 -1.01596,-0.50798 h 0.91468 c -0.2032,-0.13547 -0.40659,-0.25445 -0.60979,-0.35605 l -0.50798,-0.40618 h 0.10181 c -0.16934,-0.13547 -0.32187,-0.25394 -0.45734,-0.35553 l -0.40618,-0.4067 h 2.18437 c -0.0339,-0.0677 -0.0679,-0.11858 -0.10181,-0.15244 l -0.1018,-0.10129 h -0.9648 l -0.40669,-0.50798 -0.40618,-0.50798 h 2.13372 c -0.13546,-0.16933 -0.23716,-0.33864 -0.30489,-0.50798 -0.0677,-0.2032 -0.13587,-0.37251 -0.2036,-0.50798 h -0.9648 c -0.0677,-0.13546 -0.10181,-0.22038 -0.10181,-0.25425 h -1.57458 l -0.15244,-0.50797 h -1.16841 c -0.0339,-0.1016 -0.0512,-0.25414 -0.0512,-0.45734 0,-0.27093 0.0173,-0.45702 0.0512,-0.55862 h 0.35554 c 0.16933,-0.4064 0.44034,-0.66011 0.81287,-0.76171 h -0.1018 c 0.0677,-0.0339 0.1862,-0.0512 0.35553,-0.0512 h 9.04234 c 0.0339,0 0.0679,0.0173 0.1018,0.0512 h 0.15245 0.1018 c 0.27094,0.0677 0.50787,0.1689 0.71107,0.30437 0.23707,0.13547 0.474,0.288 0.71107,0.45734 h -0.30489 c 0.27093,0.16933 0.55871,0.33864 0.86351,0.50798 0.3048,0.13546 0.66072,0.20308 1.06712,0.20308 0.27093,0 0.52464,-0.0508 0.76171,-0.15244 0.23707,-0.13547 0.37283,-0.32156 0.40669,-0.55862 h 0.15245 v -0.0507 c 0,-0.3048 -0.0681,-0.54173 -0.20361,-0.71106 -0.13546,-0.2032 -0.35511,-0.37303 -0.6599,-0.5085 h -0.60979 c -0.33866,-0.16933 -0.79576,-0.33865 -1.37149,-0.50798 -0.54187,-0.16933 -1.30403,-0.33865 -2.28616,-0.50798 h 0.45733 l -0.81287,-0.15244 c -0.27093,-0.0677 -0.54194,-0.11807 -0.81287,-0.15193 l -0.81287,-0.20361 h 0.20309 l -0.86351,-0.25373 h 0.1018 c -0.44027,-0.13547 -0.86381,-0.288 -1.27021,-0.45734 -0.4064,-0.16933 -0.79587,-0.35542 -1.1684,-0.55862 h 0.20309 l -1.21905,-0.76223 h -0.1018 c -0.23707,-0.16933 -0.45671,-0.33864 -0.65991,-0.50797 l -0.5085,-0.50798 h -1.0666 c -0.0339,-0.0677 -0.0674,-0.11858 -0.10128,-0.15245 l -0.10181,-0.10129 h 0.45734 c -0.1016,-0.10159 -0.16974,-0.18651 -0.20361,-0.25424 h -1.42213 l -0.55862,-0.76171 h 2.18436 l -0.30489,-0.5085 h -0.71107 c -0.16933,-0.37253 -0.30509,-0.71116 -0.40669,-1.01596 h 0.30489 c 0,-0.0677 -0.0168,-0.11858 -0.0507,-0.15244 v -0.10129 h 2.38746 c 0,-0.13547 -0.0341,-0.30478 -0.10181,-0.50798 h -4.47001 v -0.35553 l -0.1018,-0.4067 z m -31.749486,4.31809 v 0.25424 h 1.015959 v 1.01596 h -0.965316 v 0.25373 h 0.711068 1.117761 c 0.06773,-0.0677 0.135355,-0.15213 0.203088,-0.25373 0.06773,-0.1016 0.135355,-0.18651 0.203089,-0.25425 h 0.101802 c 0.338666,-0.40639 0.694069,-0.74502 1.066602,-1.01595 z m 0.761711,1.77818 v 0.25373 h -1.879472 v 0.25425 h 1.473295 v 0.76171 h -0.660425 v 0.76223 h 0.406177 v 0.25373 h -0.304891 v 0.50798 h 0.203605 v 0.76223 h 0.101286 v 0.50798 h -0.152446 v 0.50798 h -0.05064 v 1.01595 h 0.253732 v 1.01596 h -0.609265 v 1.01596 h -0.203089 v 0.50798 h 0.761711 v 1.01596 h -1.015959 v 1.01648 h 0.914673 l -0.152446,0.50797 h 0.863514 c -0.04141,0.0725 -0.08514,0.13605 -0.129708,0.19586 h 8.723498 c -0.453886,-0.20705 -0.881915,-0.43946 -1.278475,-0.70383 h 0.558623 c -0.237067,-0.16934 -0.457225,-0.33865 -0.660425,-0.50798 l -0.609782,-0.5085 h -2.539897 l -0.457336,-0.50798 c -0.03387,-0.0677 -0.08471,-0.15213 -0.152446,-0.25373 -0.06773,-0.1016 -0.135355,-0.18652 -0.203088,-0.25425 h 1.523938 c -0.06773,-0.13546 -0.152131,-0.25393 -0.253731,-0.35553 l -0.203089,-0.40618 h -0.457336 c 0,-0.0339 -0.03407,-0.11878 -0.101803,-0.25425 h -0.457336 l -0.151929,-0.25373 h 0.05064 l -0.304891,-0.76223 h -0.253731 c -0.03387,-0.13546 -0.06794,-0.25393 -0.101803,-0.35553 l -0.101802,-0.40618 h -1.930115 c -0.1016,-0.37253 -0.152445,-0.71116 -0.152445,-1.01596 h 1.676383 v -0.50797 -0.50798 c 0,-0.2032 0.01678,-0.37303 0.05064,-0.5085 h 1.523938 l 0.101802,-0.50798 c 0.03387,-0.2032 0.06794,-0.37251 0.101803,-0.50798 H 82.59028 l 0.101802,-0.25373 h 0.05064 l 0.101803,-0.25425 h -0.05116 c 0.06773,-0.13546 0.135355,-0.25393 0.203089,-0.35553 0.06773,-0.13547 0.118578,-0.27071 0.152445,-0.40618 h -2.997233 l 0.304891,-0.50798 z m -17.119369,0.25373 v 0.25425 h 0.660425 v 0.76171 h -0.101803 v 0.76223 h 0.457337 v 0.25373 h -0.254248 v 0.50798 h -0.101286 v 0.76223 h -0.05116 v 0.50798 h 0.05116 v 0.50798 h 0.203088 v 1.01595 h -2.13372 v 1.01596 h 2.794145 v 1.01596 h -0.81287 v 0.50798 h -0.05064 v 1.01596 H 63.48964 v 1.01648 h 0.304891 c 0,0.1016 -0.01729,0.20277 -0.05116,0.30437 l -0.101286,0.2036 h 1.117245 c -0.04354,0.0653 -0.09647,0.13056 -0.153996,0.19586 h 4.398698 c -0.04457,-0.0598 -0.0883,-0.12339 -0.129708,-0.19586 h -0.914673 l -0.151928,-0.50797 H 66.89305 v -1.01648 h 1.015958 v -1.01596 h -0.76171 v -0.50798 h 0.203088 v -1.01596 h 0.609265 v -1.01596 H 67.70592 v -1.01595 h 0.05064 v -0.50798 h 0.152445 v -0.50798 H 67.80772 v -0.76223 h -0.203606 v -0.50798 h 0.304891 v -0.25373 h -0.406176 v -0.76223 h 0.660424 v -0.76171 h -1.473295 v -0.25425 z m 32.918404,0.15245 -0.457336,0.1018 h 0.457336 z m 2.488737,0.1018 -2.488737,0.55862 -0.406693,0.10181 -0.304891,0.10128 -0.304374,0.1018 c -0.1016,0.0339 -0.186515,0.0847 -0.254248,0.15245 h -0.05064 l -0.203606,0.10129 c -0.06773,0.0339 -0.135355,0.0847 -0.203088,0.15244 h 1.422652 c -0.372533,0.27093 -0.559139,0.60956 -0.559139,1.01596 h -1.523938 v 0.15245 c 0,0.33866 0.118468,0.62696 0.355534,0.86403 0.169333,0.23706 0.508476,0.40638 1.016476,0.50797 h 1.219047 c 0.507999,-0.10159 0.948316,-0.27091 1.320849,-0.50797 0.3048,-0.27094 0.59258,-0.61008 0.863513,-1.01648 h 0.253732 c 0.06773,-0.16933 0.135872,-0.32135 0.203605,-0.45682 0.06773,-0.16933 0.118579,-0.35594 0.152445,-0.55914 H 98.64305 v -0.15244 c 0.03387,-0.0339 0.05064,-0.0674 0.05064,-0.10129 h 0.05116 v -0.25425 h 0.609265 c 0.03387,-0.13546 0.05116,-0.25393 0.05116,-0.35553 v -0.40618 z m 64.059143,1.77767 v 0.50798 h -1.16841 v 0.76223 h -0.86403 v 0.50798 h 0.5085 v 0.50798 h -1.82883 v 0.25424 h -1.06712 v 0.50798 h -0.10128 v 0.50798 h -0.10181 v 0.76171 h -1.82883 v 0.50798 h -2.13372 v 0.50798 h 3.30213 v 1.01596 h -3.91139 v 0.76223 h 1.21905 v 0.50798 h 2.74298 v 0.25425 h 0.71159 l -0.15245,0.50797 h -0.0512 l -0.10129,0.10129 c -0.0228,0.0228 -0.0459,0.0563 -0.0687,0.0946 h 5.7056 c -0.0694,-0.075 -0.12354,-0.14217 -0.15038,-0.19586 h 0.0506 c -0.1016,-0.16933 -0.15244,-0.33864 -0.15244,-0.50797 h 0.60978 v -0.25425 h -0.66042 v -0.50798 h 2.1332 v -0.76223 h -3.6065 v -1.01596 h 3.40341 v -0.50798 h -1.42214 v -0.50798 h -0.45733 v -1.26969 h 1.27021 v -0.50798 h 0.60926 v -0.25424 h -3.30212 v -0.50798 h 4.67361 v -0.50798 h -3.35276 v -0.76223 h 1.57509 v -0.50798 z m -69.291382,2.03243 c 0.135467,0.0339 0.338849,0.0507 0.609782,0.0507 h 0.304891 c 0.135467,0 0.253934,-0.0168 0.355534,-0.0507 z m 49.225422,2.5399 c -0.0507,0.0846 -0.10989,0.16917 -0.16485,0.25373 h 1.12965 v -0.25373 z m -0.5209,0.76171 c -0.0635,0.0847 -0.12291,0.16953 -0.19069,0.25425 h 0.91468 c -0.0339,0.0677 -0.10149,0.15213 -0.20309,0.25373 h -2.23552 l -0.40618,0.4067 c -0.1016,0.10159 -0.23736,0.22006 -0.4067,0.35553 h -0.0506 c -0.16933,0.13547 -0.35542,0.27071 -0.55862,0.40618 -0.16933,0.1016 -0.35594,0.22058 -0.55914,0.35605 h -0.91416 c -0.3048,0.2032 -0.64342,0.38929 -1.01595,0.55862 -0.37254,0.13547 -0.74523,0.288 -1.11777,0.45733 h -0.20308 c -0.1016,0.0339 -0.22007,0.0674 -0.35554,0.10129 -0.063,0.021 -0.16313,0.0605 -0.25218,0.0946 h 11.22309 c -0.0694,-0.075 -0.12405,-0.14217 -0.1509,-0.19586 h 0.0512 l -0.1018,-0.2036 c -0.0339,-0.1016 -0.0506,-0.20277 -0.0506,-0.30437 h -0.71107 v -0.25425 h -2.7435 v -0.50798 h -1.21905 v -0.76223 h 3.91139 v -1.01596 z m -40.83058,1.52394 c -0.16934,0.16933 -0.35543,0.33916 -0.55863,0.5085 -0.16933,0.16933 -0.35542,0.33864 -0.55862,0.50798 h -0.559137 c -0.382472,0.27623 -0.764744,0.50759 -1.147217,0.70383 h 2.701644 c -0.14713,-0.19532 -0.24206,-0.42979 -0.28422,-0.70383 h 2.43809 v -1.01648 z" />
  </g>
</svg>
