<?xml version="1.0" encoding="UTF-8" standalone="no"?>
<!-- Created with Inkscape (http://www.inkscape.org/) -->
<svg width="178.60075mm" height="62.345219mm" viewBox="0 0 178.60075 62.345219" version="1.1" id="svg7792" inkscape:version="1.1.2 (0a00cf5339, 2022-02-04)" sodipodi:docname="logo.svg" xmlns:inkscape="http://www.inkscape.org/namespaces/inkscape" xmlns:sodipodi="http://sodipodi.sourceforge.net/DTD/sodipodi-0.dtd" xmlns="http://www.w3.org/2000/svg" xmlns:svg="http://www.w3.org/2000/svg">
  <sodipodi:namedview id="namedview7794" pagecolor="#ffffff" bordercolor="#666666" borderopacity="1.0" inkscape:pageshadow="2" inkscape:pageopacity="0.0" inkscape:pagecheckerboard="0" inkscape:document-units="mm" showgrid="false" inkscape:zoom="0.64052329" inkscape:cx="156.12235" inkscape:cy="180.32131" inkscape:window-width="1846" inkscape:window-height="1016" inkscape:window-x="0" inkscape:window-y="0" inkscape:window-maximized="1" inkscape:current-layer="layer1"/>
  <defs id="defs7789"/>
  <g inkscape:label="Layer 1" inkscape:groupmode="layer" id="layer1" transform="translate(-18.232404,-108.23965)">
    <path id="path4562-3" style="color:#000000;display:inline;fill:#4fbda1;stroke:none;stroke-width:0.264999;-inkscape-stroke:none;fill-opacity:1" d="m 164.59183,108.24039 c -1.97724,0.0186 -3.699,0.5116 -3.699,0.5116 l -0.10387,0.0295 0.008,0.10542 c 0,0 2.48898,40.88539 1.43919,58.5897 l -0.004,0.0744 0.0584,0.0408 c 2.49619,1.80812 4.04289,2.3282 5.15214,2.33991 1.10924,0.0117 1.75869,-0.48177 2.39675,-0.63872 l 0.031,-0.008 0.0238,-0.0217 c 1.12838,-0.98976 1.43492,-2.96009 1.48415,-5.44153 0.0492,-2.48144 -0.17155,-5.48905 -0.17984,-8.57415 -0.008,-3.08511 0.195,-6.2452 1.08624,-9.02116 0.8855,-2.75806 2.45267,-5.12884 5.15782,-6.70347 1.434,0.18117 2.77085,1.63565 3.95532,3.82251 1.19497,2.20622 2.23371,5.12027 3.1073,8.08013 0.87358,2.95985 1.58258,5.96706 2.12494,8.36538 0.27117,1.19916 0.50173,2.24407 0.68936,3.05821 0.18763,0.81413 0.32825,1.38908 0.43977,1.6738 l 0.0114,0.0274 0.0196,0.0196 c 1.08239,1.05129 1.85106,1.76784 2.54713,2.26343 0.69607,0.49559 1.323,0.76843 2.10116,0.92036 0.78834,0.15391 1.87265,0.12516 2.77761,-0.38861 0.90497,-0.51377 1.6112,-1.52564 1.61696,-3.2582 v -0.0372 l -0.0191,-0.031 c -3.60351,-6.26077 -6.49183,-17.53544 -8.14266,-22.39243 -0.82979,-2.44136 -2.46218,-5.31807 -4.49017,-7.58042 -2.02799,-2.26235 -4.45641,-3.92088 -6.8926,-3.86333 -4.5606,0.10773 -7.33542,3.99205 -7.65431,4.44934 -0.007,-0.30179 -0.11754,-5.0806 -0.14831,-10.56628 -0.0159,-2.82802 -0.0113,-5.76035 0.0444,-8.1933 0.0557,-2.43294 0.16619,-4.37833 0.34003,-5.18366 l 0.01,-0.047 -0.0233,-0.0408 c -0.51124,-0.97033 -1.33982,-1.57423 -2.281,-1.92753 -0.94118,-0.35331 -1.99569,-0.46248 -2.98432,-0.4532 z m -67.134924,22.72833 c -1.955041,-0.0195 -5.527136,0.61215 -9.822141,4.39043 -6.525516,5.74045 -11.549879,12.5958 -13.644644,15.88689 -1.051081,1.65135 -1.894258,3.51714 -2.207101,5.31853 -0.312846,1.8014 -0.09329,3.54714 0.996323,4.91598 1.060278,1.33201 1.863852,2.37493 2.984312,3.08767 1.120463,0.71275 2.546498,1.08004 4.824513,1.08004 2.317184,0 4.880999,-1.38388 7.064168,-2.99413 2.18317,-1.61026 3.982242,-3.44873 4.753714,-4.40232 1.469617,-1.81656 4.936323,-6.8336 5.236374,-7.26726 0.01199,0.34593 0.116295,3.43142 0.312642,7.02903 0.103521,1.89678 0.228401,3.83814 0.368969,5.39244 0.07028,0.77714 0.144621,1.45841 0.222726,1.99057 0.07811,0.53217 0.152252,0.90455 0.254249,1.11518 0.363075,0.7498 1.39356,1.52935 2.50165,2.15026 1.1081,0.62091 2.278,1.07228 2.99414,1.07228 0.68015,0 1.42355,-0.17961 2.05103,-0.60926 0.62749,-0.42965 1.13476,-1.11268 1.32809,-2.09393 0.1012,-0.51364 0.0519,-1.40414 -0.0724,-2.58589 -0.12421,-1.18175 -0.32841,-2.64419 -0.55449,-4.25555 -0.45216,-3.22272 -0.99244,-7.04002 -1.1622,-10.36733 -0.16976,-3.32727 -0.009,-6.98538 0.0253,-10.10946 0.0173,-1.56204 0.002,-2.99153 -0.10181,-4.18166 -0.10421,-1.19012 -0.29362,-2.14013 -0.65215,-2.76158 -0.71383,-1.2373 -2.26638,-1.62424 -3.6189,-1.71669 -1.33998,-0.0916 -2.486299,0.10737 -2.50786,0.1111 -0.02921,-0.009 -0.576556,-0.18537 -1.57458,-0.19534 z m -47.302539,0.29094 c -0.909329,0.0101 -1.836656,0.36179 -2.646351,0.75809 -0.809694,0.39631 -1.507436,0.84057 -1.921846,1.04283 -0.347189,0.16946 -0.851638,0.58947 -1.472778,1.17978 -0.621141,0.5903 -1.348184,1.34907 -2.093929,2.18539 -1.432822,1.60685 -2.890138,3.47535 -3.831808,4.99608 -1.061193,-3.69195 -2.225665,-5.9066 -3.310392,-7.26364 -1.113054,-1.39248 -2.142884,-1.93818 -2.838074,-2.40244 -0.39821,-0.26593 -0.99902,-0.32624 -1.70118,-0.25993 -0.70217,0.0663 -1.51006,0.2676 -2.32028,0.56689 -1.62042,0.59859 -3.24977,1.58428 -4.02559,2.72852 -0.76689,1.13106 -2.47961,4.63043 -3.82044,10.33942 -1.34083,5.70899 -2.45662,13.61694 -1.68748,23.52363 v 0.0217 l 0.01,0.0191 c 0.20244,0.47243 0.37212,0.78347 0.51986,0.98857 0.14774,0.2051 0.27322,0.31128 0.40618,0.34778 0.13296,0.0365 0.25456,-0.0253 0.31419,-0.0884 0.0596,-0.063 0.0842,-0.13281 0.0842,-0.13281 l 0.0114,-0.0289 -0.004,-0.0315 c 0,0 -0.49985,-4.93094 -0.37723,-11.12697 0.11225,-5.67245 0.97514,-12.31871 2.98094,-17.26923 -1.54611,7.67871 -2.93363,11.45125 -1.81281,28.27114 l 0.004,0.0625 0.0527,0.0372 c 1.2149,0.85386 2.20798,0.97116 2.93935,0.78342 0.73138,-0.18775 1.1886,-0.6639 1.37511,-0.9865 0.0372,-0.0644 0.0349,-0.10498 0.0429,-0.17209 0.008,-0.0671 0.0128,-0.15134 0.0176,-0.25579 0.01,-0.20891 0.0138,-0.49545 0.0155,-0.85163 0.003,-0.71237 -0.004,-1.70354 -0.008,-2.90008 -0.007,-2.39309 0.005,-5.6049 0.16019,-9.02529 0.30599,-6.73526 1.20547,-14.25009 3.56051,-17.91054 1.80445,2.28577 3.10876,5.73118 4.01784,8.78345 0.46565,1.56342 0.83385,3.01451 1.125,4.13876 0.145571,0.56213 0.271617,1.04262 0.382403,1.41594 0.110786,0.37331 0.199548,0.63375 0.299207,0.7891 0.341875,0.53291 1.18502,1.29664 2.118734,1.92546 0.933713,0.62882 1.93775,1.12765 2.662369,1.01596 0.673337,-0.10379 1.382342,-0.46325 1.976624,-0.91984 0.594282,-0.45659 1.074631,-1.00738 1.26969,-1.53324 0.101814,-0.27448 0.155217,-0.71373 0.208773,-1.27176 0.05355,-0.55802 0.103075,-1.22882 0.172082,-1.93321 0.138015,-1.40879 0.364464,-2.95515 0.867131,-3.97289 0.978582,-1.98131 3.054556,-4.67199 3.253548,-4.93148 0.07085,0.24065 1.144751,3.88099 2.375049,8.56434 1.270183,4.83517 2.627363,10.50344 2.978629,13.80277 l 0.0057,0.045 0.02946,0.031 c 2.064471,2.23222 3.589143,2.82977 4.726843,2.73472 1.1377,-0.0951 1.849024,-0.88059 2.275313,-1.28158 l 0.0078,-0.008 0.0057,-0.008 c 0.335036,-0.43848 0.587149,-0.70123 0.773596,-0.91002 0.186447,-0.2088 0.316739,-0.37518 0.36742,-0.60152 0.101359,-0.45266 -0.09219,-1.03533 -0.474907,-2.72696 -0.382338,-1.68994 -1.818211,-8.38753 -3.405993,-14.96085 -0.793891,-3.28665 -1.625467,-6.54293 -2.384868,-9.1307 -0.379701,-1.29389 -0.740059,-2.41902 -1.070219,-3.30058 -0.330159,-0.88155 -0.6222,-1.51469 -0.896586,-1.84588 -0.647706,-0.78181 -1.462594,-1.06595 -2.289266,-1.05678 z m 92.648093,0.17415 c -1.85577,-0.023 -3.91487,0.22355 -5.91385,0.95498 -2.89259,1.05841 -7.1623,3.04579 -10.7673,5.02708 -1.8025,0.99065 -3.43803,1.9786 -4.65243,2.85151 -0.6072,0.43645 -1.10924,0.84365 -1.4764,1.21129 -0.36716,0.36765 -0.60582,0.69026 -0.66611,0.99788 -0.21148,1.0791 0.31758,2.13038 1.52704,3.13882 1.20946,1.00844 3.10597,2.0001 5.70146,3.01532 5.09231,1.99185 10.54032,3.90212 10.7301,3.96875 -0.1034,0.12643 -1.41126,1.73327 -3.2949,3.64681 -1.95624,1.9873 -4.41224,4.15857 -6.33966,4.89841 -1.96858,0.75562 -3.10877,1.08052 -3.77755,1.46296 -0.33438,0.19121 -0.55653,0.40777 -0.67541,0.69711 -0.11888,0.28934 -0.13538,0.63448 -0.10748,1.09192 0.0601,0.98473 1.03277,2.09843 2.28306,2.99775 1.25029,0.89934 2.79136,1.57407 4.06849,1.57407 0.34896,0 0.79256,-0.15231 1.33221,-0.41961 0.53966,-0.26731 1.1716,-0.65313 1.86501,-1.12914 1.3868,-0.95201 3.02208,-2.27106 4.65036,-3.74809 3.25656,-2.95404 6.48057,-6.52764 7.60729,-9.10125 0.89498,-2.04428 1.2316,-3.96203 0.0822,-5.67407 -0.30617,-0.45605 -0.89378,-0.81517 -1.65623,-1.13843 -0.76244,-0.32326 -1.70351,-0.60533 -2.72283,-0.87489 -2.03865,-0.5391 -4.39189,-1.025 -6.22443,-1.64279 -1.83952,-0.62014 -2.98822,-1.14473 -3.67368,-1.51153 -0.56199,-0.30074 -0.6667,-0.40688 -0.73639,-0.46509 0.14875,-0.10136 2.34939,-1.60976 5.38055,-3.17552 3.13144,-1.61755 6.97423,-3.18065 9.74256,-3.00395 1.42532,0.091 2.43674,-0.0514 3.15227,-0.34003 0.71552,-0.28861 1.13368,-0.72945 1.34565,-1.20871 0.42393,-0.95853 0.0502,-2.02736 -0.12919,-2.43965 -0.045,-0.1033 -0.12748,-0.18294 -0.24185,-0.26768 -0.11437,-0.0847 -0.26212,-0.17077 -0.44132,-0.25787 -0.35842,-0.17419 -0.84548,-0.35298 -1.43402,-0.51728 -1.17706,-0.32858 -2.76312,-0.59692 -4.53512,-0.61908 -5.3e-4,-1e-5 -0.001,0 -0.002,0 z m -48.175358,7.85533 c -0.219347,0.61831 -2.334876,6.53168 -5.539195,11.41791 -3.306373,5.04185 -8.39194,8.85679 -8.586038,9.00204 -0.04199,-0.0871 -0.09573,-0.22098 -0.146246,-0.42013 -0.103404,-0.40773 -0.187211,-1.07279 -0.09198,-2.08567 0.09665,-1.02791 0.11336,-1.56533 0.775663,-2.74815 0.662299,-1.18282 1.976564,-2.9998 4.653978,-6.50192 2.672104,-3.49519 4.997381,-5.72343 6.650757,-7.07606 1.437225,-1.17579 2.066034,-1.47436 2.283063,-1.58802 z" sodipodi:nodetypes="sccccccscccscscsssscccssscccsssccscccsssssssssssscssssssssssssssscsssssscsssssscccssscccscsccsscccsccssssssssssscscccscccssssssssssssssssscsssssssssssssssscsssscsssssscscsssssc"/>
  </g>
</svg>